<?xml version="1.0" standalone="no"?>
<!DOCTYPE svg PUBLIC "-//W3C//DTD SVG 1.1//EN" "http://www.w3.org/Graphics/SVG/1.1/DTD/svg11.dtd" >
<svg>
<metadata>
Created by FontForge 20090622 at Wed Jun 29 18:46:49 2016
 By deploy user
Copyright (c) 2012 by Toni Hurme. All rights reserved.
</metadata>
<defs>
<font id="HurmeGeometricSans4-Regular" horiz-adv-x="814" >
  <font-face 
    font-family="Hurme Geometric Sans 4"
    font-weight="400"
    font-stretch="normal"
    units-per-em="1000"
    panose-1="2 11 5 0 2 0 0 0 0 0"
    ascent="764"
    descent="-236"
    x-height="504"
    cap-height="697"
    bbox="-63 -292 1419 1052"
    underline-thickness="50"
    underline-position="-140"
    unicode-range="U+0020-U+FB04"
  />
<missing-glyph horiz-adv-x="712" 
d="M712 0h-712v697h712v-697zM60 637v-577h592v577h-592zM171 123l-40 40l185 185l-185 185l40 40l185 -185l185 185l40 -40l-185 -185l185 -185l-40 -40l-185 185z" />
    <glyph glyph-name="ff" unicode="ff" horiz-adv-x="546" 
d="M186 0h-74v435h-81v69h81v42q0 105 51 138q43 28 101 28q24 0 39 -4v-70q-22 5 -47 5q-37 0 -53.5 -20t-16.5 -67v-52h160v42q0 105 51 138q43 28 101 28q24 0 39 -4v-70q-22 5 -47 5q-37 0 -53.5 -20t-16.5 -67v-52h95v-69h-95v-435h-74v435h-160v-435z" />
    <glyph glyph-name="fj" unicode="fj" horiz-adv-x="477" 
d="M186 0h-74v435h-81v69h81v42q0 97 49 137q41 29 123 29q32 0 49 -4v-70q-25 5 -57 5q-48 0 -69 -20t-21 -67v-52h234v-556q0 -156 -152 -156q-11 0 -27 2v70q17 -3 35 -3q37 0 53.5 20t16.5 67v487h-160v-435z" />
    <glyph glyph-name="ffj" unicode="ffj" horiz-adv-x="711" 
d="M186 0h-74v435h-81v69h81v42q0 105 51 138q43 28 101 28q24 0 39 -4v-70q-22 5 -47 5q-37 0 -53.5 -20t-16.5 -67v-52h160v42q0 97 49 137q41 29 123 29q32 0 49 -4v-70q-25 5 -57 5q-48 0 -69 -20t-21 -67v-52h234v-556q0 -156 -152 -156q-11 0 -27 2v70q17 -3 35 -3
q37 0 53.5 20t16.5 67v487h-160v-435h-74v435h-160v-435z" />
    <glyph glyph-name=".notdef" horiz-adv-x="712" 
d="M712 0h-712v697h712v-697zM60 637v-577h592v577h-592zM171 123l-40 40l185 185l-185 185l40 40l185 -185l185 185l40 -40l-185 -185l185 -185l-40 -40l-185 185z" />
    <glyph glyph-name=".null" horiz-adv-x="0" 
 />
    <glyph glyph-name="nonmarkingreturn" horiz-adv-x="333" 
 />
    <glyph glyph-name="space" unicode=" " horiz-adv-x="412" 
 />
    <glyph glyph-name="exclam" unicode="!" horiz-adv-x="240" 
d="M151 155h-62l-16 542h94zM85 0q-15 14 -15 35t15 35q15 15 35 15t35 -15q15 -14 15 -35t-15 -35q-15 -15 -35 -15t-35 15z" />
    <glyph glyph-name="quotedbl" unicode="&#x22;" horiz-adv-x="289" 
d="M233 445h-51l-12 252h75zM107 445h-51l-12 252h75z" />
    <glyph glyph-name="numbersign" unicode="#" horiz-adv-x="547" 
d="M156 116h-69l28 108h-88v62h104l30 118h-89v62h105l27 107h69l-28 -107h118l28 107h68l-27 -107h88v-62h-104l-30 -118h90v-62h-105l-28 -108h-69l28 108h-118zM229 404l-30 -118h118l31 118h-119z" />
    <glyph glyph-name="dollar" unicode="$" horiz-adv-x="544" 
d="M45 155l73 34q38 -104 128 -125v284q-82 38 -124 79q-40 41 -40 116q0 68 46 114q47 47 118 54v96h64v-98q100 -15 148 -106l-66 -34q-29 53 -82 66v-234q105 -47 150 -93q45 -45 45 -128q0 -81 -51.5 -133t-143.5 -58v-96h-64v98q-145 19 -201 164zM246 430v209
q-40 -5 -63 -30t-23 -66q0 -40 20 -65t66 -48zM310 319v-258q73 6 98 51q19 34 19 68q0 49 -26 79t-91 60z" />
    <glyph glyph-name="percent" unicode="%" horiz-adv-x="733" 
d="M302 446q-46 -46 -110 -46t-110 46t-46 110t46 110t110 46t110 -46t46 -110t-46 -110zM181 0h-77l451 697h77zM192 461q37 0 63.5 27.5t26.5 67.5q0 39 -26.5 67t-63.5 28t-63.5 -28t-26.5 -67q0 -40 26 -67.5t64 -27.5zM430 30q-45 46 -45 111t45 110q46 46 111 46
t110 -46q46 -45 46 -110t-46 -111q-45 -45 -110 -45t-111 45zM451 141q0 -40 26 -67.5t64 -27.5q37 0 63.5 27.5t26.5 67.5q0 39 -26.5 67t-63.5 28t-63.5 -28t-26.5 -67z" />
    <glyph glyph-name="ampersand" unicode="&#x26;" horiz-adv-x="739" 
d="M42 223q0 144 139 210q-29 53 -29 106q0 74 49 122q49 49 128 49q76 0 123 -46q48 -45 48 -112q0 -54 -33 -87h244v-72h-135v-38q0 -137 -39 -222l120 -133h-100l-61 68q-75 -83 -199 -83q-114 0 -185 66q-70 66 -70 172zM320 372l159 -175q19 61 19 158v38h-149v48
q34 8 55.5 36t21.5 66q0 41 -28 68t-71 27q-39 0 -68 -27t-29 -72q0 -28 14 -61q21 -46 76 -106zM120 223q0 -77 47.5 -121.5t129.5 -44.5q99 0 147 68l-87 95l-56 61q-11 13 -30 32q-31 36 -48 58q-103 -46 -103 -148z" />
    <glyph glyph-name="quotesingle" unicode="'" horiz-adv-x="163" 
d="M107 445h-51l-12 252h75z" />
    <glyph glyph-name="parenleft" unicode="(" horiz-adv-x="294" 
d="M273 789l37 -40q-189 -186 -189 -440t189 -440l-37 -40q-226 199 -226 480t226 480z" />
    <glyph glyph-name="parenright" unicode=")" horiz-adv-x="294" 
d="M21 -171l-37 40q189 186 189 440t-189 440l37 40q226 -199 226 -480t-226 -480z" />
    <glyph glyph-name="asterisk" unicode="*" horiz-adv-x="388" 
d="M194 509l-68 -94l-46 36l75 86l-110 34l21 56l104 -44l-5 114h59l-6 -114l105 44l20 -56l-110 -34l76 -86l-47 -36z" />
    <glyph glyph-name="plus" unicode="+" horiz-adv-x="384" 
d="M230 190h-76v123h-112v69h112v124h76v-124h112v-69h-112v-123z" />
    <glyph glyph-name="comma" unicode="," horiz-adv-x="192" 
d="M27 -128h-63l90 239h99z" />
    <glyph glyph-name="hyphen" unicode="-" horiz-adv-x="384" 
d="M342 229h-300v69h300v-69z" />
    <glyph glyph-name="period" unicode="." horiz-adv-x="188" 
d="M59 7q-15 15 -15 36t15 35q15 15 35 15t35 -15q15 -14 15 -35t-15 -36q-15 -14 -35 -14t-35 14z" />
    <glyph glyph-name="slash" unicode="/" horiz-adv-x="422" 
d="M70 -136h-69l312 859h71z" />
    <glyph glyph-name="zero" unicode="0" horiz-adv-x="554" 
d="M43 199q-3 33 -3 150q0 116 3 149q9 91 76 152q68 62 158 62t158 -62q67 -61 76 -152q3 -33 3 -149q0 -117 -3 -150q-9 -92 -76 -153t-158 -61t-158 61t-76 153zM117 204q6 -64 51 -104q47 -41 109 -41t108 41q46 40 52 104q3 29 3 145q0 115 -3 144q-6 64 -52 104
q-46 41 -108 41t-109 -41q-45 -40 -51 -104q-3 -29 -3 -144q0 -117 3 -145z" />
    <glyph glyph-name="one" unicode="1" horiz-adv-x="301" 
d="M212 0h-78v625h-96v72h174v-697z" />
    <glyph glyph-name="two" unicode="2" horiz-adv-x="502" 
d="M467 0h-454v51l313 353q46 52 46 111q0 51 -37 87q-36 36 -87 36t-87 -37q-36 -36 -36 -87h-77q0 81 59 140q58 58 142 58t142 -58q59 -59 59 -140q0 -82 -72 -165l-249 -277h338v-72z" />
    <glyph glyph-name="three" unicode="3" horiz-adv-x="561" 
d="M12 130l67 31q20 -48 70.5 -75t120.5 -27q77 0 127 44q49 45 49 116q0 70 -50.5 113.5t-135.5 43.5q-42 0 -80 -12l-28 50l225 211h-301v72h419v-52l-222 -206q8 2 20 2q97 0 161 -63q66 -63 66 -159q0 -104 -71 -169t-179 -65q-91 0 -160 38.5t-98 106.5z" />
    <glyph glyph-name="four" unicode="4" horiz-adv-x="571" 
d="M417 155h-364v52l242 490h84l-233 -470h271v152h78v-379h-78v155z" />
    <glyph glyph-name="five" unicode="5" horiz-adv-x="555" 
d="M28 127l67 32q22 -46 66 -73t97 -27q71 0 124 50t53 119q0 72 -49 121q-50 50 -118 50q-78 0 -130 -45l-55 13l59 330h323v-72h-257l-31 -171q39 19 90 19q110 0 179 -73t69 -166q0 -111 -75 -180q-74 -69 -182 -69q-74 0 -137 39q-62 39 -93 103z" />
    <glyph glyph-name="six" unicode="6" horiz-adv-x="563" 
d="M40 230q0 50 22 95q20 41 73 120q2 2 167 252h93l-160 -238q27 6 57 6q92 0 163 -69q70 -67 70 -165q0 -104 -71 -175t-171 -71q-99 0 -172 71q-71 73 -71 174zM283 394q-71 0 -118 -48q-46 -46 -46 -119q0 -71 47 -120q48 -48 117 -48t118 49q50 50 50 119q0 68 -50 118
q-49 49 -118 49z" />
    <glyph glyph-name="seven" unicode="7" horiz-adv-x="548" 
d="M197 0h-86l308 625h-383v72h476v-54z" />
    <glyph glyph-name="eight" unicode="8" horiz-adv-x="542" 
d="M38 211q0 69 34 119t90 73q-71 50 -71 129q0 74 53 127t127 53t127 -53t53 -127q0 -79 -71 -129q56 -23 90 -73t34 -119q0 -92 -68 -160q-68 -66 -165 -66t-165 66q-68 68 -68 160zM198 457q30 -31 73 -31t73 31t30 75t-30 75t-73 31t-73 -31t-30 -75t30 -75zM161 318
q-45 -44 -45 -107t45 -108q47 -44 110 -44t109 44q46 45 46 108q0 64 -46 107q-45 45 -109 45q-63 0 -110 -45z" />
    <glyph glyph-name="nine" unicode="9" horiz-adv-x="552" 
d="M251 0h-93l171 252q-31 -9 -60 -9q-89 0 -160 65q-70 64 -70 163q0 101 69 171q70 70 168 70q102 0 170 -69q67 -68 67 -168q0 -39 -16 -80q-14 -38 -32 -69q-17 -28 -54 -84l-1 -2q-1 -2 -3 -5l-4 -6zM276 312q74 0 118.5 46t44.5 117q0 67 -48 115q-46 48 -115 48
q-68 0 -116 -48q-47 -49 -47 -115t47 -115q48 -48 116 -48z" />
    <glyph glyph-name="colon" unicode=":" horiz-adv-x="188" 
d="M129 354q-15 -14 -35 -14t-35 14q-15 15 -15 36t15 35q15 15 35 15t35 -15q15 -14 15 -35t-15 -36zM129 78q-15 -14 -35 -14t-35 14q-15 15 -15 36t15 35q15 15 35 15t35 -15q15 -14 15 -35t-15 -36z" />
    <glyph glyph-name="semicolon" unicode=";" horiz-adv-x="228" 
d="M149 354q-15 -14 -35 -14t-35 14q-15 15 -15 36t15 35q15 15 35 15t35 -15q15 -14 15 -35t-15 -36zM51 -112h-66l84 223h99z" />
    <glyph glyph-name="less" unicode="&#x3c;" horiz-adv-x="414" 
d="M362 134l-318 195v54l318 196v-78l-239 -145l239 -144v-78z" />
    <glyph glyph-name="equal" unicode="=" horiz-adv-x="426" 
d="M384 402h-342v69h342v-69zM384 238h-342v69h342v-69z" />
    <glyph glyph-name="greater" unicode="&#x3e;" horiz-adv-x="413" 
d="M370 329l-318 -195v78l239 144l-239 145v78l318 -196v-54z" />
    <glyph glyph-name="question" unicode="?" horiz-adv-x="396" 
d="M215 156q-61 0 -97.5 33.5t-36.5 89.5q0 73 89 138l49 36q15 11 33 30q31 31 31 82q0 5 -1 11t-6 18.5t-13.5 21.5t-27.5 16.5t-44 7.5q-74 0 -142 -65v88q61 49 142 49q95 0 136 -54q34 -44 34 -90q0 -40 -7.5 -65.5t-29.5 -50.5q-20 -23 -40 -39l-61 -47
q-64 -46 -64 -87q0 -51 56 -51q39 0 71 18v-77q-29 -13 -71 -13zM157 0q-15 14 -15 35t15 35q15 15 35 15t35 -15q15 -14 15 -35t-15 -35q-15 -15 -35 -15t-35 15z" />
    <glyph glyph-name="at" unicode="@" horiz-adv-x="803" 
d="M38 292q0 94 45 176q47 83 130 135q86 53 188 53q148 0 255 -100q109 -100 109 -247q0 -101 -40 -156t-112 -55q-80 0 -105 67q-44 -53 -110 -53q-72 0 -122 50t-50 125t50 125t122 50q62 0 100 -44v35h68v-229q0 -22 5 -36t14 -19.5t14.5 -6.5t13.5 -1q27 0 51 19
q33 27 33 129q0 119 -87 201q-88 83 -209 83q-122 0 -209 -89q-86 -89 -86 -212t86 -212q87 -88 209 -88q72 0 138 39l32 -60q-78 -42 -170 -42q-94 0 -176 46q-83 45 -135 129q-52 85 -52 188zM293 287q0 -47 29.5 -78t75.5 -31q44 0 74.5 31.5t30.5 77.5q0 48 -30 79
t-75 31q-46 0 -75.5 -31t-29.5 -79z" />
    <glyph glyph-name="A" unicode="A" horiz-adv-x="720" 
d="M119 0h-84l295 697h60l295 -697h-84l-72 172h-338zM360 576l-139 -332h278z" />
    <glyph glyph-name="B" unicode="B" horiz-adv-x="592" 
d="M331 0h-239v697h213q79 0 133 -51q54 -50 54 -127q0 -103 -89 -140q67 -14 103.5 -59.5t36.5 -113.5q0 -90 -61 -148q-59 -58 -151 -58zM170 625v-219h130q49 0 81.5 31.5t32.5 78.5t-32 78t-81 31h-131zM170 336v-264h156q60 0 99.5 38t39.5 96q0 56 -40 93
q-38 37 -100 37h-155z" />
    <glyph glyph-name="C" unicode="C" horiz-adv-x="711" 
d="M410 710q161 0 266 -118l-53 -48q-81 94 -213 94q-123 0 -204 -83t-81 -207q0 -126 81 -208t204 -82q135 0 216 98l53 -48q-105 -122 -269 -122q-152 0 -258 103q-105 103 -105 259q0 154 105 258q107 104 258 104z" />
    <glyph glyph-name="D" unicode="D" horiz-adv-x="726" 
d="M317 0h-225v697h224q167 0 263 -96q97 -96 97 -253t-96 -253q-97 -95 -263 -95zM170 625v-553h141q139 0 213 74t74 202q0 129 -74.5 203t-213.5 74h-140z" />
    <glyph glyph-name="E" unicode="E" horiz-adv-x="549" 
d="M493 0h-401v697h394v-72h-316v-221h297v-72h-297v-260h323v-72z" />
    <glyph glyph-name="F" unicode="F" horiz-adv-x="506" 
d="M170 0h-78v697h364v-72h-286v-225h261v-72h-261v-328z" />
    <glyph glyph-name="G" unicode="G" horiz-adv-x="740" 
d="M410 710q143 0 241 -91l-49 -54q-79 73 -192 73q-123 0 -204 -83t-81 -207q0 -126 81 -208t204 -82q112 0 191 70v180h-213v72h291v-279q-106 -115 -269 -115q-152 0 -258 103q-105 103 -105 259q0 154 105 258q107 104 258 104z" />
    <glyph glyph-name="H" unicode="H" horiz-adv-x="727" 
d="M170 0h-78v697h78v-291h387v291h78v-697h-78v334h-387v-334z" />
    <glyph glyph-name="I" unicode="I" horiz-adv-x="270" 
d="M174 0h-78v697h78v-697z" />
    <glyph glyph-name="J" unicode="J" horiz-adv-x="310" 
d="M14 -5v74q24 -10 53 -10q46 3 62.5 35.5t15.5 94.5v508h78v-505q0 -73 -13 -116q-24 -85 -138 -90q-29 0 -58 9z" />
    <glyph glyph-name="K" unicode="K" horiz-adv-x="638" 
d="M170 0h-78v697h78v-370l335 370h96l-278 -304l286 -393h-94l-244 336l-101 -110v-226z" />
    <glyph glyph-name="L" unicode="L" horiz-adv-x="496" 
d="M457 0h-365v697h78v-625h287v-72z" />
    <glyph glyph-name="M" unicode="M" horiz-adv-x="859" 
d="M169 0h-77v697h72l266 -442l266 442h71v-697h-77v543l-260 -426l-261 425v-542z" />
    <glyph glyph-name="N" unicode="N" horiz-adv-x="751" 
d="M170 0h-78v697h68l421 -558v558h78v-697h-63l-426 564v-564z" />
    <glyph glyph-name="O" unicode="O" horiz-adv-x="820" 
d="M152 89q-105 103 -105 259q0 154 105 258q107 104 258 104t257 -104q106 -103 106 -258q0 -156 -106 -259q-104 -103 -257 -103q-152 0 -258 103zM205 555q-81 -83 -81 -207q0 -126 81 -208q82 -82 205 -82t204 82t81 208q0 124 -81 207t-204 83q-122 0 -205 -83z" />
    <glyph glyph-name="P" unicode="P" horiz-adv-x="573" 
d="M170 0h-78v697h223q90 0 151 -61q62 -60 62 -151q0 -90 -62 -152q-62 -60 -151 -60h-145v-273zM170 625v-280h142q59 0 98 40q40 40 40 100t-40 100q-39 40 -98 40h-142z" />
    <glyph glyph-name="Q" unicode="Q" horiz-adv-x="820" 
d="M773 348q0 -153 -102 -256l74 -91l-55 -45l-74 91q-91 -61 -206 -61q-152 0 -258 103q-105 103 -105 259q0 154 105 258q107 104 258 104t257 -104q106 -103 106 -258zM410 58q89 0 159 46l-114 140l55 45l113 -139q72 82 72 198q0 124 -81 207t-204 83q-122 0 -205 -83
q-81 -83 -81 -207q0 -126 81 -208q82 -82 205 -82z" />
    <glyph glyph-name="R" unicode="R" horiz-adv-x="606" 
d="M170 0h-78v697h238q86 0 148 -60q61 -58 61 -148q0 -68 -36 -121t-97 -77l168 -291h-89l-157 276h-1h-157v-276zM170 625v-277h152q60 0 99 40q40 40 40 101q0 58 -38 97t-96 39h-157z" />
    <glyph glyph-name="S" unicode="S" horiz-adv-x="550" 
d="M41 153l67 31q52 -126 175 -126q89 0 118 49q22 38 22 74q0 57 -35 87t-121 68q-95 42 -139 83t-44 118q0 75 54 124q53 49 137 49q128 0 188 -111l-67 -34q-39 73 -122 73q-48 0 -80 -28t-32 -71q0 -53 41 -84q36 -23 41 -26l60 -27q106 -46 151 -93q46 -45 46 -127
q0 -86 -58 -141q-56 -55 -161 -55q-85 0 -148.5 42.5t-92.5 124.5z" />
    <glyph glyph-name="T" unicode="T" horiz-adv-x="518" 
d="M298 0h-78v625h-190v72h458v-72h-190v-625z" />
    <glyph glyph-name="U" unicode="U" horiz-adv-x="696" 
d="M87 244v453h78v-445q0 -93 48.5 -142.5t134.5 -49.5t134.5 49.5t48.5 142.5v445h78v-453q0 -122 -72 -190q-72 -66 -189 -66t-189 66q-72 68 -72 190z" />
    <glyph glyph-name="V" unicode="V" horiz-adv-x="709" 
d="M382 0h-55l-292 697h85l235 -566l234 566h85z" />
    <glyph glyph-name="W" unicode="W" horiz-adv-x="920" 
d="M281 0h-50l-204 697h79l155 -527l172 527h54l172 -527l155 527h79l-204 -697h-50l-179 539z" />
    <glyph glyph-name="X" unicode="X" horiz-adv-x="653" 
d="M125 0h-83l234 361l-220 336h87l184 -283l183 283h84l-219 -337l236 -360h-88l-200 306z" />
    <glyph glyph-name="Y" unicode="Y" horiz-adv-x="622" 
d="M351 0h-78v286l-245 411h86l199 -334l197 334h84l-243 -411v-286z" />
    <glyph glyph-name="Z" unicode="Z" horiz-adv-x="630" 
d="M584 0h-540v48l428 577h-379v72h484v-52l-425 -573h432v-72z" />
    <glyph glyph-name="bracketleft" unicode="[" horiz-adv-x="307" 
d="M162 625v-746h147v-72h-225v890h225v-72h-147z" />
    <glyph glyph-name="backslash" unicode="\" horiz-adv-x="422" 
d="M409 -136h-69l-314 859h69z" />
    <glyph glyph-name="bracketright" unicode="]" horiz-adv-x="307" 
d="M-2 -193v72h147v746h-147v72h225v-890h-225z" />
    <glyph glyph-name="asciicircum" unicode="^" horiz-adv-x="520" 
d="M101 350h-78l209 347h56l209 -347h-79l-158 268z" />
    <glyph glyph-name="underscore" unicode="_" horiz-adv-x="296" 
d="M-2 -193v69h300v-69h-300z" />
    <glyph glyph-name="grave" unicode="`" horiz-adv-x="538" 
d="M308 552h-59l-93 145h99z" />
    <glyph glyph-name="a" unicode="a" horiz-adv-x="629" 
d="M290 519q128 0 179 -90v75h74v-391q0 -33 8.5 -48t29.5 -15q8 0 26 2v-56q-19 -8 -47 -8q-33 0 -53 14q-30 23 -34 72q-57 -89 -183 -89q-108 0 -181 76q-74 77 -74 191q0 113 74 190t181 77zM290 54q81 0 134 56q54 57 54 142q0 86 -54 141q-52 57 -134 57
q-78 0 -130 -57q-51 -55 -51 -141q0 -85 51 -142q53 -56 130 -56z" />
    <glyph glyph-name="b" unicode="b" horiz-adv-x="600" 
d="M131 0h-74v697h74v-268q51 90 179 90q107 0 181 -77t74 -190q0 -114 -74 -191q-73 -76 -181 -76q-128 0 -179 90v-75zM310 54q78 0 129 56q52 56 52 142t-52 141q-51 57 -129 57q-81 0 -135 -57q-53 -56 -53 -141q0 -84 53 -142q54 -56 135 -56z" />
    <glyph glyph-name="c" unicode="c" horiz-adv-x="517" 
d="M303 519q118 0 191 -76l-45 -52q-57 59 -146 59q-83 0 -139 -57q-55 -55 -55 -141t55 -142q56 -56 139 -56q89 0 146 59l45 -52q-73 -76 -191 -76q-113 0 -190 76q-78 76 -78 191q0 114 78 190q79 77 190 77z" />
    <glyph glyph-name="d" unicode="d" horiz-adv-x="629" 
d="M290 519q128 0 179 -90v268h74v-584q0 -33 8.5 -48t29.5 -15q8 0 26 2v-56q-19 -8 -47 -8q-33 0 -53 14q-30 23 -34 72q-57 -89 -183 -89q-108 0 -181 76q-74 77 -74 191q0 113 74 190t181 77zM290 54q81 0 134 56q54 57 54 142q0 86 -54 141q-52 57 -134 57
q-78 0 -130 -57q-51 -55 -51 -141q0 -85 51 -142q53 -56 130 -56z" />
    <glyph glyph-name="e" unicode="e" horiz-adv-x="551" 
d="M35 246v4q0 121 71 195t181 74q103 0 167 -73q65 -73 65 -178q0 -22 -1 -32h-409q3 -83 52 -132.5t128 -49.5q50 0 85 16.5t70 53.5l49 -48q-80 -89 -204 -89q-113 0 -184 71q-70 70 -70 188zM114 301h326q0 61 -45 105q-46 44 -108 44q-69 0 -119 -44t-54 -105z" />
    <glyph glyph-name="f" unicode="f" horiz-adv-x="313" 
d="M186 0h-74v435h-81v69h81v42q0 97 49 137q34 29 103 29q24 0 39 -4v-70q-22 5 -47 5q-37 0 -53.5 -20t-16.5 -67v-52h95v-69h-95v-435z" />
    <glyph glyph-name="g" unicode="g" horiz-adv-x="600" 
d="M54 -143l38 59q92 -67 200 -67q79 0 125 37q52 43 52 156v42q-51 -90 -179 -90q-107 0 -181 74q-74 76 -74 188t74 188q73 75 181 75q128 0 179 -90v75h74v-420q0 -98 -15 -154q-13 -56 -65 -97q-68 -53 -170 -53q-132 0 -239 77zM290 63q82 0 134 55q54 56 54 138
t-54 138q-53 56 -134 56q-77 0 -130 -56q-51 -56 -51 -138t51 -138q52 -55 130 -55z" />
    <glyph glyph-name="h" unicode="h" horiz-adv-x="547" 
d="M131 0h-74v697h74v-278q21 43 61 68t94 25q83 0 132 -51.5t49 -138.5v-208q0 -30 7 -41.5t28 -11.5q3 0 19 2v-61q-15 -5 -32 -5q-96 0 -96 112v197q0 63 -33.5 100t-91.5 37q-60 0 -98.5 -39.5t-38.5 -102.5v-301z" />
    <glyph glyph-name="i" unicode="i" horiz-adv-x="212" 
d="M58 95v409h74v-396q0 -28 8.5 -40.5t29.5 -12.5q8 0 26 2v-61q-19 -8 -47 -8q-91 0 -91 107zM130 602q-15 -14 -35 -14t-35 14q-15 15 -15 36t15 35q15 15 35 15t35 -15q15 -14 15 -35t-15 -36z" />
    <glyph glyph-name="j" unicode="j" horiz-adv-x="188" 
d="M129 600q-15 -14 -35 -14t-35 14q-15 15 -15 36t15 35q15 15 35 15t35 -15q15 -14 15 -35t-15 -36zM57 -52v556h74v-556q0 -156 -152 -156q-11 0 -27 2v70q16 -3 35 -3q37 0 53.5 20t16.5 67z" />
    <glyph glyph-name="k" unicode="k" horiz-adv-x="466" 
d="M131 0h-74v697h74v-442l216 249h85l-191 -221l218 -283h-88l-177 230l-63 -73v-157z" />
    <glyph glyph-name="l" unicode="l" horiz-adv-x="260" 
d="M58 127v570h74v-565q0 -42 14 -60t49 -18q22 0 36 2v-63q-14 -8 -46 -8q-44 0 -82 22q-45 27 -45 120z" />
    <glyph glyph-name="m" unicode="m" horiz-adv-x="822" 
d="M131 0h-74v504h74v-85q18 43 55 68t87 25q108 0 148 -100q45 100 157 100q75 0 119.5 -51.5t44.5 -138.5v-208q0 -30 7 -41.5t28 -11.5q3 0 19 2v-61q-13 -5 -32 -5q-96 0 -96 112v197q0 63 -29.5 100t-80.5 37q-52 0 -86 -39.5t-34 -102.5v-301h-74v306
q0 64 -29.5 100.5t-82.5 36.5q-52 0 -86.5 -40t-34.5 -102v-301z" />
    <glyph glyph-name="n" unicode="n" horiz-adv-x="554" 
d="M131 0h-74v504h74v-85q21 43 62.5 68t96.5 25q84 0 134 -51.5t50 -138.5v-208q0 -31 7 -42t28 -11q3 0 19 2v-61q-13 -5 -32 -5q-96 0 -96 112v197q0 63 -34.5 100t-94.5 37q-62 0 -101 -39.5t-39 -102.5v-301z" />
    <glyph glyph-name="o" unicode="o" horiz-adv-x="606" 
d="M113 61q-78 76 -78 191q0 114 78 190q79 77 190 77t190 -77q78 -76 78 -190q0 -115 -78 -191q-77 -76 -190 -76t-190 76zM164 393q-55 -55 -55 -141t55 -142q56 -56 139 -56t139 56q55 56 55 142t-55 141q-56 57 -139 57t-139 -57z" />
    <glyph glyph-name="p" unicode="p" horiz-adv-x="600" 
d="M131 -193h-74v697h74v-75q51 90 179 90q107 0 181 -77t74 -190q0 -114 -74 -191q-73 -76 -181 -76q-128 0 -179 90v-268zM310 54q78 0 129 56q52 56 52 142t-52 141q-51 57 -129 57q-81 0 -135 -57q-53 -56 -53 -141q0 -84 53 -142q54 -56 135 -56z" />
    <glyph glyph-name="q" unicode="q" horiz-adv-x="600" 
d="M290 519q128 0 179 -90v75h74v-697h-74v268q-51 -90 -179 -90q-108 0 -181 76q-74 77 -74 191q0 113 74 190t181 77zM290 54q81 0 134 56q54 57 54 142q0 86 -54 141q-52 57 -134 57q-78 0 -130 -57q-51 -55 -51 -141q0 -85 51 -142q53 -56 130 -56z" />
    <glyph glyph-name="r" unicode="r" horiz-adv-x="361" 
d="M131 0h-74v504h74v-85q21 43 61 68t94 25q13 0 31 -2v-80q-22 5 -50 5q-60 0 -98 -39.5t-38 -102.5v-293z" />
    <glyph glyph-name="s" unicode="s" horiz-adv-x="414" 
d="M18 109l63 24q10 -34 43.5 -55t83.5 -21q58 0 84.5 22t26.5 55q0 38 -28 57q-26 19 -98 48q-72 28 -104.5 61t-32.5 86q0 58 42.5 95.5t109.5 37.5q102 0 146 -87l-60 -31q-27 50 -85 50q-36 0 -57.5 -17.5t-21.5 -47.5q0 -29 25 -48.5t85 -42.5q80 -31 116.5 -68
t36.5 -93q0 -63 -49 -104.5t-136 -41.5q-73 0 -124 32t-66 89z" />
    <glyph glyph-name="t" unicode="t" horiz-adv-x="308" 
d="M89 141v294h-59v69h59v193h74v-193h117v-69h-117v-294q0 -47 16.5 -67t53.5 -20q27 0 47 3v-64q-18 -8 -56 -8q-135 0 -135 156z" />
    <glyph glyph-name="u" unicode="u" horiz-adv-x="547" 
d="M51 182v322h74v-306q0 -63 33.5 -100t91.5 -37q60 0 98.5 39.5t38.5 102.5v301h74v-387q0 -33 8.5 -48t29.5 -15q8 0 26 2v-56q-18 -8 -47 -8q-41 0 -62 23q-19 20 -23 50q-48 -73 -161 -73q-83 0 -132 51.5t-49 138.5z" />
    <glyph glyph-name="v" unicode="v" horiz-adv-x="512" 
d="M282 0h-51l-216 504h78l163 -384l163 384h79z" />
    <glyph glyph-name="w" unicode="w" horiz-adv-x="746" 
d="M246 0h-49l-182 504h76l130 -364l126 364h52l125 -364l130 364h77l-182 -504h-49l-127 367z" />
    <glyph glyph-name="x" unicode="x" horiz-adv-x="513" 
d="M106 0h-81l192 268l-176 236h82l133 -179l133 179h82l-175 -235l192 -269h-81l-150 211z" />
    <glyph glyph-name="y" unicode="y" horiz-adv-x="504" 
d="M64 -200v68q22 -8 50 -8q26 0 43 11q22 16 40 61l22 57l-204 515h74l166 -425l160 425h74l-228 -590q-21 -56 -49 -85q-38 -38 -98 -38q-29 0 -50 9z" />
    <glyph glyph-name="z" unicode="z" horiz-adv-x="499" 
d="M458 0h-430v44l309 391h-276v69h381v-49l-307 -386h323v-69z" />
    <glyph glyph-name="braceleft" unicode="{" horiz-adv-x="318" 
d="M113 -65v190q0 65 -40 89q-19 12 -39 14h-6v48q24 2 45 14q40 24 40 89v190q0 56 34 92t86 36h45v-59h-37q-26 0 -40 -19.5t-14 -49.5v-179q0 -76 -34 -110q-15 -16 -40 -28q23 -10 40 -28q34 -34 34 -110v-179q0 -30 14 -49.5t40 -19.5h37v-59h-45q-52 0 -86 36t-34 92z
" />
    <glyph glyph-name="bar" unicode="|" horiz-adv-x="248" 
d="M161 -25h-74v747h74v-747z" />
    <glyph glyph-name="braceright" unicode="}" horiz-adv-x="318" 
d="M40 -193v59h37q26 0 40 19.5t14 49.5v179q0 76 34 110q15 16 40 28q-25 12 -40 28q-34 34 -34 110v179q0 30 -14 49.5t-40 19.5h-37v59h45q52 0 86 -36t34 -92v-190q0 -65 40 -89q19 -12 39 -14h6v-48q-24 -2 -45 -14q-40 -24 -40 -89v-190q0 -56 -34 -92t-86 -36h-45z
" />
    <glyph glyph-name="asciitilde" unicode="~" horiz-adv-x="418" 
d="M77 299l-49 4q5 41 32.5 66.5t67.5 25.5q34 0 85 -20q48 -19 72 -19q42 0 56 41l49 -4q-14 -98 -102 -98q-39 0 -87 19q-49 20 -71 20q-42 0 -53 -35z" />
    <glyph glyph-name="exclamdown" unicode="&#xa1;" horiz-adv-x="240" 
d="M155 425q-15 -14 -35 -14t-35 14q-15 15 -15 36t15 35q15 15 35 15t35 -15q15 -14 15 -35t-15 -36zM167 -201h-94l16 542h62z" />
    <glyph glyph-name="cent" unicode="&#xa2;" horiz-adv-x="533" 
d="M256 0h-68l22 102q-78 28 -125 95t-47 154q0 67 26.5 121.5t69.5 85.5q84 60 173 60h10l16 79h68l-19 -88q70 -17 117 -63l-45 -52q-35 35 -86 47l-80 -387q1 0 4 -0.5t8.5 -1t10.5 -0.5q84 0 142 56l46 -53q-76 -71 -194 -71q-13 0 -31 2zM224 170l79 379h-1
q-82 -1 -136 -58q-54 -55 -54 -140q0 -62 30 -109.5t82 -71.5z" />
    <glyph glyph-name="sterling" unicode="&#xa3;" horiz-adv-x="586" 
d="M542 0h-502v67h9q93 0 131.5 44.5t38.5 105.5q0 31 -25 80h-103v72h63q-48 83 -48 138q0 85 60 145t145 60t145 -60t60 -145h-77q0 55 -37 93q-37 40 -90 40q-54 0 -91 -39q-37 -38 -37 -94q0 -47 56 -138h153v-72h-115q19 -44 19 -80q0 -104 -59 -145h304v-72z" />
    <glyph glyph-name="currency" unicode="&#xa4;" horiz-adv-x="645" 
d="M104 54l-51 50l87 81q-52 62 -52 148q0 84 52 148l-87 82l51 50l79 -91q64 47 140 47t141 -47l79 91l51 -50l-88 -81q53 -65 53 -149q0 -83 -53 -148l88 -82l-51 -49l-80 89q-60 -45 -140 -45q-79 0 -141 47zM158 333q0 -71 48 -120q50 -50 117 -50t117 50q49 49 49 120
t-49 120q-50 51 -117 51t-117 -50q-48 -50 -48 -121z" />
    <glyph glyph-name="yen" unicode="&#xa5;" horiz-adv-x="614" 
d="M347 0h-78v211h-212v72h214l-53 88h-161v72h119l-152 254h86l199 -334l197 334h84l-150 -254h119v-72h-162l-52 -88h214v-72h-212v-211z" />
    <glyph glyph-name="brokenbar" unicode="&#xa6;" horiz-adv-x="248" 
d="M161 415h-74v282h74v-282zM161 0h-74v294h74v-294z" />
    <glyph glyph-name="section" unicode="&#xa7;" horiz-adv-x="517" 
d="M82 -23h78q0 -27 6 -49.5t29 -43t62 -20.5q41 0 68.5 24t27.5 65q0 44 -34 71q-29 24 -80 49q-106 54 -143 86q-65 59 -65 137q0 98 89 143q-43 43 -43 112q0 70 49 115q49 46 125 46q84 0 129 -53q46 -52 46 -132h-78q0 27 -6 49.5t-29 43t-62 20.5q-41 0 -68.5 -24
t-27.5 -65q0 -29 13 -49q12 -19 27 -29.5t56 -31.5q120 -62 161 -96q65 -59 65 -137q0 -98 -89 -143q43 -43 43 -112q0 -71 -50 -116q-49 -45 -124 -45q-81 0 -128 51t-47 134zM263 143q23 -11 49 -26q87 19 87 91q0 46 -34 76q-32 29 -120 77q-23 11 -49 26
q-87 -19 -87 -91q0 -46 34 -77q33 -29 120 -76z" />
    <glyph glyph-name="dieresis" unicode="&#xa8;" horiz-adv-x="606" 
d="M441 600q-15 -14 -35 -14t-35 14q-15 15 -15 36t15 35q15 15 35 15t35 -15q15 -14 15 -35t-15 -36zM235 600q-15 -14 -35 -14t-35 14q-15 15 -15 36t15 35q15 15 35 15t35 -15q15 -14 15 -35t-15 -36z" />
    <glyph glyph-name="copyright" unicode="&#xa9;" horiz-adv-x="812" 
d="M149 91q-107 107 -107 257q0 149 107 256t257 107t257 -107t107 -256q0 -150 -107 -257t-257 -107t-257 107zM180 575q-94 -94 -94 -227q0 -134 94 -228q95 -95 226 -95t226 95q94 94 94 228q0 133 -94 227q-95 95 -226 95t-226 -95zM412 554q87 0 152 -62l-46 -50
q-47 44 -106 44q-55 0 -93 -38q-37 -37 -37 -95t37 -95q38 -38 93 -38q61 0 106 45l46 -53q-61 -61 -152 -61q-86 0 -144 58q-59 59 -59 144q0 86 59 143q58 58 144 58z" />
    <glyph glyph-name="ordfeminine" unicode="&#xaa;" horiz-adv-x="447" 
d="M47 425q0 52 39.5 83t111.5 33q53 2 71.5 12t18.5 38q0 30 -21 43.5t-52 13.5q-59 0 -103 -53l-43 36q52 75 146 75q59 0 94 -31.5t35 -83.5v-197q0 -24 16 -24h21v-41q-14 -10 -37 -10q-22 0 -33 12q-9 9 -14 27q-37 -43 -119 -43q-58 0 -94.5 30t-36.5 80zM104 427
q0 -26 21 -41t58 -15q50 0 77.5 20.5t27.5 56.5v59q-20 -17 -90 -19q-94 -3 -94 -61z" />
    <glyph glyph-name="guillemotleft" unicode="&#xab;" horiz-adv-x="414" 
d="M379 78h-78l-110 175l110 175h78l-110 -175zM223 78h-78l-110 175l110 175h78l-110 -175z" />
    <glyph glyph-name="logicalnot" unicode="&#xac;" horiz-adv-x="568" 
d="M450 382h-408v69h484v-270h-76v201z" />
    <glyph glyph-name="registered" unicode="&#xae;" horiz-adv-x="394" 
d="M311 439q-47 -45 -115 -45t-115 45q-46 45 -46 114t46 114t115 45q68 0 115 -45q48 -45 48 -114t-48 -114zM326 553q0 57 -37 94t-93 37t-92.5 -36.5t-36.5 -94.5q0 -57 36.5 -93t92.5 -36q57 0 93.5 36t36.5 93zM171 465h-34v183h65q26 0 42.5 -16t16.5 -41
q0 -37 -30 -53l44 -73h-40l-40 67h-24v-67zM171 616v-56h30q11 0 18.5 8.5t7.5 20.5q0 11 -7.5 19t-18.5 8h-30z" />
    <glyph glyph-name="overscore" unicode="&#xaf;" horiz-adv-x="620" 
d="M457 628h-294v69h294v-69z" />
    <glyph glyph-name="degree" unicode="&#xb0;" horiz-adv-x="360" 
d="M273 474q-38 -38 -93 -38q-54 0 -94 38q-38 40 -38 94q0 55 38 93q39 39 94 39q56 0 93 -39q39 -37 39 -93q0 -55 -39 -94zM137 521q18 -19 43 -19t43 19q18 20 18 47t-18 46q-18 20 -43 20t-43 -20q-18 -19 -18 -46t18 -47z" />
    <glyph glyph-name="plusminus" unicode="&#xb1;" horiz-adv-x="384" 
d="M230 190h-76v123h-112v69h112v124h76v-124h112v-69h-112v-123zM342 0h-300v69h300v-69z" />
    <glyph glyph-name="twosuperior" unicode="&#xb2;" horiz-adv-x="325" 
d="M287 328h-243v40l153 177q24 29 24 52q0 22 -16 38t-38 16t-38 -18.5t-16 -44.5h-56q0 49 32 83t78 34t78.5 -31.5t32.5 -76.5q0 -46 -34 -86l-116 -129h159v-54z" />
    <glyph glyph-name="threesuperior" unicode="&#xb3;" horiz-adv-x="346" 
d="M164 320q-48 0 -85.5 24.5t-52.5 66.5l50 19q21 -55 88 -55q37 0 60.5 20.5t23.5 52.5q0 33 -24.5 54.5t-63.5 21.5q-34 0 -52 -8l-20 26l106 102h-133v53h224v-33l-101 -93q20 0 40 -6q35 -13 57 -45t22 -72q0 -56 -39.5 -92t-99.5 -36z" />
    <glyph glyph-name="acute" unicode="&#xb4;" horiz-adv-x="538" 
d="M290 552h-59l53 145h99z" />
    <glyph glyph-name="paragraph" unicode="&#xb6;" horiz-adv-x="539" 
d="M310 0h-78v267q-86 5 -145 67t-59 148q0 89 63 152t152 63h285v-72h-66v-625h-78v625h-74v-625z" />
    <glyph glyph-name="middot" unicode="&#xb7;" horiz-adv-x="188" 
d="M129 216q-15 -14 -35 -14t-35 14q-15 15 -15 36t15 35q15 15 35 15t35 -15q15 -14 15 -35t-15 -36z" />
    <glyph glyph-name="cedilla" unicode="&#xb8;" horiz-adv-x="529" 
d="M220 -76l32 76h56l-21 -46q28 0 47 -19.5t19 -51.5q0 -81 -103 -81q-45 0 -74 23l19 39q29 -17 54 -17q19 0 31.5 10t12.5 26q0 23 -17 32t-56 9z" />
    <glyph glyph-name="onesuperior" unicode="&#xb9;" horiz-adv-x="222" 
d="M145 328h-57v316h-48v53h105v-369z" />
    <glyph glyph-name="ordmasculine" unicode="&#xba;" horiz-adv-x="456" 
d="M366 374q-58 -56 -138 -56t-138 56q-57 57 -57 138q0 82 57 137q57 57 138 57t138 -57q57 -55 57 -137q0 -81 -57 -138zM136 418q38 -39 92 -39t91 39q38 41 38 94t-38 93q-37 40 -91 40q-55 0 -92 -40q-37 -38 -37 -93q0 -54 37 -94z" />
    <glyph glyph-name="guillemotright" unicode="&#xbb;" horiz-adv-x="414" 
d="M269 78h-78l110 175l-110 175h78l110 -175zM113 78h-78l110 175l-110 175h78l110 -175z" />
    <glyph glyph-name="onequarter" unicode="&#xbc;" horiz-adv-x="672" 
d="M152 0h-74l390 697h74zM165 328h-57v316h-48v53h105v-369zM547 73h-204v39l128 257h59l-121 -242h138v74h57v-201h-57v73z" />
    <glyph glyph-name="onehalf" unicode="&#xbd;" horiz-adv-x="704" 
d="M152 0h-74l390 697h74zM165 328h-57v316h-48v53h105v-369zM646 0h-243v40l153 177q24 29 24 52q0 22 -16 38t-38 16t-38 -18.5t-16 -44.5h-56q0 49 32 83t78 34t78.5 -31.5t32.5 -76.5q0 -46 -34 -86l-116 -129h159v-54z" />
    <glyph glyph-name="threequarters" unicode="&#xbe;" horiz-adv-x="770" 
d="M250 0h-74l390 697h74zM174 320q-48 0 -85.5 24.5t-52.5 66.5l50 19q21 -55 88 -55q37 0 60.5 20.5t23.5 52.5q0 33 -24.5 54.5t-63.5 21.5q-34 0 -52 -8l-20 26l106 102h-133v53h224v-33l-101 -93q20 0 40 -6q35 -13 57 -45t22 -72q0 -56 -39.5 -92t-99.5 -36zM645 73
h-204v39l128 257h59l-121 -242h138v74h57v-201h-57v73z" />
    <glyph glyph-name="questiondown" unicode="&#xbf;" horiz-adv-x="396" 
d="M239 425q-15 -14 -35 -14t-35 14q-15 15 -15 36t15 35q15 15 35 15t35 -15q15 -14 15 -35t-15 -36zM35 -72q0 76 37 115q22 25 39 39l62 48q64 46 64 87q0 51 -56 51q-39 0 -71 -18v77q29 13 71 13q61 0 97.5 -33.5t36.5 -89.5q0 -73 -89 -138l-50 -36q-14 -11 -33 -30
q-30 -31 -30 -82q0 -5 1 -11t6 -18.5t13.5 -21.5t27.5 -16.5t44 -7.5q74 0 142 65v-88q-61 -49 -142 -49q-95 0 -136 54q-34 44 -34 90z" />
    <glyph glyph-name="Agrave" unicode="&#xc0;" horiz-adv-x="720" 
d="M119 0h-84l295 697h60l295 -697h-84l-72 172h-338zM360 576l-139 -332h278zM396 745h-59l-93 145h99z" />
    <glyph glyph-name="Aacute" unicode="&#xc1;" horiz-adv-x="720" 
d="M119 0h-84l295 697h60l295 -697h-84l-72 172h-338zM360 576l-139 -332h278zM380 745h-59l53 145h99z" />
    <glyph glyph-name="Acircumflex" unicode="&#xc2;" horiz-adv-x="720" 
d="M294 769h-91l126 121h62l126 -121h-91l-66 66zM119 0h-84l295 697h60l295 -697h-84l-72 172h-338zM360 576l-139 -332h278z" />
    <glyph glyph-name="Atilde" unicode="&#xc3;" horiz-adv-x="720" 
d="M119 0h-84l295 697h60l295 -697h-84l-72 172h-338zM360 576l-139 -332h278zM262 758l-49 4q5 41 29.5 66.5t60.5 25.5q26 0 63 -20q37 -19 54 -19q35 0 46 41l49 -4q-11 -98 -92 -98q-28 0 -65 19q-37 20 -53 20q-35 0 -43 -35z" />
    <glyph glyph-name="Adieresis" unicode="&#xc4;" horiz-adv-x="720" 
d="M498 758q-15 -14 -35 -14t-35 14q-15 15 -15 36t15 35q15 15 35 15t35 -15q15 -14 15 -35t-15 -36zM292 758q-15 -14 -35 -14t-35 14q-15 15 -15 36t15 35q15 15 35 15t35 -15q15 -14 15 -35t-15 -36zM119 0h-84l295 697h60l295 -697h-84l-72 172h-338zM360 576
l-139 -332h278z" />
    <glyph glyph-name="Aring" unicode="&#xc5;" horiz-adv-x="701" 
d="M117 0h-82l290 665q-31 8 -51.5 34.5t-20.5 59.5q0 40 29 68.5t69 28.5t68.5 -28.5t28.5 -68.5q0 -34 -20.5 -60.5t-52.5 -34.5l291 -664h-85l-75 172h-314zM318 726q14 -14 33 -14t32 14q14 14 14 33t-14 32q-13 14 -32 14t-33 -14q-14 -13 -14 -32t14 -33zM349 540
l-126 -296h252z" />
    <glyph glyph-name="AE" unicode="&#xc6;" horiz-adv-x="890" 
d="M82 0h-98l534 697h310v-72h-252v-221h233v-72h-233v-260h259v-72h-337v172h-284zM498 549l-229 -305h229v305z" />
    <glyph glyph-name="Ccedilla" unicode="&#xc7;" horiz-adv-x="711" 
d="M47 348q0 154 105 258q107 104 258 104q161 0 266 -118l-53 -48q-81 94 -213 94q-123 0 -204 -83t-81 -207q0 -126 81 -208t204 -82q135 0 216 98l53 -48q-105 -122 -269 -122q-20 0 -26 1l-15 -33q28 0 47 -19.5t19 -51.5q0 -81 -103 -81q-45 0 -74 23l19 39
q29 -17 54 -17q19 0 31.5 10t12.5 26q0 23 -17 32t-56 9l29 70q-125 26 -204 123q-80 98 -80 231z" />
    <glyph glyph-name="Egrave" unicode="&#xc8;" horiz-adv-x="549" 
d="M493 0h-401v697h394v-72h-316v-221h297v-72h-297v-260h323v-72zM336 745h-59l-93 145h99z" />
    <glyph glyph-name="Eacute" unicode="&#xc9;" horiz-adv-x="549" 
d="M493 0h-401v697h394v-72h-316v-221h297v-72h-297v-260h323v-72zM308 745h-59l53 145h99z" />
    <glyph glyph-name="Ecircumflex" unicode="&#xca;" horiz-adv-x="549" 
d="M224 769h-91l126 121h62l126 -121h-91l-66 66zM493 0h-401v697h394v-72h-316v-221h297v-72h-297v-260h323v-72z" />
    <glyph glyph-name="Edieresis" unicode="&#xcb;" horiz-adv-x="549" 
d="M428 777q-15 -14 -35 -14t-35 14q-15 15 -15 36t15 35q15 15 35 15t35 -15q15 -14 15 -35t-15 -36zM222 777q-15 -14 -35 -14t-35 14q-15 15 -15 36t15 35q15 15 35 15t35 -15q15 -14 15 -35t-15 -36zM493 0h-401v697h394v-72h-316v-221h297v-72h-297v-260h323v-72z" />
    <glyph glyph-name="Igrave" unicode="&#xcc;" horiz-adv-x="270" 
d="M174 0h-78v697h78v-697zM165 745h-59l-93 145h99z" />
    <glyph glyph-name="Iacute" unicode="&#xcd;" horiz-adv-x="270" 
d="M174 0h-78v697h78v-697zM163 745h-59l53 145h99z" />
    <glyph glyph-name="Icircumflex" unicode="&#xce;" horiz-adv-x="270" 
d="M69 769h-91l126 121h62l126 -121h-91l-66 66zM174 0h-78v697h78v-697z" />
    <glyph glyph-name="Idieresis" unicode="&#xcf;" horiz-adv-x="270" 
d="M263 777q-15 -14 -35 -14t-35 14q-15 15 -15 36t15 35q15 15 35 15t35 -15q15 -14 15 -35t-15 -36zM77 777q-15 -14 -35 -14t-35 14q-15 15 -15 36t15 35q15 15 35 15t35 -15q15 -14 15 -35t-15 -36zM174 0h-78v697h78v-697z" />
    <glyph glyph-name="Eth" unicode="&#xd0;" horiz-adv-x="722" 
d="M317 0h-225v322h-65v72h65v303h224q167 0 263 -96q97 -96 97 -253t-96 -253q-97 -95 -263 -95zM170 322v-250h141q139 0 213 74t74 202q0 129 -74.5 203t-213.5 74h-140v-231h145v-72h-145z" />
    <glyph glyph-name="Ntilde" unicode="&#xd1;" horiz-adv-x="751" 
d="M170 0h-78v697h68l421 -558v558h78v-697h-63l-426 564v-564zM273 758l-49 4q5 41 29.5 66.5t60.5 25.5q26 0 63 -20q37 -19 54 -19q35 0 46 41l49 -4q-11 -98 -92 -98q-28 0 -65 19q-37 20 -53 20q-35 0 -43 -35z" />
    <glyph glyph-name="Ograve" unicode="&#xd2;" horiz-adv-x="820" 
d="M152 89q-105 103 -105 259q0 154 105 258q107 104 258 104t257 -104q106 -103 106 -258q0 -156 -106 -259q-104 -103 -257 -103q-152 0 -258 103zM205 555q-81 -83 -81 -207q0 -126 81 -208q82 -82 205 -82t204 82t81 208q0 124 -81 207t-204 83q-122 0 -205 -83z
M444 745h-59l-93 145h99z" />
    <glyph glyph-name="Oacute" unicode="&#xd3;" horiz-adv-x="820" 
d="M152 89q-105 103 -105 259q0 154 105 258q107 104 258 104t257 -104q106 -103 106 -258q0 -156 -106 -259q-104 -103 -257 -103q-152 0 -258 103zM205 555q-81 -83 -81 -207q0 -126 81 -208q82 -82 205 -82t204 82t81 208q0 124 -81 207t-204 83q-122 0 -205 -83z
M425 745h-59l53 145h99z" />
    <glyph glyph-name="Ocircumflex" unicode="&#xd4;" horiz-adv-x="820" 
d="M344 769h-91l126 121h62l126 -121h-91l-66 66zM152 89q-105 103 -105 259q0 154 105 258q107 104 258 104t257 -104q106 -103 106 -258q0 -156 -106 -259q-104 -103 -257 -103q-152 0 -258 103zM205 555q-81 -83 -81 -207q0 -126 81 -208q82 -82 205 -82t204 82t81 208
q0 124 -81 207t-204 83q-122 0 -205 -83z" />
    <glyph glyph-name="Otilde" unicode="&#xd5;" horiz-adv-x="820" 
d="M308 758l-49 4q5 41 29.5 66.5t60.5 25.5q26 0 63 -20q37 -19 54 -19q35 0 46 41l49 -4q-11 -98 -92 -98q-28 0 -65 19q-37 20 -53 20q-35 0 -43 -35zM152 89q-105 103 -105 259q0 154 105 258q107 104 258 104t257 -104q106 -103 106 -258q0 -156 -106 -259
q-104 -103 -257 -103q-152 0 -258 103zM205 555q-81 -83 -81 -207q0 -126 81 -208q82 -82 205 -82t204 82t81 208q0 124 -81 207t-204 83q-122 0 -205 -83z" />
    <glyph glyph-name="Odieresis" unicode="&#xd6;" horiz-adv-x="820" 
d="M548 758q-15 -14 -35 -14t-35 14q-15 15 -15 36t15 35q15 15 35 15t35 -15q15 -14 15 -35t-15 -36zM342 758q-15 -14 -35 -14t-35 14q-15 15 -15 36t15 35q15 15 35 15t35 -15q15 -14 15 -35t-15 -36zM152 89q-105 103 -105 259q0 154 105 258q107 104 258 104t257 -104
q106 -103 106 -258q0 -156 -106 -259q-104 -103 -257 -103q-152 0 -258 103zM205 555q-81 -83 -81 -207q0 -126 81 -208q82 -82 205 -82t204 82t81 208q0 124 -81 207t-204 83q-122 0 -205 -83z" />
    <glyph glyph-name="multiply" unicode="&#xd7;" horiz-adv-x="384" 
d="M192 287l-109 -109l-45 47l108 108l-108 108l45 46l109 -109l108 109l46 -46l-108 -108l108 -108l-46 -47z" />
    <glyph glyph-name="Oslash" unicode="&#xd8;" horiz-adv-x="820" 
d="M171 -42l-57 42l55 74q-122 107 -122 274q0 154 105 258q107 104 258 104q106 0 194 -54l58 78l57 -43l-58 -78q112 -106 112 -265q0 -156 -106 -259q-104 -103 -257 -103q-97 0 -183 47zM213 133l348 464q-68 41 -151 41q-122 0 -205 -83q-81 -83 -81 -207
q0 -132 89 -215zM616 553l-345 -461q62 -34 139 -34q123 0 204 82t81 208q0 123 -79 205z" />
    <glyph glyph-name="Ugrave" unicode="&#xd9;" horiz-adv-x="696" 
d="M87 244v453h78v-445q0 -93 48.5 -142.5t134.5 -49.5t134.5 49.5t48.5 142.5v445h78v-453q0 -122 -72 -190q-72 -66 -189 -66t-189 66q-72 68 -72 190zM384 745h-59l-93 145h99z" />
    <glyph glyph-name="Uacute" unicode="&#xda;" horiz-adv-x="696" 
d="M87 244v453h78v-445q0 -93 48.5 -142.5t134.5 -49.5t134.5 49.5t48.5 142.5v445h78v-453q0 -122 -72 -190q-72 -66 -189 -66t-189 66q-72 68 -72 190zM374 745h-59l53 145h99z" />
    <glyph glyph-name="Ucircumflex" unicode="&#xdb;" horiz-adv-x="696" 
d="M282 769h-91l126 121h62l126 -121h-91l-66 66zM87 244v453h78v-445q0 -93 48.5 -142.5t134.5 -49.5t134.5 49.5t48.5 142.5v445h78v-453q0 -122 -72 -190q-72 -66 -189 -66t-189 66q-72 68 -72 190z" />
    <glyph glyph-name="Udieresis" unicode="&#xdc;" horiz-adv-x="696" 
d="M486 758q-15 -14 -35 -14t-35 14q-15 15 -15 36t15 35q15 15 35 15t35 -15q15 -14 15 -35t-15 -36zM280 758q-15 -14 -35 -14t-35 14q-15 15 -15 36t15 35q15 15 35 15t35 -15q15 -14 15 -35t-15 -36zM87 244v453h78v-445q0 -93 48.5 -142.5t134.5 -49.5t134.5 49.5
t48.5 142.5v445h78v-453q0 -122 -72 -190q-72 -66 -189 -66t-189 66q-72 68 -72 190z" />
    <glyph glyph-name="Yacute" unicode="&#xdd;" horiz-adv-x="622" 
d="M351 0h-78v286l-245 411h86l199 -334l197 334h84l-243 -411v-286zM338 745h-59l53 145h99z" />
    <glyph glyph-name="Thorn" unicode="&#xde;" horiz-adv-x="490" 
d="M170 0h-78v697h78v-149h65q100 0 157 -56.5t57 -148.5q0 -89 -55 -143.5t-152 -54.5h-72v-145zM170 475v-257h65q65 0 100.5 33.5t35.5 94.5t-35.5 95t-101.5 34h-64z" />
    <glyph glyph-name="germandbls" unicode="&#xdf;" horiz-adv-x="550" 
d="M134 0h-78v540q0 73 49 122q50 50 123 50q71 0 121 -50t50 -121q0 -65 -45 -110q63 -12 115 -68q51 -55 51 -145q0 -98 -69 -166q-67 -67 -173 -67q-19 0 -51 5v76q24 -9 51 -9q67 0 116 47q48 46 48 114q0 66 -48 112q-49 47 -116 47q-27 0 -51 -9v70q94 18 94 102
q0 41 -27.5 70.5t-65.5 29.5q-40 0 -67 -29t-27 -71v-540z" />
    <glyph glyph-name="agrave" unicode="&#xe0;" horiz-adv-x="629" 
d="M290 519q128 0 179 -90v75h74v-391q0 -33 8.5 -48t29.5 -15q8 0 26 2v-56q-19 -8 -47 -8q-33 0 -53 14q-30 23 -34 72q-57 -89 -183 -89q-108 0 -181 76q-74 77 -74 191q0 113 74 190t181 77zM290 54q81 0 134 56q54 57 54 142q0 86 -54 141q-52 57 -134 57
q-78 0 -130 -57q-51 -55 -51 -141q0 -85 51 -142q53 -56 130 -56zM325 552h-59l-93 145h99z" />
    <glyph glyph-name="aacute" unicode="&#xe1;" horiz-adv-x="629" 
d="M290 519q128 0 179 -90v75h74v-391q0 -33 8.5 -48t29.5 -15q8 0 26 2v-56q-19 -8 -47 -8q-33 0 -53 14q-30 23 -34 72q-57 -89 -183 -89q-108 0 -181 76q-74 77 -74 191q0 113 74 190t181 77zM290 54q81 0 134 56q54 57 54 142q0 86 -54 141q-52 57 -134 57
q-78 0 -130 -57q-51 -55 -51 -141q0 -85 51 -142q53 -56 130 -56zM320 552h-59l53 145h99z" />
    <glyph glyph-name="acircumflex" unicode="&#xe2;" horiz-adv-x="629" 
d="M241 576h-91l126 121h62l126 -121h-91l-66 66zM290 519q128 0 179 -90v75h74v-391q0 -33 8.5 -48t29.5 -15q8 0 26 2v-56q-19 -8 -47 -8q-33 0 -53 14q-30 23 -34 72q-57 -89 -183 -89q-108 0 -181 76q-74 77 -74 191q0 113 74 190t181 77zM290 54q81 0 134 56
q54 57 54 142q0 86 -54 141q-52 57 -134 57q-78 0 -130 -57q-51 -55 -51 -141q0 -85 51 -142q53 -56 130 -56z" />
    <glyph glyph-name="atilde" unicode="&#xe3;" horiz-adv-x="629" 
d="M290 519q128 0 179 -90v75h74v-391q0 -33 8.5 -48t29.5 -15q8 0 26 2v-56q-19 -8 -47 -8q-33 0 -53 14q-30 23 -34 72q-57 -89 -183 -89q-108 0 -181 76q-74 77 -74 191q0 113 74 190t181 77zM290 54q81 0 134 56q54 57 54 142q0 86 -54 141q-52 57 -134 57
q-78 0 -130 -57q-51 -55 -51 -141q0 -85 51 -142q53 -56 130 -56zM202 594l-49 4q5 41 29.5 66.5t60.5 25.5q26 0 63 -20q37 -19 54 -19q35 0 46 41l49 -4q-11 -98 -92 -98q-28 0 -65 19q-37 20 -53 20q-35 0 -43 -35z" />
    <glyph glyph-name="adieresis" unicode="&#xe4;" horiz-adv-x="629" 
d="M440 600q-15 -14 -35 -14t-35 14q-15 15 -15 36t15 35q15 15 35 15t35 -15q15 -14 15 -35t-15 -36zM234 600q-15 -14 -35 -14t-35 14q-15 15 -15 36t15 35q15 15 35 15t35 -15q15 -14 15 -35t-15 -36zM290 519q128 0 179 -90v75h74v-391q0 -33 8.5 -48t29.5 -15q8 0 26 2
v-56q-19 -8 -47 -8q-33 0 -53 14q-30 23 -34 72q-57 -89 -183 -89q-108 0 -181 76q-74 77 -74 191q0 113 74 190t181 77zM290 54q81 0 134 56q54 57 54 142q0 86 -54 141q-52 57 -134 57q-78 0 -130 -57q-51 -55 -51 -141q0 -85 51 -142q53 -56 130 -56z" />
    <glyph glyph-name="aring" unicode="&#xe5;" horiz-adv-x="629" 
d="M305 556q-31 -2 -55.5 16.5t-35 44.5t-6 56t27.5 49q20 23 50 27.5t56 -6t44 -35t16 -54.5q0 -41 -28.5 -69.5t-68.5 -28.5zM272 621q14 -14 33 -14t32 14q14 14 14 33t-14 32q-13 14 -32 14t-33 -14q-14 -13 -14 -32t14 -33zM290 519q128 0 179 -90v75h74v-391
q0 -33 8.5 -48t29.5 -15q8 0 26 2v-56q-19 -8 -47 -8q-33 0 -53 14q-30 23 -34 72q-57 -89 -183 -89q-108 0 -181 76q-74 77 -74 191q0 113 74 190t181 77zM290 54q81 0 134 56q54 57 54 142q0 86 -54 141q-52 57 -134 57q-78 0 -130 -57q-51 -55 -51 -141q0 -85 51 -142
q53 -56 130 -56z" />
    <glyph glyph-name="ae" unicode="&#xe6;" horiz-adv-x="999" 
d="M290 519q128 0 179 -90v75h74v-90q25 45 77 75t108 30q99 0 168 -77t69 -190q0 -11 -1 -16h-409q3 -83 50 -132.5t125 -49.5q51 0 85 15.5t75 54.5l49 -48q-82 -91 -209 -91q-63 0 -111.5 25t-75.5 68v-78h-74v75q-51 -90 -179 -90q-108 0 -181 76q-74 77 -74 191
q0 113 74 190t181 77zM290 54q81 0 134 56q54 57 54 142q0 86 -54 141q-52 57 -134 57q-78 0 -130 -57q-51 -55 -51 -141q0 -85 51 -142q53 -56 130 -56zM560 301h326q-12 66 -55.5 107.5t-102.5 41.5q-63 0 -109 -41.5t-59 -107.5z" />
    <glyph glyph-name="ccedilla" unicode="&#xe7;" horiz-adv-x="517" 
d="M35 252q0 114 78 190q79 77 190 77q118 0 191 -76l-45 -52q-57 59 -146 59q-83 0 -139 -57q-55 -55 -55 -141t55 -142q56 -56 139 -56q89 0 146 59l45 -52q-73 -76 -191 -76h-9l-14 -31q28 0 47 -19.5t19 -51.5q0 -81 -103 -81q-45 0 -74 23l19 39q29 -17 54 -17
q19 0 31.5 10t12.5 26q0 23 -17 32t-56 9l28 68q-88 19 -148 91q-58 71 -58 169z" />
    <glyph glyph-name="egrave" unicode="&#xe8;" horiz-adv-x="551" 
d="M35 246v4q0 121 71 195t181 74q103 0 167 -73q65 -73 65 -178q0 -22 -1 -32h-409q3 -83 52 -132.5t128 -49.5q50 0 85 16.5t70 53.5l49 -48q-80 -89 -204 -89q-113 0 -184 71q-70 70 -70 188zM114 301h326q0 61 -45 105q-46 44 -108 44q-69 0 -119 -44t-54 -105zM331 552
h-59l-93 145h99z" />
    <glyph glyph-name="eacute" unicode="&#xe9;" horiz-adv-x="551" 
d="M35 246v4q0 121 71 195t181 74q103 0 167 -73q65 -73 65 -178q0 -22 -1 -32h-409q3 -83 52 -132.5t128 -49.5q50 0 85 16.5t70 53.5l49 -48q-80 -89 -204 -89q-113 0 -184 71q-70 70 -70 188zM114 301h326q0 61 -45 105q-46 44 -108 44q-69 0 -119 -44t-54 -105zM317 552
h-59l53 145h99z" />
    <glyph glyph-name="ecircumflex" unicode="&#xea;" horiz-adv-x="551" 
d="M223 576h-91l126 121h62l126 -121h-91l-66 66zM35 246v4q0 121 71 195t181 74q103 0 167 -73q65 -73 65 -178q0 -22 -1 -32h-409q3 -83 52 -132.5t128 -49.5q50 0 85 16.5t70 53.5l49 -48q-80 -89 -204 -89q-113 0 -184 71q-70 70 -70 188zM114 301h326q0 61 -45 105
q-46 44 -108 44q-69 0 -119 -44t-54 -105z" />
    <glyph glyph-name="edieresis" unicode="&#xeb;" horiz-adv-x="551" 
d="M426 600q-15 -14 -35 -14t-35 14q-15 15 -15 36t15 35q15 15 35 15t35 -15q15 -14 15 -35t-15 -36zM220 600q-15 -14 -35 -14t-35 14q-15 15 -15 36t15 35q15 15 35 15t35 -15q15 -14 15 -35t-15 -36zM35 246v4q0 121 71 195t181 74q103 0 167 -73q65 -73 65 -178
q0 -22 -1 -32h-409q3 -83 52 -132.5t128 -49.5q50 0 85 16.5t70 53.5l49 -48q-80 -89 -204 -89q-113 0 -184 71q-70 70 -70 188zM114 301h326q0 61 -45 105q-46 44 -108 44q-69 0 -119 -44t-54 -105z" />
    <glyph glyph-name="igrave" unicode="&#xec;" horiz-adv-x="212" 
d="M58 95v409h74v-396q0 -28 8.5 -40.5t29.5 -12.5q8 0 26 2v-61q-19 -8 -47 -8q-91 0 -91 107zM131 552h-59l-93 145h99z" />
    <glyph glyph-name="iacute" unicode="&#xed;" horiz-adv-x="212" 
d="M58 95v409h74v-396q0 -28 8.5 -40.5t29.5 -12.5q8 0 26 2v-61q-19 -8 -47 -8q-91 0 -91 107zM119 552h-59l53 145h99z" />
    <glyph glyph-name="icircumflex" unicode="&#xee;" horiz-adv-x="212" 
d="M49 576h-86l101 121h62l101 -121h-86l-46 72zM58 95v409h74v-396q0 -28 8.5 -40.5t29.5 -12.5q8 0 26 2v-61q-19 -8 -47 -8q-91 0 -91 107z" />
    <glyph glyph-name="idieresis" unicode="&#xef;" horiz-adv-x="212" 
d="M58 95v409h74v-396q0 -28 8.5 -40.5t29.5 -12.5q8 0 26 2v-61q-19 -8 -47 -8q-91 0 -91 107zM202 600q-15 -14 -35 -14t-35 14q-15 15 -15 36t15 35q15 15 35 15t35 -15q15 -14 15 -35t-15 -36zM58 600q-15 -14 -35 -14t-35 14q-15 15 -15 36t15 35q15 15 35 15t35 -15
q15 -14 15 -35t-15 -36z" />
    <glyph glyph-name="eth" unicode="&#xf0;" horiz-adv-x="536" 
d="M35 217q0 97 66 165q67 67 157 67q48 0 90.5 -19t65.5 -51q-15 48 -52 96t-79 81l-78 -74l-48 51l67 64q-62 36 -119 46l14 70q75 -13 160 -64l85 80l48 -51l-75 -71q127 -106 155 -262q9 -52 9 -101q0 -117 -62 -188t-171 -71q-98 0 -166 66q-67 66 -67 166zM157 331
q-44 -47 -44 -114t44 -114q43 -46 111 -46t111 46q44 47 44 114t-44 114q-43 46 -111 46t-111 -46z" />
    <glyph glyph-name="ntilde" unicode="&#xf1;" horiz-adv-x="554" 
d="M131 0h-74v504h74v-85q21 43 62.5 68t96.5 25q84 0 134 -51.5t50 -138.5v-208q0 -31 7 -42t28 -11q3 0 19 2v-61q-13 -5 -32 -5q-96 0 -96 112v197q0 63 -34.5 100t-94.5 37q-62 0 -101 -39.5t-39 -102.5v-301zM177 594l-49 4q5 41 29.5 66.5t60.5 25.5q26 0 63 -20
q37 -19 54 -19q35 0 46 41l49 -4q-11 -98 -92 -98q-28 0 -65 19q-37 20 -53 20q-35 0 -43 -35z" />
    <glyph glyph-name="ograve" unicode="&#xf2;" horiz-adv-x="606" 
d="M113 61q-78 76 -78 191q0 114 78 190q79 77 190 77t190 -77q78 -76 78 -190q0 -115 -78 -191q-77 -76 -190 -76t-190 76zM164 393q-55 -55 -55 -141t55 -142q56 -56 139 -56t139 56q55 56 55 142t-55 141q-56 57 -139 57t-139 -57zM331 552h-59l-93 145h99z" />
    <glyph glyph-name="oacute" unicode="&#xf3;" horiz-adv-x="606" 
d="M113 61q-78 76 -78 191q0 114 78 190q79 77 190 77t190 -77q78 -76 78 -190q0 -115 -78 -191q-77 -76 -190 -76t-190 76zM164 393q-55 -55 -55 -141t55 -142q56 -56 139 -56t139 56q55 56 55 142t-55 141q-56 57 -139 57t-139 -57zM334 552h-59l53 145h99z" />
    <glyph glyph-name="ocircumflex" unicode="&#xf4;" horiz-adv-x="606" 
d="M237 576h-91l126 121h62l126 -121h-91l-66 66zM113 61q-78 76 -78 191q0 114 78 190q79 77 190 77t190 -77q78 -76 78 -190q0 -115 -78 -191q-77 -76 -190 -76t-190 76zM164 393q-55 -55 -55 -141t55 -142q56 -56 139 -56t139 56q55 56 55 142t-55 141q-56 57 -139 57
t-139 -57z" />
    <glyph glyph-name="otilde" unicode="&#xf5;" horiz-adv-x="606" 
d="M200 594l-49 4q5 41 29.5 66.5t60.5 25.5q26 0 63 -20q37 -19 54 -19q35 0 46 41l49 -4q-11 -98 -92 -98q-28 0 -65 19q-37 20 -53 20q-35 0 -43 -35zM113 61q-78 76 -78 191q0 114 78 190q79 77 190 77t190 -77q78 -76 78 -190q0 -115 -78 -191q-77 -76 -190 -76
t-190 76zM164 393q-55 -55 -55 -141t55 -142q56 -56 139 -56t139 56q55 56 55 142t-55 141q-56 57 -139 57t-139 -57z" />
    <glyph glyph-name="odieresis" unicode="&#xf6;" horiz-adv-x="606" 
d="M441 600q-15 -14 -35 -14t-35 14q-15 15 -15 36t15 35q15 15 35 15t35 -15q15 -14 15 -35t-15 -36zM235 600q-15 -14 -35 -14t-35 14q-15 15 -15 36t15 35q15 15 35 15t35 -15q15 -14 15 -35t-15 -36zM113 61q-78 76 -78 191q0 114 78 190q79 77 190 77t190 -77
q78 -76 78 -190q0 -115 -78 -191q-77 -76 -190 -76t-190 76zM164 393q-55 -55 -55 -141t55 -142q56 -56 139 -56t139 56q55 56 55 142t-55 141q-56 57 -139 57t-139 -57z" />
    <glyph glyph-name="divide" unicode="&#xf7;" horiz-adv-x="426" 
d="M248 450q-15 -14 -35 -14t-35 14q-15 15 -15 36t15 35q15 15 35 15t35 -15q15 -14 15 -35t-15 -36zM384 313h-342v69h342v-69zM248 173q-15 -14 -35 -14t-35 14q-15 15 -15 36t15 35q15 15 35 15t35 -15q15 -14 15 -35t-15 -36z" />
    <glyph glyph-name="oslash" unicode="&#xf8;" horiz-adv-x="606" 
d="M132 -39l-53 40l40 54q-84 78 -84 197q0 114 78 190q79 77 190 77q71 0 132 -33l37 51l54 -39l-38 -50q83 -78 83 -196q0 -115 -78 -191q-77 -76 -190 -76q-68 0 -130 32zM162 113l231 316q-42 21 -90 21q-83 0 -139 -57q-55 -55 -55 -141q0 -83 53 -139zM446 389
l-231 -315q42 -20 88 -20q83 0 139 56q55 56 55 142q0 82 -51 137z" />
    <glyph glyph-name="ugrave" unicode="&#xf9;" horiz-adv-x="547" 
d="M51 182v322h74v-306q0 -63 33.5 -100t91.5 -37q60 0 98.5 39.5t38.5 102.5v301h74v-387q0 -33 8.5 -48t29.5 -15q8 0 26 2v-56q-18 -8 -47 -8q-41 0 -62 23q-19 20 -23 50q-48 -73 -161 -73q-83 0 -132 51.5t-49 138.5zM296 552h-59l-93 145h99z" />
    <glyph glyph-name="uacute" unicode="&#xfa;" horiz-adv-x="547" 
d="M51 182v322h74v-306q0 -63 33.5 -100t91.5 -37q60 0 98.5 39.5t38.5 102.5v301h74v-387q0 -33 8.5 -48t29.5 -15q8 0 26 2v-56q-18 -8 -47 -8q-41 0 -62 23q-19 20 -23 50q-48 -73 -161 -73q-83 0 -132 51.5t-49 138.5zM287 552h-59l53 145h99z" />
    <glyph glyph-name="ucircumflex" unicode="&#xfb;" horiz-adv-x="547" 
d="M197 576h-91l126 121h62l126 -121h-91l-66 66zM51 182v322h74v-306q0 -63 33.5 -100t91.5 -37q60 0 98.5 39.5t38.5 102.5v301h74v-387q0 -33 8.5 -48t29.5 -15q8 0 26 2v-56q-18 -8 -47 -8q-41 0 -62 23q-19 20 -23 50q-48 -73 -161 -73q-83 0 -132 51.5t-49 138.5z" />
    <glyph glyph-name="udieresis" unicode="&#xfc;" horiz-adv-x="547" 
d="M401 600q-15 -14 -35 -14t-35 14q-15 15 -15 36t15 35q15 15 35 15t35 -15q15 -14 15 -35t-15 -36zM195 600q-15 -14 -35 -14t-35 14q-15 15 -15 36t15 35q15 15 35 15t35 -15q15 -14 15 -35t-15 -36zM51 182v322h74v-306q0 -63 33.5 -100t91.5 -37q60 0 98.5 39.5
t38.5 102.5v301h74v-387q0 -33 8.5 -48t29.5 -15q8 0 26 2v-56q-18 -8 -47 -8q-41 0 -62 23q-19 20 -23 50q-48 -73 -161 -73q-83 0 -132 51.5t-49 138.5z" />
    <glyph glyph-name="yacute" unicode="&#xfd;" horiz-adv-x="502" 
d="M64 -200v68q22 -8 50 -8q26 0 43 11q22 16 40 61l22 57l-204 515h74l166 -425l160 425h74l-228 -590q-21 -56 -49 -85q-38 -38 -98 -38q-29 0 -50 9zM282 552h-59l53 145h99z" />
    <glyph glyph-name="thorn" unicode="&#xfe;" horiz-adv-x="600" 
d="M131 -193h-74v890h74v-268q51 90 179 90q107 0 181 -77t74 -190q0 -114 -74 -191q-73 -76 -181 -76q-128 0 -179 90v-268zM310 54q78 0 129 56q52 56 52 142t-52 141q-51 57 -129 57q-81 0 -135 -57q-53 -56 -53 -141q0 -84 53 -142q54 -56 135 -56z" />
    <glyph glyph-name="ydieresis" unicode="&#xff;" horiz-adv-x="502" 
d="M396 600q-15 -14 -35 -14t-35 14q-15 15 -15 36t15 35q15 15 35 15t35 -15q15 -14 15 -35t-15 -36zM190 600q-15 -14 -35 -14t-35 14q-15 15 -15 36t15 35q15 15 35 15t35 -15q15 -14 15 -35t-15 -36zM64 -200v68q22 -8 50 -8q26 0 43 11q22 16 40 61l22 57l-204 515h74
l166 -425l160 425h74l-228 -590q-21 -56 -49 -85q-38 -38 -98 -38q-29 0 -50 9z" />
    <glyph glyph-name="Amacron" unicode="&#x100;" horiz-adv-x="720" 
d="M119 0h-84l295 697h60l295 -697h-84l-72 172h-338zM360 576l-139 -332h278zM507 769h-294v69h294v-69z" />
    <glyph glyph-name="amacron" unicode="&#x101;" horiz-adv-x="629" 
d="M290 519q128 0 179 -90v75h74v-391q0 -33 8.5 -48t29.5 -15q8 0 26 2v-56q-19 -8 -47 -8q-33 0 -53 14q-30 23 -34 72q-57 -89 -183 -89q-108 0 -181 76q-74 77 -74 191q0 113 74 190t181 77zM290 54q81 0 134 56q54 57 54 142q0 86 -54 141q-52 57 -134 57
q-78 0 -130 -57q-51 -55 -51 -141q0 -85 51 -142q53 -56 130 -56zM454 601h-294v69h294v-69z" />
    <glyph glyph-name="Abreve" unicode="&#x102;" horiz-adv-x="720" 
d="M119 0h-84l295 697h60l295 -697h-84l-72 172h-338zM360 576l-139 -332h278zM204 890h69q22 -73 87 -73t87 73h69q-8 -62 -51.5 -100.5t-104.5 -38.5t-104.5 38.5t-51.5 100.5z" />
    <glyph glyph-name="abreve" unicode="&#x103;" horiz-adv-x="629" 
d="M290 519q128 0 179 -90v75h74v-391q0 -33 8.5 -48t29.5 -15q8 0 26 2v-56q-19 -8 -47 -8q-33 0 -53 14q-30 23 -34 72q-57 -89 -183 -89q-108 0 -181 76q-74 77 -74 191q0 113 74 190t181 77zM290 54q81 0 134 56q54 57 54 142q0 86 -54 141q-52 57 -134 57
q-78 0 -130 -57q-51 -55 -51 -141q0 -85 51 -142q53 -56 130 -56zM135 697h69q22 -73 87 -73t87 73h69q-8 -62 -51.5 -100.5t-104.5 -38.5t-104.5 38.5t-51.5 100.5z" />
    <glyph glyph-name="Aogonek" unicode="&#x104;" horiz-adv-x="720" 
d="M119 0h-84l295 697h60l295 -697q-31 -11 -56 -39q-26 -29 -26 -56q0 -21 14 -33t36 -12q31 0 58 15l-13 -59q-30 -14 -57 -14q-42 0 -71.5 25t-29.5 64q0 58 64 101l-1 2l-75 178h-337zM360 576l-139 -332h277z" />
    <glyph glyph-name="aogonek" unicode="&#x105;" horiz-adv-x="629" 
d="M290 519q128 0 179 -90v75h74v-391q0 -33 8.5 -48t29.5 -15q8 0 26 2v-56q-42 -16 -69 -40.5t-27 -50.5q0 -21 14 -33t36 -12q31 0 58 15l-13 -59q-30 -14 -57 -14q-42 0 -71.5 25t-29.5 64q0 34 21 61.5t55 40.5q-6 1 -17 9q-30 23 -34 72q-57 -89 -183 -89
q-108 0 -181 76q-74 77 -74 191q0 113 74 190t181 77zM290 54q81 0 134 56q54 57 54 142q0 86 -54 141q-52 57 -134 57q-78 0 -130 -57q-51 -55 -51 -141q0 -85 51 -142q53 -56 130 -56z" />
    <glyph glyph-name="Cacute" unicode="&#x106;" horiz-adv-x="711" 
d="M410 710q161 0 266 -118l-53 -48q-81 94 -213 94q-123 0 -204 -83t-81 -207q0 -126 81 -208t204 -82q135 0 216 98l53 -48q-105 -122 -269 -122q-152 0 -258 103q-105 103 -105 259q0 154 105 258q107 104 258 104zM435 745h-59l53 145h99z" />
    <glyph glyph-name="cacute" unicode="&#x107;" horiz-adv-x="517" 
d="M303 519q118 0 191 -76l-45 -52q-57 59 -146 59q-83 0 -139 -57q-55 -55 -55 -141t55 -142q56 -56 139 -56q89 0 146 59l45 -52q-73 -76 -191 -76q-113 0 -190 76q-78 76 -78 191q0 114 78 190q79 77 190 77zM329 552h-59l53 145h99z" />
    <glyph glyph-name="Ccircumflex" unicode="&#x108;" horiz-adv-x="711" 
d="M352 769h-91l126 121h62l126 -121h-91l-66 66zM410 710q161 0 266 -118l-53 -48q-81 94 -213 94q-123 0 -204 -83t-81 -207q0 -126 81 -208t204 -82q135 0 216 98l53 -48q-105 -122 -269 -122q-152 0 -258 103q-105 103 -105 259q0 154 105 258q107 104 258 104z" />
    <glyph glyph-name="ccircumflex" unicode="&#x109;" horiz-adv-x="517" 
d="M238 576h-91l126 121h62l126 -121h-91l-66 66zM303 519q118 0 191 -76l-45 -52q-57 59 -146 59q-83 0 -139 -57q-55 -55 -55 -141t55 -142q56 -56 139 -56q89 0 146 59l45 -52q-73 -76 -191 -76q-113 0 -190 76q-78 76 -78 191q0 114 78 190q79 77 190 77z" />
    <glyph glyph-name="Cdotaccent" unicode="&#x10a;" horiz-adv-x="711" 
d="M410 710q161 0 266 -118l-53 -48q-81 94 -213 94q-123 0 -204 -83t-81 -207q0 -126 81 -208t204 -82q135 0 216 98l53 -48q-105 -122 -269 -122q-152 0 -258 103q-105 103 -105 259q0 154 105 258q107 104 258 104zM440 777q-15 -14 -35 -14t-35 14q-15 15 -15 36t15 35
q15 15 35 15t35 -15q15 -14 15 -35t-15 -36z" />
    <glyph glyph-name="cdotaccent" unicode="&#x10b;" horiz-adv-x="517" 
d="M303 519q118 0 191 -76l-45 -52q-57 59 -146 59q-83 0 -139 -57q-55 -55 -55 -141t55 -142q56 -56 139 -56q89 0 146 59l45 -52q-73 -76 -191 -76q-113 0 -190 76q-78 76 -78 191q0 114 78 190q79 77 190 77zM335 590q-15 -14 -35 -14t-35 14q-15 15 -15 36t15 35
q15 15 35 15t35 -15q15 -14 15 -35t-15 -36z" />
    <glyph glyph-name="Ccaron" unicode="&#x10c;" horiz-adv-x="711" 
d="M442 769h-62l-126 121h91l66 -66l66 66h91zM410 710q161 0 266 -118l-53 -48q-81 94 -213 94q-123 0 -204 -83t-81 -207q0 -126 81 -208t204 -82q135 0 216 98l53 -48q-105 -122 -269 -122q-152 0 -258 103q-105 103 -105 259q0 154 105 258q107 104 258 104z" />
    <glyph glyph-name="ccaron" unicode="&#x10d;" horiz-adv-x="517" 
d="M331 576h-62l-126 121h91l66 -66l66 66h91zM303 519q118 0 191 -76l-45 -52q-57 59 -146 59q-83 0 -139 -57q-55 -55 -55 -141t55 -142q56 -56 139 -56q89 0 146 59l45 -52q-73 -76 -191 -76q-113 0 -190 76q-78 76 -78 191q0 114 78 190q79 77 190 77z" />
    <glyph glyph-name="Dcaron" unicode="&#x10e;" horiz-adv-x="726" 
d="M386 769h-62l-126 121h91l66 -66l66 66h91zM317 0h-225v697h224q167 0 263 -96q97 -96 97 -253t-96 -253q-97 -95 -263 -95zM170 625v-553h141q139 0 213 74t74 202q0 129 -74.5 203t-213.5 74h-140z" />
    <glyph glyph-name="dcaron" unicode="&#x10f;" horiz-adv-x="777" 
d="M290 519q128 0 179 -90v268h74v-584q0 -33 8.5 -48t29.5 -15q8 0 26 2v-56q-19 -8 -47 -8q-33 0 -53 14q-30 23 -34 72q-57 -89 -183 -89q-108 0 -181 76q-74 77 -74 191q0 113 74 190t181 77zM290 54q81 0 134 56q54 57 54 142q0 86 -54 141q-52 57 -134 57
q-78 0 -130 -57q-51 -55 -51 -141q0 -85 51 -142q53 -56 130 -56zM637 552h-59l53 145h99z" />
    <glyph glyph-name="Dcroat" unicode="&#x110;" horiz-adv-x="722" 
d="M317 0h-225v322h-65v72h65v303h224q167 0 263 -96q97 -96 97 -253t-96 -253q-97 -95 -263 -95zM170 322v-250h141q139 0 213 74t74 202q0 129 -74.5 203t-213.5 74h-140v-231h145v-72h-145z" />
    <glyph glyph-name="dslash" unicode="&#x111;" horiz-adv-x="629" 
d="M290 519q128 0 179 -90v146h-198v60h198v62h74v-62h57v-60h-57v-462q0 -33 8.5 -48t29.5 -15q8 0 26 2v-56q-19 -8 -47 -8q-33 0 -53 14q-30 23 -34 72q-57 -89 -183 -89q-108 0 -181 76q-74 77 -74 191q0 113 74 190t181 77zM290 54q81 0 134 56q54 57 54 142
q0 86 -54 141q-52 57 -134 57q-78 0 -130 -57q-51 -55 -51 -141q0 -85 51 -142q53 -56 130 -56z" />
    <glyph glyph-name="Emacron" unicode="&#x112;" horiz-adv-x="549" 
d="M493 0h-401v697h394v-72h-316v-221h297v-72h-297v-260h323v-72zM434 769h-294v69h294v-69z" />
    <glyph glyph-name="emacron" unicode="&#x113;" horiz-adv-x="551" 
d="M35 246v4q0 121 71 195t181 74q103 0 167 -73q65 -73 65 -178q0 -22 -1 -32h-409q3 -83 52 -132.5t128 -49.5q50 0 85 16.5t70 53.5l49 -48q-80 -89 -204 -89q-113 0 -184 71q-70 70 -70 188zM114 301h326q0 61 -45 105q-46 44 -108 44q-69 0 -119 -44t-54 -105zM436 601
h-294v69h294v-69z" />
    <glyph glyph-name="Ebreve" unicode="&#x114;" horiz-adv-x="549" 
d="M493 0h-401v697h394v-72h-316v-221h297v-72h-297v-260h323v-72zM136 890h69q22 -73 87 -73t87 73h69q-8 -62 -51.5 -100.5t-104.5 -38.5t-104.5 38.5t-51.5 100.5z" />
    <glyph glyph-name="ebreve" unicode="&#x115;" horiz-adv-x="551" 
d="M35 246v4q0 121 71 195t181 74q103 0 167 -73q65 -73 65 -178q0 -22 -1 -32h-409q3 -83 52 -132.5t128 -49.5q50 0 85 16.5t70 53.5l49 -48q-80 -89 -204 -89q-113 0 -184 71q-70 70 -70 188zM114 301h326q0 61 -45 105q-46 44 -108 44q-69 0 -119 -44t-54 -105zM132 697
h69q22 -73 87 -73t87 73h69q-8 -62 -51.5 -100.5t-104.5 -38.5t-104.5 38.5t-51.5 100.5z" />
    <glyph glyph-name="Edotaccent" unicode="&#x116;" horiz-adv-x="549" 
d="M493 0h-401v697h394v-72h-316v-221h297v-72h-297v-260h323v-72zM328 777q-15 -14 -35 -14t-35 14q-15 15 -15 36t15 35q15 15 35 15t35 -15q15 -14 15 -35t-15 -36z" />
    <glyph glyph-name="edotaccent" unicode="&#x117;" horiz-adv-x="551" 
d="M35 246v4q0 121 71 195t181 74q103 0 167 -73q65 -73 65 -178q0 -22 -1 -32h-409q3 -83 52 -132.5t128 -49.5q50 0 85 16.5t70 53.5l49 -48q-80 -89 -204 -89q-113 0 -184 71q-70 70 -70 188zM114 301h326q0 61 -45 105q-46 44 -108 44q-69 0 -119 -44t-54 -105zM323 600
q-15 -14 -35 -14t-35 14q-15 15 -15 36t15 35q15 15 35 15t35 -15q15 -14 15 -35t-15 -36z" />
    <glyph glyph-name="Eogonek" unicode="&#x118;" horiz-adv-x="549" 
d="M429 0h-337v697h394v-72h-316v-221h297v-72h-297v-260h323v-72q-76 -48 -76 -95q0 -21 14 -33t36 -12q31 0 58 15l-13 -59q-30 -14 -57 -14q-42 0 -71.5 25t-29.5 64q0 63 75 109z" />
    <glyph glyph-name="eogonek" unicode="&#x119;" horiz-adv-x="551" 
d="M35 246v4q0 121 71 195t181 74q103 0 167 -73q65 -73 65 -178q0 -22 -1 -32h-409q3 -83 52 -132.5t128 -49.5q50 0 85 16.5t70 53.5l49 -48q-25 -27 -79 -62q-1 0 -21 -13q-18 -11 -40 -28q-32 -30 -32 -64q0 -21 13.5 -33t34.5 -12q29 0 56 15l-13 -59q-30 -14 -55 -14
q-40 0 -69.5 25t-29.5 64q0 51 51 92h-1q-127 0 -200 67.5t-73 191.5zM114 301h326q0 61 -45 105q-46 44 -108 44q-69 0 -119 -44t-54 -105z" />
    <glyph glyph-name="Ecaron" unicode="&#x11a;" horiz-adv-x="549" 
d="M328 769h-62l-126 121h91l66 -66l66 66h91zM493 0h-401v697h394v-72h-316v-221h297v-72h-297v-260h323v-72z" />
    <glyph glyph-name="ecaron" unicode="&#x11b;" horiz-adv-x="551" 
d="M315 576h-62l-126 121h91l66 -66l66 66h91zM35 246v4q0 121 71 195t181 74q103 0 167 -73q65 -73 65 -178q0 -22 -1 -32h-409q3 -83 52 -132.5t128 -49.5q50 0 85 16.5t70 53.5l49 -48q-80 -89 -204 -89q-113 0 -184 71q-70 70 -70 188zM114 301h326q0 61 -45 105
q-46 44 -108 44q-69 0 -119 -44t-54 -105z" />
    <glyph glyph-name="Gcircumflex" unicode="&#x11c;" horiz-adv-x="740" 
d="M343 769h-91l126 121h62l126 -121h-91l-66 66zM410 710q143 0 241 -91l-49 -54q-79 73 -192 73q-123 0 -204 -83t-81 -207q0 -126 81 -208t204 -82q112 0 191 70v180h-213v72h291v-279q-106 -115 -269 -115q-152 0 -258 103q-105 103 -105 259q0 154 105 258
q107 104 258 104z" />
    <glyph glyph-name="gcircumflex" unicode="&#x11d;" horiz-adv-x="600" 
d="M234 576h-91l126 121h62l126 -121h-91l-66 66zM54 -143l38 59q92 -67 200 -67q79 0 125 37q52 43 52 156v42q-51 -90 -179 -90q-107 0 -181 74q-74 76 -74 188t74 188q73 75 181 75q128 0 179 -90v75h74v-420q0 -98 -15 -154q-13 -56 -65 -97q-68 -53 -170 -53
q-132 0 -239 77zM290 63q82 0 134 55q54 56 54 138t-54 138q-53 56 -134 56q-77 0 -130 -56q-51 -56 -51 -138t51 -138q52 -55 130 -55z" />
    <glyph glyph-name="Gbreve" unicode="&#x11e;" horiz-adv-x="740" 
d="M410 710q143 0 241 -91l-49 -54q-79 73 -192 73q-123 0 -204 -83t-81 -207q0 -126 81 -208t204 -82q112 0 191 70v180h-213v72h291v-279q-106 -115 -269 -115q-152 0 -258 103q-105 103 -105 259q0 154 105 258q107 104 258 104zM251 890h69q22 -73 87 -73t87 73h69
q-8 -62 -51.5 -100.5t-104.5 -38.5t-104.5 38.5t-51.5 100.5z" />
    <glyph glyph-name="gbreve" unicode="&#x11f;" horiz-adv-x="600" 
d="M54 -143l38 59q92 -67 200 -67q79 0 125 37q52 43 52 156v42q-51 -90 -179 -90q-107 0 -181 74q-74 76 -74 188t74 188q73 75 181 75q128 0 179 -90v75h74v-420q0 -98 -15 -154q-13 -56 -65 -97q-68 -53 -170 -53q-132 0 -239 77zM290 63q82 0 134 55q54 56 54 138
t-54 138q-53 56 -134 56q-77 0 -130 -56q-51 -56 -51 -138t51 -138q52 -55 130 -55zM137 697h69q22 -73 87 -73t87 73h69q-8 -62 -51.5 -100.5t-104.5 -38.5t-104.5 38.5t-51.5 100.5z" />
    <glyph glyph-name="Gdotaccent" unicode="&#x120;" horiz-adv-x="740" 
d="M410 710q143 0 241 -91l-49 -54q-79 73 -192 73q-123 0 -204 -83t-81 -207q0 -126 81 -208t204 -82q112 0 191 70v180h-213v72h291v-279q-106 -115 -269 -115q-152 0 -258 103q-105 103 -105 259q0 154 105 258q107 104 258 104zM446 777q-15 -14 -35 -14t-35 14
q-15 15 -15 36t15 35q15 15 35 15t35 -15q15 -14 15 -35t-15 -36z" />
    <glyph glyph-name="gdotaccent" unicode="&#x121;" horiz-adv-x="600" 
d="M54 -143l38 59q92 -67 200 -67q79 0 125 37q52 43 52 156v42q-51 -90 -179 -90q-107 0 -181 74q-74 76 -74 188t74 188q73 75 181 75q128 0 179 -90v75h74v-420q0 -98 -15 -154q-13 -56 -65 -97q-68 -53 -170 -53q-132 0 -239 77zM290 63q82 0 134 55q54 56 54 138
t-54 138q-53 56 -134 56q-77 0 -130 -56q-51 -56 -51 -138t51 -138q52 -55 130 -55zM335 600q-15 -14 -35 -14t-35 14q-15 15 -15 36t15 35q15 15 35 15t35 -15q15 -14 15 -35t-15 -36z" />
    <glyph glyph-name="Gcommaaccent" unicode="&#x122;" horiz-adv-x="740" 
d="M410 710q143 0 241 -91l-49 -54q-79 73 -192 73q-123 0 -204 -83t-81 -207q0 -126 81 -208t204 -82q112 0 191 70v180h-213v72h291v-279q-106 -115 -269 -115q-152 0 -258 103q-105 103 -105 259q0 154 105 258q107 104 258 104zM368 -193h-59l53 145h99z" />
    <glyph glyph-name="gcommaaccent" unicode="&#x123;" horiz-adv-x="600" 
d="M54 -143l38 59q92 -67 200 -67q79 0 125 37q52 43 52 156v42q-51 -90 -179 -90q-107 0 -181 74q-74 76 -74 188t74 188q73 75 181 75q128 0 179 -90v75h74v-420q0 -98 -15 -154q-13 -56 -65 -97q-68 -53 -170 -53q-132 0 -239 77zM290 63q82 0 134 55q54 56 54 138
t-54 138q-53 56 -134 56q-77 0 -130 -56q-51 -56 -51 -138t51 -138q52 -55 130 -55zM314 552h-59l53 145h99z" />
    <glyph glyph-name="Hcircumflex" unicode="&#x124;" horiz-adv-x="727" 
d="M297 769h-91l126 121h62l126 -121h-91l-66 66zM170 0h-78v697h78v-291h387v291h78v-697h-78v334h-387v-334z" />
    <glyph glyph-name="hcircumflex" unicode="&#x125;" horiz-adv-x="547" 
d="M28 721h-91l126 121h62l126 -121h-91l-66 66zM131 0h-74v697h74v-278q21 43 61 68t94 25q83 0 132 -51.5t49 -138.5v-208q0 -30 7 -41.5t28 -11.5q3 0 19 2v-61q-15 -5 -32 -5q-96 0 -96 112v197q0 63 -33.5 100t-91.5 37q-60 0 -98.5 -39.5t-38.5 -102.5v-301z" />
    <glyph glyph-name="Hbar" unicode="&#x126;" horiz-adv-x="727" 
d="M170 0h-78v504h-59v69h59v124h78v-124h387v124h78v-124h59v-69h-59v-504h-78v334h-387v-334zM170 504v-98h387v98h-387z" />
    <glyph glyph-name="hbar" unicode="&#x127;" horiz-adv-x="547" 
d="M131 0h-74v573h-57v60h57v64h74v-64h198v-60h-198v-154q21 43 61 68t94 25q83 0 132 -51.5t49 -138.5v-208q0 -30 7 -41.5t28 -11.5q3 0 19 2v-61q-15 -5 -32 -5q-96 0 -96 112v197q0 63 -33.5 100t-91.5 37q-60 0 -98.5 -39.5t-38.5 -102.5v-301z" />
    <glyph glyph-name="Itilde" unicode="&#x128;" horiz-adv-x="270" 
d="M33 758l-49 4q5 41 29.5 66.5t60.5 25.5q26 0 63 -20q37 -19 54 -19q35 0 46 41l49 -4q-11 -98 -92 -98q-28 0 -65 19q-37 20 -53 20q-35 0 -43 -35zM174 0h-78v697h78v-697z" />
    <glyph glyph-name="itilde" unicode="&#x129;" horiz-adv-x="212" 
d="M13 596l-48 4q5 41 25.5 65.5t52.5 24.5q19 0 53 -20q32 -19 43 -19q29 0 37 41l47 -4q-11 -96 -79 -96q-21 0 -53 19q-34 20 -44 20q-28 0 -34 -35zM58 95v409h74v-396q0 -28 8.5 -40.5t29.5 -12.5q8 0 26 2v-61q-19 -8 -47 -8q-91 0 -91 107z" />
    <glyph glyph-name="Imacron" unicode="&#x12a;" horiz-adv-x="270" 
d="M272 769h-274v69h274v-69zM174 0h-78v697h78v-697z" />
    <glyph glyph-name="imacron" unicode="&#x12b;" horiz-adv-x="212" 
d="M214 601h-238v69h238v-69zM58 95v409h74v-396q0 -28 8.5 -40.5t29.5 -12.5q8 0 26 2v-61q-19 -8 -47 -8q-91 0 -91 107z" />
    <glyph glyph-name="Ibreve" unicode="&#x12c;" horiz-adv-x="270" 
d="M-21 890h69q22 -73 87 -73t87 73h69q-8 -62 -51.5 -100.5t-104.5 -38.5t-104.5 38.5t-51.5 100.5zM174 0h-78v697h78v-697z" />
    <glyph glyph-name="ibreve" unicode="&#x12d;" horiz-adv-x="212" 
d="M-33 697h69q5 -67 59 -67t59 67h69q-2 -61 -37 -97t-91 -36t-91 36t-37 97zM58 95v409h74v-396q0 -28 8.5 -40.5t29.5 -12.5q8 0 26 2v-61q-19 -8 -47 -8q-91 0 -91 107z" />
    <glyph glyph-name="Iogonek" unicode="&#x12e;" horiz-adv-x="270" 
d="M96 -7v1v703h78v-697q-28 -11 -54 -38q-26 -29 -26 -57q0 -21 14 -33t36 -12q31 0 58 15l-13 -59q-30 -14 -57 -14q-42 0 -71.5 25t-29.5 64q0 58 65 102z" />
    <glyph glyph-name="iogonek" unicode="&#x12f;" horiz-adv-x="212" 
d="M58 95v409h74v-396q0 -28 8.5 -40.5t29.5 -12.5q8 0 26 2v-61q-76 -48 -76 -95q0 -21 14 -33t36 -12q31 0 58 15l-13 -59q-30 -14 -57 -14q-42 0 -71.5 25t-29.5 64q0 59 66 104q-65 12 -65 104zM130 600q-15 -14 -35 -14t-35 14q-15 15 -15 36t15 35q15 15 35 15t35 -15
q15 -14 15 -35t-15 -36z" />
    <glyph glyph-name="Idot" unicode="&#x130;" horiz-adv-x="270" 
d="M170 777q-15 -14 -35 -14t-35 14q-15 15 -15 36t15 35q15 15 35 15t35 -15q15 -14 15 -35t-15 -36zM174 0h-78v697h78v-697z" />
    <glyph glyph-name="dotlessi" unicode="&#x131;" horiz-adv-x="212" 
d="M58 95v409h74v-396q0 -28 8.5 -40.5t29.5 -12.5q8 0 26 2v-61q-19 -8 -47 -8q-91 0 -91 107z" />
    <glyph glyph-name="IJ" unicode="&#x132;" horiz-adv-x="475" 
d="M96 -7v72q38 -7 109 -7q57 0 82 31q12 13 16 35q7 28 7 80v493h78v-483q0 -82 -17 -131q-34 -97 -158 -97q-72 0 -117 7zM174 141h-78v556h78v-556z" />
    <glyph glyph-name="ij" unicode="&#x133;" horiz-adv-x="365" 
d="M305 600q-15 -14 -35 -14t-35 14q-15 15 -15 36t15 35q15 15 35 15t35 -15q15 -14 15 -35t-15 -36zM130 600q-15 -14 -35 -14t-35 14q-15 15 -15 36t15 35q15 15 35 15t35 -15q15 -14 15 -35t-15 -36zM60 -3v70q40 -13 95 -13q40 0 59 22.5t19 70.5v357h74v-357
q0 -93 -50 -132q-36 -30 -110 -30q-51 0 -87 12zM132 138h-74v366h74v-366z" />
    <glyph glyph-name="Jcircumflex" unicode="&#x134;" horiz-adv-x="310" 
d="M118 769h-91l126 121h62l126 -121h-91l-66 66zM14 -5v74q24 -10 53 -10q46 3 62.5 35.5t15.5 94.5v508h78v-505q0 -73 -13 -116q-24 -85 -138 -90q-29 0 -58 9z" />
    <glyph glyph-name="jcircumflex" unicode="&#x135;" horiz-adv-x="208" 
d="M58 576h-86l101 121h62l101 -121h-86l-46 72zM67 -52v556h74v-556q0 -156 -152 -156q-11 0 -27 2v70q17 -3 35 -3q37 0 53.5 20t16.5 67z" />
    <glyph glyph-name="Kcommaaccent" unicode="&#x136;" horiz-adv-x="638" 
d="M170 0h-78v697h78v-370l335 370h96l-278 -304l286 -393h-94l-244 336l-101 -110v-226zM279 -193h-59l53 145h99z" />
    <glyph glyph-name="kcommaaccent" unicode="&#x137;" horiz-adv-x="466" 
d="M131 0h-74v697h74v-442l216 249h85l-191 -221l218 -283h-88l-177 230l-63 -73v-157zM137 -193l53 145h99l-93 -145h-59z" />
    <glyph glyph-name="Lacute" unicode="&#x139;" horiz-adv-x="496" 
d="M457 0h-365v697h78v-625h287v-72zM169 745h-59l53 145h99z" />
    <glyph glyph-name="lacute" unicode="&#x13a;" horiz-adv-x="260" 
d="M118 722h-59l53 145h99zM58 697h74v-565q0 -42 14 -60t49 -18q22 0 36 2v-63q-14 -8 -46 -8q-44 0 -82 22q-45 27 -45 120v570z" />
    <glyph glyph-name="Lcommaaccent" unicode="&#x13b;" horiz-adv-x="496" 
d="M457 0h-365v697h78v-625h287v-72zM183 -193l53 145h99l-93 -145h-59z" />
    <glyph glyph-name="lcommaaccent" unicode="&#x13c;" horiz-adv-x="260" 
d="M58 127v570h74v-565q0 -42 14 -60t49 -18q22 0 36 2v-63q-14 -8 -46 -8q-44 0 -82 22q-45 27 -45 120zM3 -193l53 145h99l-93 -145h-59z" />
    <glyph glyph-name="Lcaron" unicode="&#x13d;" horiz-adv-x="496" 
d="M457 0h-365v697h78v-625h287v-72zM311 552h-59l53 145h99z" />
    <glyph glyph-name="lcaron" unicode="&#x13e;" horiz-adv-x="315" 
d="M58 127v570h74v-565q0 -42 14 -60t49 -18q22 0 36 2v-63q-14 -8 -46 -8q-44 0 -82 22q-45 27 -45 120zM230 552h-59l53 145h99z" />
    <glyph glyph-name="Ldot" unicode="&#x13f;" horiz-adv-x="496" 
d="M457 0h-365v697h78v-625h287v-72zM356 335q-15 -14 -35 -14t-35 14q-15 15 -15 36t15 35q15 15 35 15t35 -15q15 -14 15 -35t-15 -36z" />
    <glyph glyph-name="ldot" unicode="&#x140;" horiz-adv-x="315" 
d="M58 127v570h74v-565q0 -42 14 -60t49 -18q22 0 36 2v-63q-14 -8 -46 -8q-44 0 -82 22q-45 27 -45 120zM270 332q-15 -14 -35 -14t-35 14q-15 15 -15 36t15 35q15 15 35 15t35 -15q15 -14 15 -35t-15 -36z" />
    <glyph glyph-name="Lslash" unicode="&#x141;" horiz-adv-x="495" 
d="M457 0h-365v282l-67 -37v76l67 37v339h78v-296l140 79v-76l-140 -78v-254h287v-72z" />
    <glyph glyph-name="lslash" unicode="&#x142;" horiz-adv-x="274" 
d="M72 127v183l-68 -40v77l68 40v310h74v-266l85 51v-77l-85 -51v-222q0 -42 14 -60t49 -18q22 0 36 2v-63q-14 -8 -46 -8q-44 0 -82 22q-45 27 -45 120z" />
    <glyph glyph-name="Nacute" unicode="&#x143;" horiz-adv-x="751" 
d="M170 0h-78v697h68l421 -558v558h78v-697h-63l-426 564v-564zM392 745h-59l53 145h99z" />
    <glyph glyph-name="nacute" unicode="&#x144;" horiz-adv-x="554" 
d="M131 0h-74v504h74v-85q21 43 62.5 68t96.5 25q84 0 134 -51.5t50 -138.5v-208q0 -31 7 -42t28 -11q3 0 19 2v-61q-13 -5 -32 -5q-96 0 -96 112v197q0 63 -34.5 100t-94.5 37q-62 0 -101 -39.5t-39 -102.5v-301zM316 552h-59l53 145h99z" />
    <glyph glyph-name="Ncommaaccent" unicode="&#x145;" horiz-adv-x="751" 
d="M170 0h-78v697h68l421 -558v558h78v-697h-63l-426 564v-564zM351 -193h-59l53 145h99z" />
    <glyph glyph-name="ncommaaccent" unicode="&#x146;" horiz-adv-x="554" 
d="M173 -193l53 145h99l-93 -145h-59zM131 0h-74v504h74v-85q21 43 62.5 68t96.5 25q84 0 134 -51.5t50 -138.5v-208q0 -31 7 -42t28 -11q3 0 19 2v-61q-13 -5 -32 -5q-96 0 -96 112v197q0 63 -34.5 100t-94.5 37q-62 0 -101 -39.5t-39 -102.5v-301z" />
    <glyph glyph-name="Ncaron" unicode="&#x147;" horiz-adv-x="751" 
d="M406 769h-62l-126 121h91l66 -66l66 66h91zM170 0h-78v697h68l421 -558v558h78v-697h-63l-426 564v-564z" />
    <glyph glyph-name="ncaron" unicode="&#x148;" horiz-adv-x="554" 
d="M307 576h-62l-126 121h91l66 -66l66 66h91zM131 0h-74v504h74v-85q21 43 62.5 68t96.5 25q84 0 134 -51.5t50 -138.5v-208q0 -31 7 -42t28 -11q3 0 19 2v-61q-13 -5 -32 -5q-96 0 -96 112v197q0 63 -34.5 100t-94.5 37q-62 0 -101 -39.5t-39 -102.5v-301z" />
    <glyph glyph-name="Eng" unicode="&#x14a;" horiz-adv-x="751" 
d="M170 0h-78v697h68l421 -575v575h78v-697q0 -104 -36 -156t-120 -52q-27 0 -53 9v73q24 -10 53 -10q52 0 66 46q12 39 12 90v1l-411 561v-562z" />
    <glyph glyph-name="eng" unicode="&#x14b;" horiz-adv-x="519" 
d="M131 0h-74v504h74v-85q21 43 61 68t94 25q83 0 132 -51.5t49 -138.5v-374q0 -74 -35 -115q-35 -39 -107 -41q-15 0 -37 2v70q16 -3 35 -3q37 0 53.5 20t16.5 67v358q0 64 -33 100.5t-93 36.5t-98 -39.5t-38 -102.5v-301z" />
    <glyph glyph-name="Omacron" unicode="&#x14c;" horiz-adv-x="820" 
d="M152 89q-105 103 -105 259q0 154 105 258q107 104 258 104t257 -104q106 -103 106 -258q0 -156 -106 -259q-104 -103 -257 -103q-152 0 -258 103zM205 555q-81 -83 -81 -207q0 -126 81 -208q82 -82 205 -82t204 82t81 208q0 124 -81 207t-204 83q-122 0 -205 -83z
M557 770h-294v69h294v-69z" />
    <glyph glyph-name="omacron" unicode="&#x14d;" horiz-adv-x="606" 
d="M113 61q-78 76 -78 191q0 114 78 190q79 77 190 77t190 -77q78 -76 78 -190q0 -115 -78 -191q-77 -76 -190 -76t-190 76zM164 393q-55 -55 -55 -141t55 -142q56 -56 139 -56t139 56q55 56 55 142t-55 141q-56 57 -139 57t-139 -57zM452 601h-294v69h294v-69z" />
    <glyph glyph-name="Obreve" unicode="&#x14e;" horiz-adv-x="820" 
d="M152 89q-105 103 -105 259q0 154 105 258q107 104 258 104t257 -104q106 -103 106 -258q0 -156 -106 -259q-104 -103 -257 -103q-152 0 -258 103zM205 555q-81 -83 -81 -207q0 -126 81 -208q82 -82 205 -82t204 82t81 208q0 124 -81 207t-204 83q-122 0 -205 -83z
M254 890h69q22 -73 87 -73t87 73h69q-8 -62 -51.5 -100.5t-104.5 -38.5t-104.5 38.5t-51.5 100.5z" />
    <glyph glyph-name="obreve" unicode="&#x14f;" horiz-adv-x="606" 
d="M113 61q-78 76 -78 191q0 114 78 190q79 77 190 77t190 -77q78 -76 78 -190q0 -115 -78 -191q-77 -76 -190 -76t-190 76zM164 393q-55 -55 -55 -141t55 -142q56 -56 139 -56t139 56q55 56 55 142t-55 141q-56 57 -139 57t-139 -57zM147 697h69q22 -73 87 -73t87 73h69
q-8 -62 -51.5 -100.5t-104.5 -38.5t-104.5 38.5t-51.5 100.5z" />
    <glyph glyph-name="Ohungarumlaut" unicode="&#x150;" horiz-adv-x="820" 
d="M152 89q-105 103 -105 259q0 154 105 258q107 104 258 104t257 -104q106 -103 106 -258q0 -156 -106 -259q-104 -103 -257 -103q-152 0 -258 103zM205 555q-81 -83 -81 -207q0 -126 81 -208q82 -82 205 -82t204 82t81 208q0 124 -81 207t-204 83q-122 0 -205 -83z
M514 745h-55l63 145h95zM360 745h-55l63 145h95z" />
    <glyph glyph-name="ohungarumlaut" unicode="&#x151;" horiz-adv-x="606" 
d="M113 61q-78 76 -78 191q0 114 78 190q79 77 190 77t190 -77q78 -76 78 -190q0 -115 -78 -191q-77 -76 -190 -76t-190 76zM164 393q-55 -55 -55 -141t55 -142q56 -56 139 -56t139 56q55 56 55 142t-55 141q-56 57 -139 57t-139 -57zM405 552h-55l63 145h95zM251 552h-55
l63 145h95z" />
    <glyph glyph-name="OE" unicode="&#x152;" horiz-adv-x="1084" 
d="M410 710q186 0 281 -147v134h330v-72h-252v-221h233v-72h-233v-260h259v-72h-337v137q-91 -151 -281 -151q-152 0 -258 103q-105 103 -105 259q0 154 105 258q107 104 258 104zM205 555q-81 -83 -81 -207q0 -126 81 -208q82 -82 205 -82t204 82t81 208q0 124 -81 207
t-204 83q-122 0 -205 -83z" />
    <glyph glyph-name="oe" unicode="&#x153;" horiz-adv-x="1017" 
d="M303 519q74 0 134 -35t94 -96q33 61 90 96t125 35q104 0 178 -77t74 -190q0 -11 -1 -16h-429q3 -82 52.5 -129.5t132.5 -47.5q112 0 173 67l50 -54q-87 -87 -223 -87q-160 0 -224 127q-34 -60 -93 -93.5t-133 -33.5q-113 0 -190 76q-78 76 -78 191q0 114 78 190
q79 77 190 77zM573 301h346q-14 67 -61 108t-112 41t-112 -41t-61 -108zM164 393q-55 -55 -55 -141t55 -142q56 -56 139 -56t139 56q55 56 55 142t-55 141q-56 57 -139 57t-139 -57z" />
    <glyph glyph-name="Racute" unicode="&#x154;" horiz-adv-x="606" 
d="M170 0h-78v697h238q86 0 148 -60q61 -58 61 -148q0 -68 -36 -121t-97 -77l168 -291h-89l-157 276h-1h-157v-276zM170 625v-277h152q60 0 99 40q40 40 40 101q0 58 -38 97t-96 39h-157zM307 745h-59l53 145h99z" />
    <glyph glyph-name="racute" unicode="&#x155;" horiz-adv-x="361" 
d="M131 0h-74v504h74v-85q21 43 61 68t94 25q13 0 31 -2v-80q-22 5 -50 5q-60 0 -98 -39.5t-38 -102.5v-293zM188 552h-59l53 145h99z" />
    <glyph glyph-name="Rcommaaccent" unicode="&#x156;" horiz-adv-x="606" 
d="M170 0h-78v697h238q86 0 148 -60q61 -58 61 -148q0 -68 -36 -121t-97 -77l168 -291h-89l-157 276h-1h-157v-276zM170 625v-277h152q60 0 99 40q40 40 40 101q0 58 -38 97t-96 39h-157zM227 -193l53 145h99l-93 -145h-59z" />
    <glyph glyph-name="rcommaaccent" unicode="&#x157;" horiz-adv-x="361" 
d="M131 0h-74v504h74v-85q21 43 61 68t94 25q13 0 31 -2v-80q-22 5 -50 5q-60 0 -98 -39.5t-38 -102.5v-293zM4 -193l53 145h99l-93 -145h-59z" />
    <glyph glyph-name="Rcaron" unicode="&#x158;" horiz-adv-x="606" 
d="M323 769h-62l-126 121h91l66 -66l66 66h91zM170 0h-78v697h238q86 0 148 -60q61 -58 61 -148q0 -68 -36 -121t-97 -77l168 -291h-89l-157 276h-1h-157v-276zM170 625v-277h152q60 0 99 40q40 40 40 101q0 58 -38 97t-96 39h-157z" />
    <glyph glyph-name="rcaron" unicode="&#x159;" horiz-adv-x="361" 
d="M209 576h-62l-126 121h91l66 -66l66 66h91zM131 0h-74v504h74v-85q21 43 61 68t94 25q13 0 31 -2v-80q-22 5 -50 5q-60 0 -98 -39.5t-38 -102.5v-293z" />
    <glyph glyph-name="Sacute" unicode="&#x15a;" horiz-adv-x="550" 
d="M41 153l67 31q52 -126 175 -126q89 0 118 49q22 38 22 74q0 57 -35 87t-121 68q-95 42 -139 83t-44 118q0 75 54 124q53 49 137 49q128 0 188 -111l-67 -34q-39 73 -122 73q-48 0 -80 -28t-32 -71q0 -53 41 -84q36 -23 41 -26l60 -27q106 -46 151 -93q46 -45 46 -127
q0 -86 -58 -141q-56 -55 -161 -55q-85 0 -148.5 42.5t-92.5 124.5zM298 745h-59l53 145h99z" />
    <glyph glyph-name="sacute" unicode="&#x15b;" horiz-adv-x="414" 
d="M18 109l63 24q10 -34 43.5 -55t83.5 -21q58 0 84.5 22t26.5 55q0 38 -28 57q-26 19 -98 48q-72 28 -104.5 61t-32.5 86q0 58 42.5 95.5t109.5 37.5q102 0 146 -87l-60 -31q-27 50 -85 50q-36 0 -57.5 -17.5t-21.5 -47.5q0 -29 25 -48.5t85 -42.5q80 -31 116.5 -68
t36.5 -93q0 -63 -49 -104.5t-136 -41.5q-73 0 -124 32t-66 89zM219 552h-59l53 145h99z" />
    <glyph glyph-name="Scircumflex" unicode="&#x15c;" horiz-adv-x="550" 
d="M223 769h-91l126 121h62l126 -121h-91l-66 66zM41 153l67 31q52 -126 175 -126q89 0 118 49q22 38 22 74q0 57 -35 87t-121 68q-95 42 -139 83t-44 118q0 75 54 124q53 49 137 49q128 0 188 -111l-67 -34q-39 73 -122 73q-48 0 -80 -28t-32 -71q0 -53 41 -84
q36 -23 41 -26l60 -27q106 -46 151 -93q46 -45 46 -127q0 -86 -58 -141q-56 -55 -161 -55q-85 0 -148.5 42.5t-92.5 124.5z" />
    <glyph glyph-name="scircumflex" unicode="&#x15d;" horiz-adv-x="414" 
d="M147 576h-91l126 121h62l126 -121h-91l-66 66zM18 109l63 24q10 -34 43.5 -55t83.5 -21q58 0 84.5 22t26.5 55q0 38 -28 57q-26 19 -98 48q-72 28 -104.5 61t-32.5 86q0 58 42.5 95.5t109.5 37.5q102 0 146 -87l-60 -31q-27 50 -85 50q-36 0 -57.5 -17.5t-21.5 -47.5
q0 -29 25 -48.5t85 -42.5q80 -31 116.5 -68t36.5 -93q0 -63 -49 -104.5t-136 -41.5q-73 0 -124 32t-66 89z" />
    <glyph glyph-name="Scedilla" unicode="&#x15e;" horiz-adv-x="550" 
d="M41 153l67 31q52 -126 175 -126q89 0 118 49q22 38 22 74q0 57 -35 87t-121 68q-95 42 -139 83t-44 118q0 75 54 124q53 49 137 49q128 0 188 -111l-67 -34q-39 73 -122 73q-48 0 -80 -28t-32 -71q0 -53 41 -84q36 -23 41 -26l60 -27q106 -46 151 -93q46 -45 46 -127
q0 -85 -56 -141q-55 -53 -158 -55l-15 -34q28 0 47 -19.5t19 -51.5q0 -81 -103 -81q-45 0 -74 23l19 39q29 -17 54 -17q19 0 31.5 10t12.5 26q0 23 -17 32t-56 9l28 68q-67 11 -117.5 53t-74.5 110z" />
    <glyph glyph-name="scedilla" unicode="&#x15f;" horiz-adv-x="414" 
d="M18 109l63 24q10 -34 43.5 -55t83.5 -21q58 0 84.5 22t26.5 55q0 38 -28 57q-26 19 -98 48q-72 28 -104.5 61t-32.5 86q0 58 42.5 95.5t109.5 37.5q102 0 146 -87l-60 -31q-27 50 -85 50q-36 0 -57.5 -17.5t-21.5 -47.5q0 -29 25 -48.5t85 -42.5q80 -31 116.5 -68
t36.5 -93q0 -58 -44.5 -99t-122.5 -46l-19 -35q31 0 51.5 -19.5t20.5 -51.5q0 -81 -106 -81q-45 0 -79 23l20 39q29 -17 58 -17q20 0 33.5 10t13.5 26q0 23 -18 32t-61 9l31 67q-59 7 -99.5 38t-53.5 80z" />
    <glyph glyph-name="Scaron" unicode="&#x160;" horiz-adv-x="550" 
d="M322 769h-62l-126 121h91l66 -66l66 66h91zM41 153l67 31q52 -126 175 -126q89 0 118 49q22 38 22 74q0 57 -35 87t-121 68q-95 42 -139 83t-44 118q0 75 54 124q53 49 137 49q128 0 188 -111l-67 -34q-39 73 -122 73q-48 0 -80 -28t-32 -71q0 -53 41 -84q36 -23 41 -26
l60 -27q106 -46 151 -93q46 -45 46 -127q0 -86 -58 -141q-56 -55 -161 -55q-85 0 -148.5 42.5t-92.5 124.5z" />
    <glyph glyph-name="scaron" unicode="&#x161;" horiz-adv-x="414" 
d="M247 576h-62l-126 121h91l66 -66l66 66h91zM18 109l63 24q10 -34 43.5 -55t83.5 -21q58 0 84.5 22t26.5 55q0 38 -28 57q-26 19 -98 48q-72 28 -104.5 61t-32.5 86q0 58 42.5 95.5t109.5 37.5q102 0 146 -87l-60 -31q-27 50 -85 50q-36 0 -57.5 -17.5t-21.5 -47.5
q0 -29 25 -48.5t85 -42.5q80 -31 116.5 -68t36.5 -93q0 -63 -49 -104.5t-136 -41.5q-73 0 -124 32t-66 89z" />
    <glyph glyph-name="Tcommaaccent" unicode="&#x162;" horiz-adv-x="518" 
d="M298 0h-78v625h-190v72h458v-72h-190v-625zM158 -193l53 145h99l-93 -145h-59z" />
    <glyph glyph-name="tcommaaccent" unicode="&#x163;" horiz-adv-x="308" 
d="M89 141v294h-59v69h59v193h74v-193h117v-69h-117v-294q0 -47 16.5 -67t53.5 -20q27 0 47 3v-64q-18 -8 -56 -8q-135 0 -135 156zM41 -193l53 145h99l-93 -145h-59z" />
    <glyph glyph-name="Tcaron" unicode="&#x164;" horiz-adv-x="518" 
d="M289 769h-62l-126 121h91l66 -66l66 66h91zM298 0h-78v625h-190v72h458v-72h-190v-625z" />
    <glyph glyph-name="tcaron" unicode="&#x165;" horiz-adv-x="335" 
d="M89 141v294h-59v69h59v193h74v-193h117v-69h-117v-294q0 -47 16.5 -67t53.5 -20q27 0 47 3v-64q-18 -8 -56 -8q-135 0 -135 156zM280 552h-59l53 145h99z" />
    <glyph glyph-name="Tbar" unicode="&#x166;" horiz-adv-x="518" 
d="M298 0h-78v361h-108v69h108v195h-190v72h458v-72h-190v-195h108v-69h-108v-361z" />
    <glyph glyph-name="tbar" unicode="&#x167;" horiz-adv-x="308" 
d="M89 141v153h-64v69h64v72h-59v69h59v193h74v-193h117v-69h-117v-72h112v-69h-112v-153q0 -47 16.5 -67t53.5 -20q27 0 47 3v-64q-18 -8 -56 -8q-135 0 -135 156z" />
    <glyph glyph-name="Utilde" unicode="&#x168;" horiz-adv-x="696" 
d="M248 758l-49 4q5 41 29.5 66.5t60.5 25.5q26 0 63 -20q37 -19 54 -19q35 0 46 41l49 -4q-11 -98 -92 -98q-28 0 -65 19q-37 20 -53 20q-35 0 -43 -35zM87 244v453h78v-445q0 -93 48.5 -142.5t134.5 -49.5t134.5 49.5t48.5 142.5v445h78v-453q0 -122 -72 -190
q-72 -66 -189 -66t-189 66q-72 68 -72 190z" />
    <glyph glyph-name="utilde" unicode="&#x169;" horiz-adv-x="547" 
d="M51 182v322h74v-306q0 -63 33.5 -100t91.5 -37q60 0 98.5 39.5t38.5 102.5v301h74v-387q0 -33 8.5 -48t29.5 -15q8 0 26 2v-56q-18 -8 -47 -8q-41 0 -62 23q-19 20 -23 50q-48 -73 -161 -73q-83 0 -132 51.5t-49 138.5zM161 594l-49 4q5 41 29.5 66.5t60.5 25.5
q26 0 63 -20q37 -19 54 -19q35 0 46 41l49 -4q-11 -98 -92 -98q-28 0 -65 19q-37 20 -53 20q-35 0 -43 -35z" />
    <glyph glyph-name="Umacron" unicode="&#x16a;" horiz-adv-x="696" 
d="M87 244v453h78v-445q0 -93 48.5 -142.5t134.5 -49.5t134.5 49.5t48.5 142.5v445h78v-453q0 -122 -72 -190q-72 -66 -189 -66t-189 66q-72 68 -72 190zM495 770h-294v69h294v-69z" />
    <glyph glyph-name="umacron" unicode="&#x16b;" horiz-adv-x="547" 
d="M51 182v322h74v-306q0 -63 33.5 -100t91.5 -37q60 0 98.5 39.5t38.5 102.5v301h74v-387q0 -33 8.5 -48t29.5 -15q8 0 26 2v-56q-18 -8 -47 -8q-41 0 -62 23q-19 20 -23 50q-48 -73 -161 -73q-83 0 -132 51.5t-49 138.5zM410 601h-294v69h294v-69z" />
    <glyph glyph-name="Ubreve" unicode="&#x16c;" horiz-adv-x="696" 
d="M87 244v453h78v-445q0 -93 48.5 -142.5t134.5 -49.5t134.5 49.5t48.5 142.5v445h78v-453q0 -122 -72 -190q-72 -66 -189 -66t-189 66q-72 68 -72 190zM192 890h69q22 -73 87 -73t87 73h69q-8 -62 -51.5 -100.5t-104.5 -38.5t-104.5 38.5t-51.5 100.5z" />
    <glyph glyph-name="ubreve" unicode="&#x16d;" horiz-adv-x="547" 
d="M51 182v322h74v-306q0 -63 33.5 -100t91.5 -37q60 0 98.5 39.5t38.5 102.5v301h74v-387q0 -33 8.5 -48t29.5 -15q8 0 26 2v-56q-18 -8 -47 -8q-41 0 -62 23q-19 20 -23 50q-48 -73 -161 -73q-83 0 -132 51.5t-49 138.5zM107 697h69q22 -73 87 -73t87 73h69
q-8 -62 -51.5 -100.5t-104.5 -38.5t-104.5 38.5t-51.5 100.5z" />
    <glyph glyph-name="Uring" unicode="&#x16e;" horiz-adv-x="696" 
d="M349 710q-31 -2 -55.5 16.5t-35 44.5t-6 56t27.5 49q20 23 50 27.5t56 -6t44 -35t16 -54.5q0 -41 -28.5 -69.5t-68.5 -28.5zM316 775q14 -14 33 -14t32 14q14 14 14 33t-14 32q-13 14 -32 14t-33 -14q-14 -13 -14 -32t14 -33zM87 244v453h78v-445q0 -93 48.5 -142.5
t134.5 -49.5t134.5 49.5t48.5 142.5v445h78v-453q0 -122 -72 -190q-72 -66 -189 -66t-189 66q-72 68 -72 190z" />
    <glyph glyph-name="uring" unicode="&#x16f;" horiz-adv-x="547" 
d="M263 517q-41 0 -69.5 28.5t-28.5 69.5q0 40 29 68.5t69 28.5t68.5 -28.5t28.5 -68.5q0 -41 -28.5 -69.5t-68.5 -28.5zM230 582q14 -14 33 -14t32 14q14 14 14 33t-14 32q-13 14 -32 14t-33 -14q-14 -13 -14 -32t14 -33zM51 182v322h74v-306q0 -63 33.5 -100t91.5 -37
q60 0 98.5 39.5t38.5 102.5v301h74v-387q0 -33 8.5 -48t29.5 -15q8 0 26 2v-56q-18 -8 -47 -8q-41 0 -62 23q-19 20 -23 50q-48 -73 -161 -73q-83 0 -132 51.5t-49 138.5z" />
    <glyph glyph-name="Uhungarumlaut" unicode="&#x170;" horiz-adv-x="696" 
d="M87 244v453h78v-445q0 -93 48.5 -142.5t134.5 -49.5t134.5 49.5t48.5 142.5v445h78v-453q0 -122 -72 -190q-72 -66 -189 -66t-189 66q-72 68 -72 190zM449 745h-55l63 145h95zM295 745h-55l63 145h95z" />
    <glyph glyph-name="uhungarumlaut" unicode="&#x171;" horiz-adv-x="547" 
d="M51 182v322h74v-306q0 -63 33.5 -100t91.5 -37q60 0 98.5 39.5t38.5 102.5v301h74v-387q0 -33 8.5 -48t29.5 -15q8 0 26 2v-56q-18 -8 -47 -8q-41 0 -62 23q-19 20 -23 50q-48 -73 -161 -73q-83 0 -132 51.5t-49 138.5zM362 552h-55l63 145h95zM208 552h-55l63 145h95z
" />
    <glyph glyph-name="Uogonek" unicode="&#x172;" horiz-adv-x="696" 
d="M87 244v453h78v-445q0 -93 48.5 -142.5t134.5 -49.5t134.5 49.5t48.5 142.5v445h78v-451q0 -140 -96 -209l-30 -18q-58 -35 -83 -68q-26 -38 -14 -64.5t46 -26.5q31 0 58 15l-13 -59q-30 -14 -57 -14q-42 0 -71.5 25t-29.5 64q0 56 61 99q-32 -2 -36 -2q-114 0 -186 66
q-71 68 -71 190z" />
    <glyph glyph-name="uogonek" unicode="&#x173;" horiz-adv-x="547" 
d="M51 182v322h74v-306q0 -63 33.5 -100t91.5 -37q60 0 98.5 39.5t38.5 102.5v301h74v-387q0 -33 8.5 -48t29.5 -15q8 0 26 2v-56q-42 -16 -69 -40.5t-27 -50.5q0 -21 14 -33t36 -12q31 0 58 15l-13 -59q-30 -14 -57 -14q-42 0 -71.5 25t-29.5 64q0 34 21.5 62t55.5 41
q-22 7 -34 25q-11 16 -16 42q-48 -73 -161 -73q-83 0 -132 51.5t-49 138.5z" />
    <glyph glyph-name="Wcircumflex" unicode="&#x174;" horiz-adv-x="920" 
d="M394 769h-91l126 121h62l126 -121h-91l-66 66zM281 0h-50l-204 697h79l155 -527l172 527h54l172 -527l155 527h79l-204 -697h-50l-179 539z" />
    <glyph glyph-name="wcircumflex" unicode="&#x175;" horiz-adv-x="746" 
d="M307 576h-91l126 121h62l126 -121h-91l-66 66zM246 0h-49l-182 504h76l130 -364l126 364h52l125 -364l130 364h77l-182 -504h-49l-127 367z" />
    <glyph glyph-name="Ycircumflex" unicode="&#x176;" horiz-adv-x="622" 
d="M248 769h-91l126 121h62l126 -121h-91l-66 66zM351 0h-78v286l-245 411h86l199 -334l197 334h84l-243 -411v-286z" />
    <glyph glyph-name="ycircumflex" unicode="&#x177;" horiz-adv-x="502" 
d="M190 576h-91l126 121h62l126 -121h-91l-66 66zM64 -200v68q22 -8 50 -8q26 0 43 11q22 16 40 61l22 57l-204 515h74l166 -425l160 425h74l-228 -590q-21 -56 -49 -85q-38 -38 -98 -38q-29 0 -50 9z" />
    <glyph glyph-name="Ydieresis" unicode="&#x178;" horiz-adv-x="622" 
d="M449 757q-15 -14 -35 -14t-35 14q-15 15 -15 36t15 35q15 15 35 15t35 -15q15 -14 15 -35t-15 -36zM243 757q-15 -14 -35 -14t-35 14q-15 15 -15 36t15 35q15 15 35 15t35 -15q15 -14 15 -35t-15 -36zM351 0h-78v286l-245 411h86l199 -334l197 334h84l-243 -411v-286z
" />
    <glyph glyph-name="Zacute" unicode="&#x179;" horiz-adv-x="630" 
d="M356 745h-59l53 145h99zM584 0h-540v48l427 577h-378v72h484v-52l-424 -573h431v-72z" />
    <glyph glyph-name="zacute" unicode="&#x17a;" horiz-adv-x="499" 
d="M458 0h-430v44l309 391h-276v69h381v-49l-307 -386h323v-69zM269 552h-59l53 145h99z" />
    <glyph glyph-name="Zdotaccent" unicode="&#x17b;" horiz-adv-x="630" 
d="M379 777q-15 -14 -35 -14t-35 14q-15 15 -15 36t15 35q15 15 35 15t35 -15q15 -14 15 -35t-15 -36zM584 0h-540v48l427 577h-378v72h484v-52l-424 -573h431v-72z" />
    <glyph glyph-name="zdotaccent" unicode="&#x17c;" horiz-adv-x="499" 
d="M458 0h-430v44l309 391h-276v69h381v-49l-307 -386h323v-69zM299 600q-15 -14 -35 -14t-35 14q-15 15 -15 36t15 35q15 15 35 15t35 -15q15 -14 15 -35t-15 -36z" />
    <glyph glyph-name="Zcaron" unicode="&#x17d;" horiz-adv-x="630" 
d="M378 769h-62l-126 121h91l66 -66l66 66h91zM584 0h-540v48l427 577h-378v72h484v-52l-424 -573h431v-72z" />
    <glyph glyph-name="zcaron" unicode="&#x17e;" horiz-adv-x="499" 
d="M294 576h-62l-126 121h91l66 -66l66 66h91zM458 0h-430v44l309 391h-276v69h381v-49l-307 -386h323v-69z" />
    <glyph glyph-name="florin" unicode="&#x192;" horiz-adv-x="375" 
d="M98 -101h-74l101 475h-76l13 63h76l23 107q24 110 80 141q48 27 108 27q27 0 46 -4l-14 -68q-23 3 -51 3q-39 0 -61 -22t-32 -68l-25 -116h100l-13 -63h-100z" />
    <glyph glyph-name="Aringacute" unicode="&#x1fa;" horiz-adv-x="701" 
d="M117 0h-82l290 665q-31 8 -51.5 34.5t-20.5 59.5q0 40 29 68.5t69 28.5t68.5 -28.5t28.5 -68.5q0 -34 -20.5 -60.5t-52.5 -34.5l291 -664h-85l-75 172h-314zM318 726q14 -14 33 -14t32 14q14 14 14 33t-14 32q-13 14 -32 14t-33 -14q-14 -13 -14 -32t14 -33zM349 540
l-126 -296h252zM388 907h-59l53 145h99z" />
    <glyph glyph-name="aringacute" unicode="&#x1fb;" horiz-adv-x="629" 
d="M327 788h-59l53 145h99zM397 654q0 -41 -28.5 -69.5t-68.5 -28.5t-69 29t-29 69t29 68.5t69 28.5t68.5 -28.5t28.5 -68.5zM267 621q14 -14 33 -14t32 14q14 14 14 33t-14 32q-13 14 -32 14t-33 -14q-14 -13 -14 -32t14 -33zM290 519q128 0 179 -90v75h74v-391
q0 -33 8.5 -48t29.5 -15q8 0 26 2v-56q-19 -8 -47 -8q-33 0 -53 14q-30 23 -34 72q-57 -89 -183 -89q-108 0 -181 76q-74 77 -74 191q0 113 74 190t181 77zM290 54q81 0 134 56q54 57 54 142q0 86 -54 141q-52 57 -134 57q-78 0 -130 -57q-51 -55 -51 -141q0 -85 51 -142
q53 -56 130 -56z" />
    <glyph glyph-name="AEacute" unicode="&#x1fc;" horiz-adv-x="890" 
d="M82 0h-98l534 697h310v-72h-252v-221h233v-72h-233v-260h259v-72h-337v172h-284zM498 549l-229 -305h229v305zM536 745h-59l53 145h99z" />
    <glyph glyph-name="aeacute" unicode="&#x1fd;" horiz-adv-x="999" 
d="M290 519q128 0 179 -90v75h74v-90q25 45 77 75t108 30q99 0 168 -77t69 -190q0 -11 -1 -16h-409q3 -83 50 -132.5t125 -49.5q51 0 85 15.5t75 54.5l49 -48q-82 -91 -209 -91q-63 0 -111.5 25t-75.5 68v-78h-74v75q-51 -90 -179 -90q-108 0 -181 76q-74 77 -74 191
q0 113 74 190t181 77zM290 54q81 0 134 56q54 57 54 142q0 86 -54 141q-52 57 -134 57q-78 0 -130 -57q-51 -55 -51 -141q0 -85 51 -142q53 -56 130 -56zM560 301h326q-12 66 -55.5 107.5t-102.5 41.5q-63 0 -109 -41.5t-59 -107.5zM527 552h-59l53 145h99z" />
    <glyph glyph-name="Oslashacute" unicode="&#x1fe;" horiz-adv-x="820" 
d="M171 -42l-57 42l55 74q-122 107 -122 274q0 154 105 258q107 104 258 104q106 0 194 -54l58 78l57 -43l-58 -78q112 -106 112 -265q0 -156 -106 -259q-104 -103 -257 -103q-97 0 -183 47zM213 133l348 464q-68 41 -151 41q-122 0 -205 -83q-81 -83 -81 -207
q0 -132 89 -215zM616 553l-345 -461q62 -34 139 -34q123 0 204 82t81 208q0 123 -79 205zM444 745h-59l53 145h99z" />
    <glyph glyph-name="oslashacute" unicode="&#x1ff;" horiz-adv-x="606" 
d="M132 -39l-53 40l40 54q-84 78 -84 197q0 114 78 190q79 77 190 77q71 0 132 -33l37 51l54 -39l-38 -50q83 -78 83 -196q0 -115 -78 -191q-77 -76 -190 -76q-68 0 -130 32zM162 113l231 316q-42 21 -90 21q-83 0 -139 -57q-55 -55 -55 -141q0 -83 53 -139zM446 389
l-231 -315q42 -20 88 -20q83 0 139 56q55 56 55 142q0 82 -51 137zM342 552h-59l53 145h99z" />
    <glyph glyph-name="Scommaaccent" unicode="&#x218;" horiz-adv-x="550" 
d="M41 153l67 31q52 -126 175 -126q89 0 118 49q22 38 22 74q0 57 -35 87t-121 68q-95 42 -139 83t-44 118q0 75 54 124q53 49 137 49q128 0 188 -111l-67 -34q-39 73 -122 73q-48 0 -80 -28t-32 -71q0 -53 41 -84q36 -23 41 -26l60 -27q106 -46 151 -93q46 -45 46 -127
q0 -86 -58 -141q-56 -55 -161 -55q-85 0 -148.5 42.5t-92.5 124.5zM230 -193h-59l53 145h99z" />
    <glyph glyph-name="scommaaccent" unicode="&#x219;" horiz-adv-x="414" 
d="M18 109l63 24q10 -34 43.5 -55t83.5 -21q58 0 84.5 22t26.5 55q0 38 -28 57q-26 19 -98 48q-72 28 -104.5 61t-32.5 86q0 58 42.5 95.5t109.5 37.5q102 0 146 -87l-60 -31q-27 50 -85 50q-36 0 -57.5 -17.5t-21.5 -47.5q0 -29 25 -48.5t85 -42.5q80 -31 116.5 -68
t36.5 -93q0 -63 -49 -104.5t-136 -41.5q-73 0 -124 32t-66 89zM89 -193l53 145h99l-93 -145h-59z" />
    <glyph glyph-name="circumflex" unicode="&#x2c6;" horiz-adv-x="610" 
d="M230 576h-91l122 121h88l122 -121h-91l-75 74z" />
    <glyph glyph-name="caron" unicode="&#x2c7;" horiz-adv-x="610" 
d="M349 576h-88l-122 121h91l75 -74l75 74h91z" />
    <glyph glyph-name="breve" unicode="&#x2d8;" horiz-adv-x="606" 
d="M147 697h69q22 -73 87 -73t87 73h69q-8 -62 -51.5 -100.5t-104.5 -38.5t-104.5 38.5t-51.5 100.5z" />
    <glyph glyph-name="dotaccent" unicode="&#x2d9;" horiz-adv-x="525" 
d="M298 600q-15 -14 -35 -14t-35 14q-15 15 -15 36t15 35q15 15 35 15t35 -15q15 -14 15 -35t-15 -36z" />
    <glyph glyph-name="ring" unicode="&#x2da;" horiz-adv-x="239" 
d="M22 615q0 40 29 68.5t69 28.5t68.5 -28.5t28.5 -68.5q0 -41 -28.5 -69.5t-68.5 -28.5t-69 28.5t-29 69.5zM87 582q14 -14 33 -14t32 14q14 14 14 33t-14 32q-13 14 -32 14t-33 -14q-14 -13 -14 -32t14 -33z" />
    <glyph glyph-name="ogonek" unicode="&#x2db;" horiz-adv-x="526" 
d="M157 -109q0 63 75 109h64q-76 -48 -76 -95q0 -21 14 -33t36 -12q31 0 58 15l-13 -59q-30 -14 -57 -14q-42 0 -71.5 25t-29.5 64z" />
    <glyph glyph-name="tilde" unicode="&#x2dc;" horiz-adv-x="582" 
d="M189 616l-49 4q5 41 29.5 66.5t60.5 25.5q26 0 63 -20q37 -19 54 -19q35 0 46 41l49 -4q-11 -98 -92 -98q-28 0 -65 19q-37 20 -53 20q-35 0 -43 -35z" />
    <glyph glyph-name="hungarumlaut" unicode="&#x2dd;" horiz-adv-x="585" 
d="M370 552h-55l63 145h95zM216 552h-55l63 145h95z" />
    <glyph glyph-name="mu" unicode="&#x3bc;" horiz-adv-x="525" 
d="M125 37v-230h-74v697h74v-302q0 -70 36 -107.5t101 -37.5t101.5 38t36.5 108v301h74v-302q0 -100 -58.5 -157t-156.5 -57q-79 0 -134 49z" />
    <glyph glyph-name="pi" unicode="&#x3c0;" horiz-adv-x="585" 
d="M174 0h-80q78 172 79 435h-3q-67 0 -97 -54l-60 35q21 40 64.5 63.5t91.5 23.5h399l-16 -68h-73v-315q0 -48 45 -48v-74h-1q-53 0 -85.5 33.5t-32.5 88.5v315h-158q-2 -125 -20 -237q-20 -122 -53 -198z" />
    <glyph glyph-name="Wgrave" unicode="&#x1e80;" horiz-adv-x="920" 
d="M281 0h-50l-204 697h79l155 -527l172 527h54l172 -527l155 527h79l-204 -697h-50l-179 539zM497 745h-59l-93 145h99z" />
    <glyph glyph-name="wgrave" unicode="&#x1e81;" horiz-adv-x="746" 
d="M246 0h-49l-182 504h76l130 -364l126 364h52l125 -364l130 364h77l-182 -504h-49l-127 367zM432 552h-59l-93 145h99z" />
    <glyph glyph-name="Wacute" unicode="&#x1e82;" horiz-adv-x="920" 
d="M281 0h-50l-204 697h79l155 -527l172 527h54l172 -527l155 527h79l-204 -697h-50l-179 539zM486 745h-59l53 145h99z" />
    <glyph glyph-name="wacute" unicode="&#x1e83;" horiz-adv-x="746" 
d="M246 0h-49l-182 504h76l130 -364l126 364h52l125 -364l130 364h77l-182 -504h-49l-127 367zM374 552h-59l53 145h99z" />
    <glyph glyph-name="Wdieresis" unicode="&#x1e84;" horiz-adv-x="920" 
d="M598 758q-15 -14 -35 -14t-35 14q-15 15 -15 36t15 35q15 15 35 15t35 -15q15 -14 15 -35t-15 -36zM392 758q-15 -14 -35 -14t-35 14q-15 15 -15 36t15 35q15 15 35 15t35 -15q15 -14 15 -35t-15 -36zM281 0h-50l-204 697h79l155 -527l172 527h54l172 -527l155 527h79
l-204 -697h-50l-179 539z" />
    <glyph glyph-name="wdieresis" unicode="&#x1e85;" horiz-adv-x="746" 
d="M511 600q-15 -14 -35 -14t-35 14q-15 15 -15 36t15 35q15 15 35 15t35 -15q15 -14 15 -35t-15 -36zM305 600q-15 -14 -35 -14t-35 14q-15 15 -15 36t15 35q15 15 35 15t35 -15q15 -14 15 -35t-15 -36zM246 0h-49l-182 504h76l130 -364l126 364h52l125 -364l130 364h77
l-182 -504h-49l-127 367z" />
    <glyph glyph-name="Ygrave" unicode="&#x1ef2;" horiz-adv-x="622" 
d="M351 0h-78v286l-245 411h86l199 -334l197 334h84l-243 -411v-286zM359 745h-59l-93 145h99z" />
    <glyph glyph-name="ygrave" unicode="&#x1ef3;" horiz-adv-x="502" 
d="M64 -200v68q22 -8 50 -8q26 0 43 11q22 16 40 61l22 57l-204 515h74l166 -425l160 425h74l-228 -590q-21 -56 -49 -85q-38 -38 -98 -38q-29 0 -50 9zM301 552h-59l-93 145h99z" />
    <glyph glyph-name="endash" unicode="&#x2013;" horiz-adv-x="456" 
d="M415 229h-374v69h374v-69z" />
    <glyph glyph-name="emdash" unicode="&#x2014;" horiz-adv-x="720" 
d="M679 229h-638v69h638v-69z" />
    <glyph glyph-name="quoteleft" unicode="&#x2018;" horiz-adv-x="179" 
d="M103 445h-99l131 252h63z" />
    <glyph glyph-name="quoteright" unicode="&#x2019;" horiz-adv-x="187" 
d="M59 445h-63l95 252h99z" />
    <glyph glyph-name="quotesinglbase" unicode="&#x201a;" horiz-adv-x="187" 
d="M27 -128h-63l90 239h99z" />
    <glyph glyph-name="quotedblleft" unicode="&#x201c;" horiz-adv-x="345" 
d="M269 445h-99l131 252h63zM103 445h-99l131 252h63z" />
    <glyph glyph-name="quotedblright" unicode="&#x201d;" horiz-adv-x="353" 
d="M225 445h-63l95 252h99zM59 445h-63l95 252h99z" />
    <glyph glyph-name="quotedblbase" unicode="&#x201e;" horiz-adv-x="341" 
d="M193 -128h-63l90 239h99zM27 -128h-63l90 239h99z" />
    <glyph glyph-name="dagger" unicode="&#x2020;" horiz-adv-x="288" 
d="M179 301h-70l5 239l-81 -3v65l79 -3l-3 98h70l-3 -98l79 3v-65l-81 3z" />
    <glyph glyph-name="daggerdbl" unicode="&#x2021;" horiz-adv-x="288" 
d="M179 301h-70l3 98l-79 -3v65l81 -3v82l-81 -3v65l79 -3l-3 98h70l-3 -98l79 3v-65l-81 3v-82l81 3v-65l-79 3z" />
    <glyph glyph-name="bullet" unicode="&#x2022;" horiz-adv-x="262" 
d="M188 195q-24 -23 -57 -23t-58 23q-24 24 -24 59t24 58q25 24 58 24t57 -24q25 -23 25 -58t-25 -59z" />
    <glyph glyph-name="ellipsis" unicode="&#x2026;" horiz-adv-x="544" 
d="M415 7q-15 15 -15 36t15 35q15 15 35 15t35 -15q15 -14 15 -35t-15 -36q-15 -14 -35 -14t-35 14zM237 7q-15 15 -15 36t15 35q15 15 35 15t35 -15q15 -14 15 -35t-15 -36q-15 -14 -35 -14t-35 14zM59 7q-15 15 -15 36t15 35q15 15 35 15t35 -15q15 -14 15 -35t-15 -36
q-15 -14 -35 -14t-35 14z" />
    <glyph glyph-name="perthousand" unicode="&#x2030;" horiz-adv-x="1113" 
d="M302 446q-46 -46 -110 -46t-110 46t-46 110t46 110t110 46t110 -46t46 -110t-46 -110zM181 0h-77l451 697h77zM192 461q37 0 63.5 27.5t26.5 67.5q0 39 -26.5 67t-63.5 28t-63.5 -28t-26.5 -67q0 -40 26 -67.5t64 -27.5zM810 30q-45 46 -45 111t45 110q46 46 111 46
t110 -46q46 -45 46 -110t-46 -111q-45 -45 -110 -45t-111 45zM430 30q-45 46 -45 111t45 110q46 46 111 46t110 -46q46 -45 46 -110t-46 -111q-45 -45 -110 -45t-111 45zM831 141q0 -40 26 -67.5t64 -27.5q37 0 63.5 27.5t26.5 67.5q0 39 -26.5 67t-63.5 28t-63.5 -28
t-26.5 -67zM451 141q0 -40 26 -67.5t64 -27.5q37 0 63.5 27.5t26.5 67.5q0 39 -26.5 67t-63.5 28t-63.5 -28t-26.5 -67z" />
    <glyph glyph-name="guilsinglleft" unicode="&#x2039;" horiz-adv-x="258" 
d="M223 78h-78l-110 175l110 175h78l-110 -175z" />
    <glyph glyph-name="guilsinglright" unicode="&#x203a;" horiz-adv-x="258" 
d="M113 78h-78l110 175l-110 175h78l110 -175z" />
    <glyph glyph-name="fraction" unicode="&#x2044;" horiz-adv-x="486" 
d="M56 0h-77l451 697h77z" />
    <glyph glyph-name="zerosuperior" unicode="&#x2070;" horiz-adv-x="359" 
d="M179 320q-47 0 -84 34q-36 34 -42 83q-2 20 -2 76t2 76q6 47 42 82q37 34 84 34q49 0 87 -33q36 -32 41 -83q1 -11 1 -76t-1 -76q-5 -51 -41 -84q-38 -33 -87 -33zM179 375q29 0 50 19t23 47q2 18 2 72q0 52 -2 72q-2 28 -23 47t-50 19q-27 0 -47 -19t-25 -47
q-1 -9 -1 -72t1 -72q5 -28 25 -47t47 -19z" />
    <glyph glyph-name="foursuperior" unicode="&#x2074;" horiz-adv-x="349" 
d="M291 328h-57v73h-204v39l128 257h59l-121 -242h138v74h57v-201z" />
    <glyph glyph-name="fivesuperior" unicode="&#x2075;" horiz-adv-x="332" 
d="M152 320q-41 0 -74.5 22.5t-54.5 62.5l50 24q12 -25 33.5 -39.5t45.5 -14.5q33 0 56.5 23.5t23.5 55.5q0 34 -24.5 56t-60.5 22q-31 0 -51 -17l-41 13l30 169h180v-53h-131l-12 -64q12 6 34 6q54 0 92 -39q39 -39 39 -93q0 -56 -40 -95q-39 -39 -95 -39z" />
    <glyph glyph-name="sixsuperior" unicode="&#x2076;" horiz-adv-x="353" 
d="M45 453q0 18 6 37q7 21 39 70l92 137h68l-82 -117q4 1 16 1q48 0 86 -38t38 -90q0 -56 -39 -95q-38 -38 -92 -38t-93 39t-39 94zM177 375q31 0 53.5 22.5t22.5 53.5t-22.5 53.5t-53.5 22.5q-32 0 -53 -21.5t-21 -54.5t21 -54.5t53 -21.5z" />
    <glyph glyph-name="sevensuperior" unicode="&#x2077;" horiz-adv-x="341" 
d="M146 328h-63l157 316h-189v53h265v-26z" />
    <glyph glyph-name="eightsuperior" unicode="&#x2078;" horiz-adv-x="356" 
d="M179 320q-53 0 -91 36q-37 36 -37 87q0 34 18 61.5t44 37.5q-35 23 -35 64t29.5 70t71.5 29q41 0 70 -29t29 -70t-35 -64q26 -10 44 -37.5t18 -61.5q0 -50 -37 -87q-38 -36 -89 -36zM179 557q18 0 30.5 14t12.5 34q0 18 -12.5 32t-30.5 14t-31.5 -14t-13.5 -32
q0 -20 13 -34t32 -14zM179 375q28 0 48.5 20t20.5 48t-20.5 48t-48.5 20q-29 0 -50 -20t-21 -48t21 -48t50 -20z" />
    <glyph glyph-name="ninesuperior" unicode="&#x2079;" horiz-adv-x="358" 
d="M170 328h-67l89 126q-10 -2 -19 -2q-47 0 -85 35q-37 36 -37 88q0 55 37 92q38 38 91 38t90 -37q38 -38 38 -91q0 -45 -49 -118zM179 503q33 0 53.5 20.5t20.5 53.5q0 30 -21.5 52t-52.5 22q-30 0 -51.5 -22t-21.5 -52q0 -31 21 -52.5t52 -21.5z" />
    <glyph glyph-name="zero.inferior" unicode="&#x2080;" horiz-adv-x="359" 
d="M53 109q-2 20 -2 76t2 76q6 47 42 82q37 34 84 34q49 0 87 -33q36 -32 41 -83q1 -11 1 -76t-1 -76q-5 -51 -41 -84q-38 -33 -87 -33q-47 0 -84 34q-36 34 -42 83zM107 113q5 -28 25 -47t47 -19q29 0 50 19t23 47q2 18 2 72q0 52 -2 72q-2 28 -23 47t-50 19q-27 0 -47 -19
t-25 -47q-1 -9 -1 -72t1 -72z" />
    <glyph glyph-name="one.inferior" unicode="&#x2081;" horiz-adv-x="222" 
d="M145 0h-57v316h-48v53h105v-369z" />
    <glyph glyph-name="two.inferior" unicode="&#x2082;" horiz-adv-x="325" 
d="M287 0h-243v40l153 177q24 29 24 52q0 22 -16 38t-38 16t-38 -18.5t-16 -44.5h-56q0 49 32 83t78 34t78.5 -31.5t32.5 -76.5q0 -46 -34 -86l-116 -129h159v-54z" />
    <glyph glyph-name="three.inferior" unicode="&#x2083;" horiz-adv-x="346" 
d="M26 83l50 19q21 -55 88 -55q37 0 60.5 20.5t23.5 52.5q0 33 -24.5 54.5t-63.5 21.5q-34 0 -52 -8l-20 26l106 102h-133v53h224v-33l-101 -93q20 0 40 -6q35 -13 57 -45t22 -72q0 -56 -39.5 -92t-99.5 -36q-48 0 -85.5 24.5t-52.5 66.5z" />
    <glyph glyph-name="four.inferior" unicode="&#x2084;" horiz-adv-x="349" 
d="M234 73h-204v39l128 257h59l-121 -242h138v74h57v-201h-57v73z" />
    <glyph glyph-name="five.inferior" unicode="&#x2085;" horiz-adv-x="332" 
d="M23 77l50 24q12 -25 33.5 -39.5t45.5 -14.5q33 0 56.5 23.5t23.5 55.5q0 34 -24.5 56t-60.5 22q-31 0 -51 -17l-41 13l30 169h180v-53h-131l-12 -64q12 6 34 6q54 0 92 -39q39 -39 39 -93q0 -56 -40 -95q-39 -39 -95 -39q-41 0 -74.5 22.5t-54.5 62.5z" />
    <glyph glyph-name="six.inferior" unicode="&#x2086;" horiz-adv-x="353" 
d="M45 125q0 17 6 37q7 21 39 70l92 137h68l-82 -117q4 1 16 1q48 0 86 -38t38 -90q0 -56 -39 -95q-38 -38 -92 -38t-93 39t-39 94zM177 47q31 0 53.5 22.5t22.5 53.5t-22.5 53.5t-53.5 22.5q-32 0 -53 -21.5t-21 -54.5t21 -54.5t53 -21.5z" />
    <glyph glyph-name="seven.inferior" unicode="&#x2087;" horiz-adv-x="341" 
d="M146 0h-63l157 316h-189v53h265v-26z" />
    <glyph glyph-name="eight.inferior" unicode="&#x2088;" horiz-adv-x="356" 
d="M51 115q0 34 18 61.5t44 37.5q-35 23 -35 64t29.5 70t71.5 29q41 0 70 -29t29 -70t-35 -64q26 -10 44 -37.5t18 -61.5q0 -50 -37 -87q-38 -36 -89 -36q-53 0 -91 36q-37 36 -37 87zM179 229q18 0 30.5 14t12.5 34q0 18 -12.5 32t-30.5 14t-31.5 -14t-13.5 -32
q0 -20 13 -34t32 -14zM179 47q28 0 48.5 20t20.5 48t-20.5 48t-48.5 20q-29 0 -50 -20t-21 -48t21 -48t50 -20z" />
    <glyph glyph-name="nine.inferior" unicode="&#x2089;" horiz-adv-x="346" 
d="M164 0h-67l89 126q-10 -2 -19 -2q-47 0 -85 35q-37 36 -37 88q0 55 37 92q38 38 91 38t90 -37q38 -38 38 -91q0 -45 -49 -118zM173 175q33 0 53.5 20.5t20.5 53.5q0 30 -21.5 52t-52.5 22q-30 0 -51.5 -22t-21.5 -52q0 -31 21 -52.5t52 -21.5z" />
    <glyph glyph-name="Euro" unicode="&#x20ac;" horiz-adv-x="745" 
d="M131 240h-123l30 69h81q-2 34 -2 39q0 24 3 47h-91l30 69h74q33 110 119 178q88 68 198 68q147 0 244 -106l-55 -49q-74 83 -189 83q-81 0 -144.5 -47.5t-91.5 -126.5h272l-30 -69h-258q-3 -22 -3 -47q0 -5 2 -39h225l-30 -69h-181q27 -84 91 -133t148 -49q124 0 197 87
l56 -50q-100 -109 -253 -109q-112 0 -200 70q-87 70 -119 184z" />
    <glyph glyph-name="uni2113" unicode="&#x2113;" horiz-adv-x="470" 
d="M30 118l-26 50l81 59v265q0 109 42 164.5t116 55.5q61 0 97 -42t36 -112q0 -90 -53 -177t-162 -182v-10q1 -136 106 -136q78 0 134 95l43 -42q-67 -121 -198 -121q-73 0 -116 48t-43 124q-29 -21 -57 -39zM159 509v-227q144 144 144 274q0 87 -65 87q-35 0 -57 -34.5
t-22 -99.5z" />
    <glyph glyph-name="uni2116" unicode="&#x2116;" horiz-adv-x="1174" 
d="M170 0h-78v697h68l379 -549v549h78v-697h-63l-384 555v-555zM784 342q-58 57 -58 140t58 140t140 57q81 0 140 -57q58 -57 58 -140t-58 -140q-59 -57 -140 -57q-82 0 -140 57zM836 572q-36 -38 -36 -90q0 -54 36 -91t88 -37t88 37t36 91q0 52 -36 90t-88 38t-88 -38z
M1114 145h-375v69h375v-69z" />
    <glyph glyph-name="trademark" unicode="&#x2122;" horiz-adv-x="842" 
d="M454 326h-75v372h7l195 -199l195 199h7v-372h-75v204l-127 -140l-127 140v-204zM215 326h-75v299h-118v72h311v-72h-118v-299z" />
    <glyph glyph-name="Omega" unicode="&#x2126;" horiz-adv-x="780" 
d="M343 0h-282v72h113q-61 51 -94 125t-33 161q0 151 100 251q101 101 243 101t243 -101q100 -100 100 -251q0 -87 -33 -161t-94 -125h113v-72h-282q219 140 219 343q0 127 -76 210q-76 85 -190 85t-190 -85q-76 -83 -76 -210q0 -203 219 -343z" />
    <glyph glyph-name="estimated" unicode="&#x212e;" horiz-adv-x="909" 
d="M200 359v-257q110 -93 255 -93q86 0 162 33.5t128 93.5h30q-57 -69 -141.5 -108.5t-179.5 -39.5q-171 0 -290 112q-120 112 -120 270t120 270q119 112 290 112t290 -112q121 -112 121 -270v-11h-665zM200 637v-257h508v259q-109 91 -253 91q-145 0 -255 -93z" />
    <glyph glyph-name="onethird" unicode="&#x2153;" horiz-adv-x="745" 
d="M152 0h-74l390 697h74zM165 328h-57v316h-48v53h105v-369zM414 83l50 19q21 -55 88 -55q37 0 60.5 20.5t23.5 52.5q0 33 -24.5 54.5t-63.5 21.5q-34 0 -52 -8l-20 26l106 102h-133v53h224v-33l-101 -93q20 0 40 -6q35 -13 57 -45t22 -72q0 -56 -39.5 -92t-99.5 -36
q-48 0 -85.5 24.5t-52.5 66.5z" />
    <glyph glyph-name="twothirds" unicode="&#x2154;" horiz-adv-x="808" 
d="M250 0h-74l390 697h74zM307 328h-243v40l153 177q24 29 24 52q0 22 -16 38t-38 16t-38 -18.5t-16 -44.5h-56q0 49 32 83t78 34t78.5 -31.5t32.5 -76.5q0 -46 -34 -86l-116 -129h159v-54zM477 83l50 19q21 -55 88 -55q37 0 60.5 20.5t23.5 52.5q0 33 -24.5 54.5
t-63.5 21.5q-34 0 -52 -8l-20 26l106 102h-133v53h224v-33l-101 -93q21 0 40 -6q35 -13 57 -45t22 -72q0 -56 -39.5 -92t-99.5 -36q-48 0 -85.5 24.5t-52.5 66.5z" />
    <glyph glyph-name="arrowleft" unicode="&#x2190;" horiz-adv-x="627" 
d="M303 79l-50 -50l-232 231l232 231l50 -50l-145 -145h442v-72h-443z" />
    <glyph glyph-name="arrowup" unicode="&#x2191;" horiz-adv-x="647" 
d="M361 0h-76v424l-130 -131l-50 50l218 219l218 -219l-50 -50l-130 131v-424z" />
    <glyph glyph-name="arrowright" unicode="&#x2192;" horiz-adv-x="627" 
d="M469 224h-443v72h442l-145 145l50 50l232 -231l-232 -231l-50 50z" />
    <glyph glyph-name="arrowdown" unicode="&#x2193;" horiz-adv-x="647" 
d="M323 -42l-218 219l50 50l130 -131v408h76v-408l130 131l50 -50z" />
    <glyph glyph-name="arrowboth" unicode="&#x2194;" horiz-adv-x="895" 
d="M303 79l-50 -50l-232 231l232 231l50 -50l-145 -145h578l-145 145l50 50l232 -231l-232 -231l-50 50l146 145h-580z" />
    <glyph glyph-name="arrowupdn" unicode="&#x2195;" horiz-adv-x="647" 
d="M323 -74l-197 198l50 50l109 -110v418l-109 -110l-50 50l197 198l197 -198l-50 -50l-109 110v-418l109 110l50 -50z" />
    <glyph glyph-name="arrownorthwest" unicode="&#x2196;" horiz-adv-x="647" 
d="M195 137h-76v328h328v-74h-204l308 -307l-51 -51l-305 305v-201z" />
    <glyph glyph-name="arrownortheast" unicode="&#x2197;" horiz-adv-x="647" 
d="M147 33l-51 51l308 307h-204v74h328v-328h-76v201z" />
    <glyph glyph-name="arrowsoutheast" unicode="&#x2198;" horiz-adv-x="647" 
d="M528 48h-328v74h204l-308 307l51 51l305 -305v201h76v-328z" />
    <glyph glyph-name="arrowsouthwest" unicode="&#x2199;" horiz-adv-x="647" 
d="M447 48h-328v328h76v-201l305 305l51 -51l-308 -307h204v-74z" />
    <glyph glyph-name="partialdiff" unicode="&#x2202;" horiz-adv-x="507" 
d="M250 442q43 0 81 -19t58 -54v1q0 91 -29 172q-16 46 -50 73t-80 27q-62 0 -97 -44l-53 47q64 67 150 67q129 0 188 -122q42 -86 42 -210q0 -216 -75 -311q-65 -84 -159 -84q-89 0 -140 65q-50 65 -50 158t61 163q62 71 153 71zM110 195q0 -60 31 -99.5t85 -39.5
q39 0 73 25.5t53 68.5q18 40 18 90q0 58 -33.5 96t-86.5 38q-54 0 -97 -49t-43 -130z" />
    <glyph glyph-name="increment" unicode="&#x2206;" horiz-adv-x="624" 
d="M581 0h-538v47l241 650h55l242 -650v-47zM312 564l-182 -492h364z" />
    <glyph glyph-name="product" unicode="&#x220f;" horiz-adv-x="655" 
d="M208 0h-74v628h-103v69h593v-69h-103v-628h-74v628h-239v-628z" />
    <glyph glyph-name="summation" unicode="&#x2211;" horiz-adv-x="572" 
d="M520 0h-457v53l228 317l-212 274v53h430v-72h-338l204 -264l-211 -289h356v-72z" />
    <glyph glyph-name="minus" unicode="&#x2212;" horiz-adv-x="384" 
d="M342 313h-300v69h300v-69z" />
    <glyph glyph-name="radical" unicode="&#x221a;" horiz-adv-x="712" 
d="M148 346l-91 -38l-22 52l152 64l171 -400l247 776h72l-286 -887h-58z" />
    <glyph glyph-name="infinity" unicode="&#x221e;" horiz-adv-x="790" 
d="M208 174q-71 0 -115 43q-45 43 -45 110q0 63 48 110q50 47 121 47q36 0 70 -18q35 -18 54 -36q19 -16 51 -51q98 105 190 105q69 0 115 -44q45 -44 45 -113q0 -62 -49 -108q-49 -45 -121 -45q-35 0 -68 16q-29 14 -52 34q-19 18 -52 52q-98 -102 -192 -102zM445 325
q77 -81 129 -81q38 0 64 24.5t26 58.5q0 39 -24.5 63.5t-63.5 24.5q-24 0 -49 -16q-28 -18 -41 -31q-13 -12 -41 -43zM215 244q24 0 49 15q36 20 87 71q-79 85 -134 85q-39 0 -65 -25.5t-26 -62.5q0 -36 25 -59.5t64 -23.5z" />
    <glyph glyph-name="integral" unicode="&#x222b;" horiz-adv-x="316" 
d="M20 -93v63q30 -13 62 -3.5t38 44.5q11 43 11 125q0 55 -7 194q-6 148 -6 223q0 236 141 236q21 0 37 -4v-63q-13 5 -31 5q-46 0 -60 -57q-12 -49 -12 -123q0 -73 7 -220t7 -204q0 -120 -33.5 -172.5t-103.5 -52.5q-25 0 -50 9z" />
    <glyph glyph-name="approxequal" unicode="&#x2248;" horiz-adv-x="424" 
d="M77 374l-49 4q5 41 32.5 66.5t67.5 25.5q34 0 85 -20q48 -19 72 -19q42 0 56 41l49 -4q-14 -98 -102 -98q-39 0 -87 19q-49 20 -71 20q-42 0 -53 -35zM83 239l-49 4q5 41 32.5 66.5t67.5 25.5q34 0 85 -20q48 -19 72 -19q42 0 56 41l49 -4q-14 -98 -102 -98q-39 0 -87 19
q-49 20 -71 20q-42 0 -53 -35z" />
    <glyph glyph-name="notequal" unicode="&#x2260;" horiz-adv-x="426" 
d="M113 124l-49 29l50 85h-72v69h112l56 95h-168v69h209l63 107l49 -29l-46 -78h67v-69h-108l-56 -95h164v-69h-204z" />
    <glyph glyph-name="lessequal" unicode="&#x2264;" horiz-adv-x="414" 
d="M362 134l-318 195v54l318 196v-78l-239 -145l239 -144v-78zM362 0h-342v69h342v-69z" />
    <glyph glyph-name="greaterequal" unicode="&#x2265;" horiz-adv-x="414" 
d="M370 329l-318 -195v78l239 144l-239 145v78l318 -196v-54zM394 0h-342v69h342v-69z" />
    <glyph glyph-name="triagup" unicode="&#x25b2;" horiz-adv-x="539" 
d="M454 132h-369l179 315z" />
    <glyph glyph-name="triagrt" unicode="&#x25ba;" horiz-adv-x="539" 
d="M451 264l-315 -190v369z" />
    <glyph glyph-name="triagdn" unicode="&#x25bc;" horiz-adv-x="539" 
d="M454 387l-190 -315l-179 315h369z" />
    <glyph glyph-name="triaglf" unicode="&#x25c4;" horiz-adv-x="539" 
d="M403 74l-315 190l315 179v-369z" />
    <glyph glyph-name="lozenge" unicode="&#x25ca;" horiz-adv-x="534" 
d="M282 0h-30l-217 349l217 348h30l217 -348zM118 349l149 -244l149 244l-149 242z" />
    <glyph glyph-name="uni25E2" unicode="&#x25e2;" horiz-adv-x="539" 
d="M433 100l-357 88l261 261z" />
    <glyph glyph-name="uni25E3" unicode="&#x25e3;" horiz-adv-x="539" 
d="M463 188l-357 -88l96 349z" />
    <glyph glyph-name="uni25E4" unicode="&#x25e4;" horiz-adv-x="539" 
d="M463 330l-261 -261l-96 349z" />
    <glyph glyph-name="uni25E5" unicode="&#x25e5;" horiz-adv-x="539" 
d="M345 61l-261 261l349 96z" />
    <glyph glyph-name="fi" unicode="&#xfb01;" horiz-adv-x="500" 
d="M186 0h-74v435h-81v69h81v42q0 97 49 137q41 29 123 29q32 0 49 -4v-70q-25 5 -57 5q-48 0 -69 -20t-21 -67v-52h234v-396q0 -28 8.5 -40.5t29.5 -12.5q8 0 26 2v-61q-19 -8 -47 -8q-91 0 -91 107v340h-160v-435z" />
    <glyph glyph-name="fl" unicode="&#xfb02;" horiz-adv-x="578" 
d="M186 0h-74v435h-81v69h81v42q0 97 49 137q34 29 103 29q24 0 39 -4v-70q-22 5 -47 5q-37 0 -53.5 -20t-16.5 -67v-52h95v-69h-95v-435zM371 127v570h74v-565q0 -42 14 -60t49 -18q22 0 36 2v-63q-14 -8 -46 -8q-44 0 -82 22q-45 27 -45 120z" />
    <glyph glyph-name="ffi" unicode="&#xfb03;" horiz-adv-x="734" 
d="M186 0h-74v435h-81v69h81v42q0 105 51 138q43 28 101 28q24 0 39 -4v-70q-22 5 -47 5q-37 0 -53.5 -20t-16.5 -67v-52h160v42q0 97 49 137q41 29 123 29q32 0 49 -4v-70q-25 5 -57 5q-48 0 -69 -20t-21 -67v-52h234v-396q0 -28 8.5 -40.5t29.5 -12.5q8 0 26 2v-61
q-19 -8 -47 -8q-91 0 -91 107v340h-160v-435h-74v435h-160v-435z" />
    <glyph glyph-name="ffl" unicode="&#xfb04;" horiz-adv-x="802" 
d="M186 0h-74v435h-81v69h81v42q0 105 51 138q43 28 101 28q24 0 39 -4v-70q-22 5 -47 5q-37 0 -53.5 -20t-16.5 -67v-52h160v42q0 105 51 138q43 28 101 28q24 0 39 -4v-70q-22 5 -47 5q-37 0 -53.5 -20t-16.5 -67v-52h95v-69h-95v-435h-74v435h-160v-435zM595 127v570h74
v-565q0 -42 14 -60t49 -18q22 0 36 2v-63q-14 -8 -46 -8q-44 0 -82 22q-45 27 -45 120z" />
    <glyph glyph-name="NULL" horiz-adv-x="0" 
 />
    <glyph glyph-name="CR" horiz-adv-x="333" 
 />
    <glyph glyph-name="CR.001" horiz-adv-x="0" 
 />
    <glyph glyph-name="space.frac" horiz-adv-x="30" 
 />
    <glyph glyph-name="a.alt" horiz-adv-x="599" 
d="M290 519q128 0 179 -90v75h74v-504h-74v75q-51 -90 -179 -90q-108 0 -181 76q-74 77 -74 191q0 113 74 190t181 77zM290 54q81 0 134 56q54 57 54 142q0 86 -54 141q-52 57 -134 57q-78 0 -130 -57q-51 -55 -51 -141q0 -85 51 -142q53 -56 130 -56z" />
    <glyph glyph-name="d.alt" horiz-adv-x="600" 
d="M290 519q128 0 179 -90v268h74v-697h-74v75q-51 -90 -179 -90q-108 0 -181 76q-74 77 -74 191q0 113 74 190t181 77zM290 54q81 0 134 56q54 57 54 142q0 86 -54 141q-52 57 -134 57q-78 0 -130 -57q-51 -55 -51 -141q0 -85 51 -142q53 -56 130 -56z" />
    <glyph glyph-name="h.alt" horiz-adv-x="524" 
d="M131 0h-74v697h74v-278q21 43 61 68t94 25q83 0 132 -51.5t49 -138.5v-322h-74v306q0 63 -33.5 100t-91.5 37q-60 0 -98.5 -39.5t-38.5 -102.5v-301z" />
    <glyph glyph-name="i.alt" horiz-adv-x="190" 
d="M130 602q-15 -14 -35 -14t-35 14q-15 15 -15 36t15 35q15 15 35 15t35 -15q15 -14 15 -35t-15 -36zM132 0h-74v504h74v-504z" />
    <glyph glyph-name="l.alt" horiz-adv-x="190" 
d="M132 0h-74v697h74v-697z" />
    <glyph glyph-name="m.alt" horiz-adv-x="802" 
d="M131 0h-74v504h74v-85q18 43 55 68t87 25q108 0 148 -100q46 100 161 100q77 0 122.5 -51.5t45.5 -138.5v-322h-74v306q0 63 -30 100t-84 37t-89 -39.5t-35 -102.5v-301h-74v306q0 64 -29.5 100.5t-82.5 36.5q-52 0 -86.5 -40t-34.5 -102v-301z" />
    <glyph glyph-name="n.alt" horiz-adv-x="532" 
d="M131 0h-74v504h74v-85q21 43 63.5 68t98.5 25q86 0 136.5 -51.5t50.5 -138.5v-322h-74v306q0 63 -35.5 100t-96.5 37q-63 0 -103 -39.5t-40 -102.5v-301z" />
    <glyph glyph-name="r.alt" horiz-adv-x="344" 
d="M131 0h-74v363q0 156 174 156q38 0 67 -7v-70q-30 8 -68 8q-42 0 -68 -15q-31 -18 -31 -83v-352z" />
    <glyph glyph-name="t.alt" horiz-adv-x="308" 
d="M168 0h-74v435h-64v69h64v193h74v-193h112v-69h-112v-435z" />
    <glyph glyph-name="u.alt" horiz-adv-x="525" 
d="M51 195v309h74v-302q0 -70 36 -107.5t101 -37.5t101.5 38t36.5 108v301h74v-302q0 -100 -58.5 -157t-156.5 -57q-95 0 -151.5 55t-56.5 152z" />
    <glyph glyph-name="y.alt" horiz-adv-x="520" 
d="M135 -193l81 190l-201 507h75l165 -418l174 418h76l-296 -697h-74z" />
    <glyph glyph-name="agrave.alt" horiz-adv-x="599" 
d="M290 519q128 0 179 -90v75h74v-504h-74v75q-51 -90 -179 -90q-108 0 -181 76q-74 77 -74 191q0 113 74 190t181 77zM290 54q81 0 134 56q54 57 54 142q0 86 -54 141q-52 57 -134 57q-78 0 -130 -57q-51 -55 -51 -141q0 -85 51 -142q53 -56 130 -56zM325 552h-59l-93 145
h99z" />
    <glyph glyph-name="aacute.alt" horiz-adv-x="599" 
d="M290 519q128 0 179 -90v75h74v-504h-74v75q-51 -90 -179 -90q-108 0 -181 76q-74 77 -74 191q0 113 74 190t181 77zM290 54q81 0 134 56q54 57 54 142q0 86 -54 141q-52 57 -134 57q-78 0 -130 -57q-51 -55 -51 -141q0 -85 51 -142q53 -56 130 -56zM320 552h-59l53 145
h99z" />
    <glyph glyph-name="acircumflex.alt" horiz-adv-x="599" 
d="M241 576h-91l126 121h62l126 -121h-91l-66 66zM290 519q128 0 179 -90v75h74v-504h-74v75q-51 -90 -179 -90q-108 0 -181 76q-74 77 -74 191q0 113 74 190t181 77zM290 54q81 0 134 56q54 57 54 142q0 86 -54 141q-52 57 -134 57q-78 0 -130 -57q-51 -55 -51 -141
q0 -85 51 -142q53 -56 130 -56z" />
    <glyph glyph-name="atilde.alt" horiz-adv-x="599" 
d="M290 519q128 0 179 -90v75h74v-504h-74v75q-51 -90 -179 -90q-108 0 -181 76q-74 77 -74 191q0 113 74 190t181 77zM290 54q81 0 134 56q54 57 54 142q0 86 -54 141q-52 57 -134 57q-78 0 -130 -57q-51 -55 -51 -141q0 -85 51 -142q53 -56 130 -56zM202 594l-49 4
q5 41 29.5 66.5t60.5 25.5q26 0 63 -20q37 -19 54 -19q35 0 46 41l49 -4q-11 -98 -92 -98q-28 0 -65 19q-37 20 -53 20q-35 0 -43 -35z" />
    <glyph glyph-name="adieresis.alt" horiz-adv-x="599" 
d="M440 600q-15 -14 -35 -14t-35 14q-15 15 -15 36t15 35q15 15 35 15t35 -15q15 -14 15 -35t-15 -36zM234 600q-15 -14 -35 -14t-35 14q-15 15 -15 36t15 35q15 15 35 15t35 -15q15 -14 15 -35t-15 -36zM290 519q128 0 179 -90v75h74v-504h-74v75q-51 -90 -179 -90
q-108 0 -181 76q-74 77 -74 191q0 113 74 190t181 77zM290 54q81 0 134 56q54 57 54 142q0 86 -54 141q-52 57 -134 57q-78 0 -130 -57q-51 -55 -51 -141q0 -85 51 -142q53 -56 130 -56z" />
    <glyph glyph-name="amacron.alt" horiz-adv-x="599" 
d="M290 519q128 0 179 -90v75h74v-504h-74v75q-51 -90 -179 -90q-108 0 -181 76q-74 77 -74 191q0 113 74 190t181 77zM290 54q81 0 134 56q54 57 54 142q0 86 -54 141q-52 57 -134 57q-78 0 -130 -57q-51 -55 -51 -141q0 -85 51 -142q53 -56 130 -56zM454 601h-294v69h294
v-69z" />
    <glyph glyph-name="abreve.alt" horiz-adv-x="599" 
d="M290 519q128 0 179 -90v75h74v-504h-74v75q-51 -90 -179 -90q-108 0 -181 76q-74 77 -74 191q0 113 74 190t181 77zM290 54q81 0 134 56q54 57 54 142q0 86 -54 141q-52 57 -134 57q-78 0 -130 -57q-51 -55 -51 -141q0 -85 51 -142q53 -56 130 -56zM135 697h69
q22 -73 87 -73t87 73h69q-8 -62 -51.5 -100.5t-104.5 -38.5t-104.5 38.5t-51.5 100.5z" />
    <glyph glyph-name="aring.alt" horiz-adv-x="599" 
d="M305 556q-31 -2 -55.5 16.5t-35 44.5t-6 56t27.5 49q20 23 50 27.5t56 -6t44 -35t16 -54.5q0 -41 -28.5 -69.5t-68.5 -28.5zM272 621q14 -14 33 -14t32 14q14 14 14 33t-14 32q-13 14 -32 14t-33 -14q-14 -13 -14 -32t14 -33zM290 519q128 0 179 -90v75h74v-504h-74v75
q-51 -90 -179 -90q-108 0 -181 76q-74 77 -74 191q0 113 74 190t181 77zM290 54q81 0 134 56q54 57 54 142q0 86 -54 141q-52 57 -134 57q-78 0 -130 -57q-51 -55 -51 -141q0 -85 51 -142q53 -56 130 -56z" />
    <glyph glyph-name="aringacute.alt" horiz-adv-x="599" 
d="M327 788h-59l53 145h99zM397 654q0 -41 -28.5 -69.5t-68.5 -28.5t-69 29t-29 69t29 68.5t69 28.5t68.5 -28.5t28.5 -68.5zM267 621q14 -14 33 -14t32 14q14 14 14 33t-14 32q-13 14 -32 14t-33 -14q-14 -13 -14 -32t14 -33zM290 519q128 0 179 -90v75h74v-504h-74v75
q-51 -90 -179 -90q-108 0 -181 76q-74 77 -74 191q0 113 74 190t181 77zM290 54q81 0 134 56q54 57 54 142q0 86 -54 141q-52 57 -134 57q-78 0 -130 -57q-51 -55 -51 -141q0 -85 51 -142q53 -56 130 -56z" />
    <glyph glyph-name="aogonek.alt" horiz-adv-x="599" 
d="M290 519q128 0 179 -90v75h74v-500q-82 -52 -82 -99q0 -21 14 -33t36 -12q31 0 58 15l-13 -59q-30 -14 -57 -14q-42 0 -71.5 25t-29.5 64q0 61 71 106v1v77q-51 -90 -179 -90q-108 0 -181 76q-74 77 -74 191q0 113 74 190t181 77zM290 54q81 0 134 56q54 57 54 142
q0 86 -54 141q-52 57 -134 57q-78 0 -130 -57q-51 -55 -51 -141q0 -85 51 -142q53 -56 130 -56z" />
    <glyph glyph-name="dcaron.alt" horiz-adv-x="777" 
d="M290 519q128 0 179 -90v268h74v-697h-74v75q-51 -90 -179 -90q-108 0 -181 76q-74 77 -74 191q0 113 74 190t181 77zM290 54q81 0 134 56q54 57 54 142q0 86 -54 141q-52 57 -134 57q-78 0 -130 -57q-51 -55 -51 -141q0 -85 51 -142q53 -56 130 -56zM637 552h-59l53 145
h99z" />
    <glyph glyph-name="dcroat.alt" horiz-adv-x="600" 
d="M290 519q128 0 179 -90v146h-198v60h198v62h74v-62h57v-60h-57v-575h-74v75q-51 -90 -179 -90q-108 0 -181 76q-74 77 -74 191q0 113 74 190t181 77zM290 54q81 0 134 56q54 57 54 142q0 86 -54 141q-52 57 -134 57q-78 0 -130 -57q-51 -55 -51 -141q0 -85 51 -142
q53 -56 130 -56z" />
    <glyph glyph-name="hcircumflex.alt" horiz-adv-x="524" 
d="M28 721h-91l126 121h62l126 -121h-91l-66 66zM131 0h-74v697h74v-278q21 43 61 68t94 25q83 0 132 -51.5t49 -138.5v-322h-74v306q0 63 -33.5 100t-91.5 37q-60 0 -98.5 -39.5t-38.5 -102.5v-301z" />
    <glyph glyph-name="hbar.alt" horiz-adv-x="524" 
d="M131 0h-74v573h-57v60h57v64h74v-64h198v-60h-198v-154q21 43 61 68t94 25q83 0 132 -51.5t49 -138.5v-322h-74v306q0 64 -33 100.5t-93 36.5t-98 -39.5t-38 -102.5v-301z" />
    <glyph glyph-name="igrave.alt" horiz-adv-x="190" 
d="M132 0h-74v504h74v-504zM131 552h-59l-93 145h99z" />
    <glyph glyph-name="iacute.alt" horiz-adv-x="190" 
d="M132 0h-74v504h74v-504zM119 552h-59l53 145h99z" />
    <glyph glyph-name="icircumflex.alt" horiz-adv-x="190" 
d="M49 576h-86l101 121h62l101 -121h-86l-46 72zM132 0h-74v504h74v-504z" />
    <glyph glyph-name="itilde.alt" horiz-adv-x="190" 
d="M13 596l-48 4q5 41 25.5 65.5t52.5 24.5q19 0 53 -20q32 -19 43 -19q29 0 37 41l47 -4q-11 -96 -79 -96q-21 0 -53 19q-34 20 -44 20q-28 0 -34 -35zM132 0h-74v504h74v-504z" />
    <glyph glyph-name="idieresis.alt" horiz-adv-x="190" 
d="M202 600q-15 -14 -35 -14t-35 14q-15 15 -15 36t15 35q15 15 35 15t35 -15q15 -14 15 -35t-15 -36zM58 600q-15 -14 -35 -14t-35 14q-15 15 -15 36t15 35q15 15 35 15t35 -15q15 -14 15 -35t-15 -36zM132 0h-74v504h74v-504z" />
    <glyph glyph-name="imacron.alt" horiz-adv-x="190" 
d="M214 601h-238v69h238v-69zM132 0h-74v504h74v-504z" />
    <glyph glyph-name="ibreve.alt" horiz-adv-x="190" 
d="M-33 697h69q5 -67 59 -67t59 67h69q-2 -61 -37 -97t-91 -36t-91 36t-37 97zM132 0h-74v504h74v-504z" />
    <glyph glyph-name="iogonek.alt" horiz-adv-x="190" 
d="M130 600q-15 -14 -35 -14t-35 14q-15 15 -15 36t15 35q15 15 35 15t35 -15q15 -14 15 -35t-15 -36zM58 -5v1v508h74v-503q-78 -49 -78 -96q0 -21 14 -33t36 -12q31 0 58 15l-13 -59q-30 -14 -57 -14q-42 0 -71.5 25t-29.5 64q0 59 67 104z" />
    <glyph glyph-name="dotlessi.alt" horiz-adv-x="190" 
d="M132 0h-74v504h74v-504z" />
    <glyph glyph-name="lacute.alt" horiz-adv-x="190" 
d="M132 0h-74v697h74v-697zM118 722h-59l53 145h99z" />
    <glyph glyph-name="lcaron.alt" horiz-adv-x="304" 
d="M132 0h-74v697h74v-697zM230 552h-59l53 145h99z" />
    <glyph glyph-name="lcommaaccent.alt" horiz-adv-x="190" 
d="M132 0h-74v697h74v-697zM3 -193l53 145h99l-93 -145h-59z" />
    <glyph glyph-name="ldot.alt" horiz-adv-x="314" 
d="M256 332q-15 -14 -35 -14t-35 14q-15 15 -15 36t15 35q15 15 35 15t35 -15q15 -14 15 -35t-15 -36zM132 0h-74v697h74v-697z" />
    <glyph glyph-name="lslash.alt" horiz-adv-x="218" 
d="M146 0h-74v310l-68 -40v77l68 40v310h74v-266l85 51v-77l-85 -51v-354z" />
    <glyph glyph-name="nacute.alt" horiz-adv-x="532" 
d="M131 0h-74v504h74v-85q21 43 63.5 68t98.5 25q86 0 136.5 -51.5t50.5 -138.5v-322h-74v306q0 63 -35.5 100t-96.5 37q-63 0 -103 -39.5t-40 -102.5v-301zM316 552h-59l53 145h99z" />
    <glyph glyph-name="ncaron.alt" horiz-adv-x="532" 
d="M307 576h-62l-126 121h91l66 -66l66 66h91zM131 0h-74v504h74v-85q21 43 63.5 68t98.5 25q86 0 136.5 -51.5t50.5 -138.5v-322h-74v306q0 63 -35.5 100t-96.5 37q-63 0 -103 -39.5t-40 -102.5v-301z" />
    <glyph glyph-name="ntilde.alt" horiz-adv-x="532" 
d="M177 594l-49 4q5 41 29.5 66.5t60.5 25.5q26 0 63 -20q37 -19 54 -19q35 0 46 41l49 -4q-11 -98 -92 -98q-28 0 -65 19q-37 20 -53 20q-35 0 -43 -35zM131 0h-74v504h74v-85q21 43 63.5 68t98.5 25q86 0 136.5 -51.5t50.5 -138.5v-322h-74v306q0 63 -35.5 100t-96.5 37
q-63 0 -103 -39.5t-40 -102.5v-301z" />
    <glyph glyph-name="ncommaaccent.alt" horiz-adv-x="532" 
d="M131 0h-74v504h74v-85q21 43 63.5 68t98.5 25q86 0 136.5 -51.5t50.5 -138.5v-322h-74v306q0 63 -35.5 100t-96.5 37q-63 0 -103 -39.5t-40 -102.5v-301zM173 -193l53 145h99l-93 -145h-59z" />
    <glyph glyph-name="racute.alt" horiz-adv-x="344" 
d="M131 0h-74v363q0 156 174 156q38 0 67 -7v-70q-30 8 -68 8q-42 0 -68 -15q-31 -18 -31 -83v-352zM188 552h-59l53 145h99z" />
    <glyph glyph-name="rcommaaccent.alt" horiz-adv-x="344" 
d="M131 0h-74v363q0 156 174 156q38 0 67 -7v-70q-30 8 -68 8q-42 0 -68 -15q-31 -18 -31 -83v-352zM4 -193l53 145h99l-93 -145h-59z" />
    <glyph glyph-name="rcaron.alt" horiz-adv-x="344" 
d="M222 576h-62l-126 121h91l66 -66l66 66h91zM131 0h-74v363q0 156 174 156q38 0 67 -7v-70q-30 8 -68 8q-42 0 -68 -15q-31 -18 -31 -83v-352z" />
    <glyph glyph-name="tcaron.alt" horiz-adv-x="330" 
d="M272 552h-59l52 145h92zM168 0h-74v435h-64v69h64v193h74v-193h112v-69h-112v-435z" />
    <glyph glyph-name="tcommaaccent.alt" horiz-adv-x="308" 
d="M168 0h-74v435h-64v69h64v193h74v-193h112v-69h-112v-435zM41 -193l53 145h99l-93 -145h-59z" />
    <glyph glyph-name="tbar.alt" horiz-adv-x="308" 
d="M168 0h-74v294h-64v69h64v72h-64v69h64v193h74v-193h112v-69h-112v-72h112v-69h-112v-294z" />
    <glyph glyph-name="ugrave.alt" horiz-adv-x="525" 
d="M51 195v309h74v-302q0 -70 36 -107.5t101 -37.5t101.5 38t36.5 108v301h74v-302q0 -100 -58.5 -157t-156.5 -57q-95 0 -151.5 55t-56.5 152zM296 552h-59l-93 145h99z" />
    <glyph glyph-name="uacute.alt" horiz-adv-x="525" 
d="M51 195v309h74v-302q0 -70 36 -107.5t101 -37.5t101.5 38t36.5 108v301h74v-302q0 -100 -58.5 -157t-156.5 -57q-95 0 -151.5 55t-56.5 152zM287 552h-59l53 145h99z" />
    <glyph glyph-name="ucircumflex.alt" horiz-adv-x="525" 
d="M196 576h-91l126 121h62l126 -121h-91l-66 66zM51 195v309h74v-302q0 -70 36 -107.5t101 -37.5t101.5 38t36.5 108v301h74v-302q0 -100 -58.5 -157t-156.5 -57q-95 0 -151.5 55t-56.5 152z" />
    <glyph glyph-name="utilde.alt" horiz-adv-x="525" 
d="M161 594l-49 4q5 41 29.5 66.5t60.5 25.5q26 0 63 -20q37 -19 54 -19q35 0 46 41l49 -4q-11 -98 -92 -98q-28 0 -65 19q-37 20 -53 20q-35 0 -43 -35zM51 195v309h74v-302q0 -70 36 -107.5t101 -37.5t101.5 38t36.5 108v301h74v-302q0 -100 -58.5 -157t-156.5 -57
q-95 0 -151.5 55t-56.5 152z" />
    <glyph glyph-name="udieresis.alt" horiz-adv-x="525" 
d="M401 600q-15 -14 -35 -14t-35 14q-15 15 -15 36t15 35q15 15 35 15t35 -15q15 -14 15 -35t-15 -36zM195 600q-15 -14 -35 -14t-35 14q-15 15 -15 36t15 35q15 15 35 15t35 -15q15 -14 15 -35t-15 -36zM51 195v309h74v-302q0 -70 36 -107.5t101 -37.5t101.5 38t36.5 108
v301h74v-302q0 -100 -58.5 -157t-156.5 -57q-95 0 -151.5 55t-56.5 152z" />
    <glyph glyph-name="umacron.alt" horiz-adv-x="525" 
d="M51 195v309h74v-302q0 -70 36 -107.5t101 -37.5t101.5 38t36.5 108v301h74v-302q0 -100 -58.5 -157t-156.5 -57q-95 0 -151.5 55t-56.5 152zM410 601h-294v69h294v-69z" />
    <glyph glyph-name="ubreve.alt" horiz-adv-x="525" 
d="M51 195v309h74v-302q0 -70 36 -107.5t101 -37.5t101.5 38t36.5 108v301h74v-302q0 -100 -58.5 -157t-156.5 -57q-95 0 -151.5 55t-56.5 152zM107 697h69q22 -73 87 -73t87 73h69q-8 -62 -51.5 -100.5t-104.5 -38.5t-104.5 38.5t-51.5 100.5z" />
    <glyph glyph-name="uring.alt" horiz-adv-x="525" 
d="M263 517q-41 0 -69.5 28.5t-28.5 69.5q0 40 29 68.5t69 28.5t68.5 -28.5t28.5 -68.5q0 -41 -28.5 -69.5t-68.5 -28.5zM230 582q14 -14 33 -14t32 14q14 14 14 33t-14 32q-13 14 -32 14t-33 -14q-14 -13 -14 -32t14 -33zM51 195v309h74v-302q0 -70 36 -107.5t101 -37.5
t101.5 38t36.5 108v301h74v-302q0 -100 -58.5 -157t-156.5 -57q-95 0 -151.5 55t-56.5 152z" />
    <glyph glyph-name="uhungarumlaut.alt" horiz-adv-x="525" 
d="M51 195v309h74v-302q0 -70 36 -107.5t101 -37.5t101.5 38t36.5 108v301h74v-302q0 -100 -58.5 -157t-156.5 -57q-95 0 -151.5 55t-56.5 152zM362 552h-55l63 145h95zM208 552h-55l63 145h95z" />
    <glyph glyph-name="uogonek.alt" horiz-adv-x="525" 
d="M51 195v309h74v-302q0 -70 36 -107.5t101 -37.5t101.5 38t36.5 108v301h74v-302q0 -126 -115 -202q-76 -51 -76 -95q0 -21 14 -33t36 -12q31 0 58 15l-13 -59q-30 -14 -57 -14q-42 0 -71.5 25t-29.5 64q0 54 59 98q-8 -1 -20 -1q-95 0 -151.5 55t-56.5 152z" />
    <glyph glyph-name="ygrave.alt" horiz-adv-x="516" 
d="M301 552h-59l-93 145h99zM135 -193l81 190l-201 507h75l164 -420l175 420h72l-294 -697h-72z" />
    <glyph glyph-name="yacute.alt" horiz-adv-x="516" 
d="M282 552h-59l53 145h99zM135 -193l81 190l-201 507h75l164 -420l175 420h72l-294 -697h-72z" />
    <glyph glyph-name="ycircumflex.alt" horiz-adv-x="516" 
d="M192 576h-91l126 121h62l126 -121h-91l-66 66zM135 -193l81 190l-201 507h75l164 -420l175 420h72l-294 -697h-72z" />
    <glyph glyph-name="ydieresis.alt" horiz-adv-x="516" 
d="M396 600q-15 -14 -35 -14t-35 14q-15 15 -15 36t15 35q15 15 35 15t35 -15q15 -14 15 -35t-15 -36zM190 600q-15 -14 -35 -14t-35 14q-15 15 -15 36t15 35q15 15 35 15t35 -15q15 -14 15 -35t-15 -36zM135 -193l81 190l-201 507h75l164 -420l175 420h72l-294 -697h-72z
" />
    <glyph glyph-name="fi.alt" horiz-adv-x="478" 
d="M186 0h-74v435h-81v69h81v42q0 97 49 137q41 29 123 29q32 0 49 -4v-70q-25 5 -57 5q-48 0 -69 -20t-21 -67v-52h234v-504h-74v435h-160v-435z" />
    <glyph glyph-name="fl.alt" horiz-adv-x="503" 
d="M186 0h-74v435h-81v69h81v42q0 97 49 137q34 29 103 29q24 0 39 -4v-70q-22 5 -47 5q-37 0 -53.5 -20t-16.5 -67v-52h95v-69h-95v-435zM445 0h-74v697h74v-697z" />
    <glyph glyph-name="ffi.alt" horiz-adv-x="712" 
d="M186 0h-74v435h-81v69h81v42q0 105 51 138q43 28 101 28q24 0 39 -4v-70q-22 5 -47 5q-37 0 -53.5 -20t-16.5 -67v-52h160v42q0 97 49 137q41 29 123 29q32 0 49 -4v-70q-25 5 -57 5q-48 0 -69 -20t-21 -67v-52h234v-504h-74v435h-160v-435h-74v435h-160v-435z" />
    <glyph glyph-name="ffl.alt" horiz-adv-x="727" 
d="M186 0h-74v435h-81v69h81v42q0 105 51 138q43 28 101 28q24 0 39 -4v-70q-22 5 -47 5q-37 0 -53.5 -20t-16.5 -67v-52h160v42q0 105 51 138q43 28 101 28q24 0 39 -4v-70q-22 5 -47 5q-37 0 -53.5 -20t-16.5 -67v-52h95v-69h-95v-435h-74v435h-160v-435zM669 0h-74v697
h74v-697z" />
    <glyph glyph-name="zero.onum" horiz-adv-x="552" 
d="M41 201q-1 9 -1 52q0 42 1 51q11 93 77 153q68 62 158 62t158 -62q67 -61 76 -153q2 -38 2 -51q0 -14 -2 -52q-9 -93 -76 -154t-158 -61t-158 61q-66 60 -77 154zM116 207q6 -63 52 -105t108 -42t108 42t52 105q2 34 2 46q0 11 -2 45q-6 63 -52 105t-108 42t-108 -42
t-52 -105q-2 -18 -2 -45q0 -28 2 -46z" />
    <glyph glyph-name="one.onum" horiz-adv-x="354" 
d="M265 0h-78v404l-112 -80l-43 62l162 118h71v-504z" />
    <glyph glyph-name="two.onum" horiz-adv-x="481" 
d="M456 0h-426v54l275 206q50 38 50 92q0 40 -31 66.5t-78 26.5q-52 0 -88 -37q-36 -36 -36 -87h-74q0 82 58 140t140 58q79 0 131 -49q52 -48 52 -118q0 -92 -75 -148l-180 -132h282v-72z" />
    <glyph glyph-name="three.onum" horiz-adv-x="512" 
d="M15 11l67 31q41 -89 162 -89q70 0 112.5 34t42.5 91q0 59 -43.5 94t-118.5 35q-31 0 -84 -12l-28 50l210 187h-266v72h387v-52l-207 -181q5 1 21 1q86 0 144 -54q59 -54 59 -140q0 -89 -64 -144t-165 -55q-81 0 -141.5 35t-87.5 97z" />
    <glyph glyph-name="four.onum" horiz-adv-x="555" 
d="M407 0h-364v52l223 452h84l-214 -432h271v152h78v-417h-78v193z" />
    <glyph glyph-name="five.onum" horiz-adv-x="520" 
d="M30 12l68 32q44 -90 154 -90q61 0 104 41q43 40 43 102q0 60 -43 100q-42 42 -102 42q-74 0 -127 -45l-55 13l54 297h323v-72h-257l-26 -138q39 19 90 19q100 0 161 -64q62 -65 62 -146q0 -101 -64 -162t-163 -61q-77 0 -134.5 34.5t-87.5 97.5z" />
    <glyph glyph-name="six.onum" horiz-adv-x="530" 
d="M40 209q-4 31 25 102q4 10 20 36l20 34l26 40l27 40l159 236h92l-182 -268q20 5 48 5q86 0 150 -67q64 -65 64 -158q0 -92 -67 -158q-66 -66 -158 -66t-158 66q-66 67 -66 158zM158 315q-44 -44 -44 -106t44 -106t106 -44t106 44q45 44 45 106q0 63 -45 106
q-44 45 -106 45t-106 -45z" />
    <glyph glyph-name="seven.onum" horiz-adv-x="494" 
d="M177 -193h-82l274 625h-338v72h429v-54z" />
    <glyph glyph-name="eight.onum" horiz-adv-x="542" 
d="M38 211q0 69 34 119t90 73q-71 50 -71 129q0 74 53 127t127 53t127 -53t53 -127q0 -79 -71 -129q56 -23 90 -73t34 -119q0 -92 -68 -160q-68 -66 -165 -66t-165 66q-68 68 -68 160zM198 457q30 -31 73 -31t73 31t30 75t-30 75t-73 31t-73 -31t-30 -75t30 -75zM161 318
q-45 -44 -45 -107t45 -108q47 -44 110 -44t109 44q46 45 46 108q0 64 -46 107q-45 45 -109 45q-63 0 -110 -45z" />
    <glyph glyph-name="nine.onum" horiz-adv-x="529" 
d="M212 0h-92l182 268q-20 -5 -48 -5q-86 0 -150 66q-64 67 -64 159t66 158q68 66 159 66t157 -66q67 -66 67 -158q0 -39 -16 -78q-14 -38 -32 -69q-6 -11 -55 -83l-19 -28zM158 381q46 -44 107 -44q62 0 106 44q44 46 44 107q0 62 -44 106t-106 44q-61 0 -107 -44
q-44 -44 -44 -106q0 -61 44 -107z" />
    <glyph glyph-name="zero.tnum" horiz-adv-x="528" 
d="M43 193q-3 35 -3 156t3 155q9 90 72 148q65 60 149 60q85 0 148 -60q64 -58 73 -148q3 -34 3 -155t-3 -156q-9 -90 -73 -149t-148 -59t-149 59q-63 60 -72 149zM117 198q6 -59 48 -100q42 -39 99 -39t99 39q42 41 48 100q3 30 3 151q0 120 -3 150q-6 60 -48 99
q-41 40 -99 40t-99 -40q-42 -39 -48 -99q-3 -30 -3 -150q0 -121 3 -151z" />
    <glyph glyph-name="one.tnum" horiz-adv-x="528" 
d="M381 0h-78v604l-195 -126l-40 64l240 155h73v-697z" />
    <glyph glyph-name="two.tnum" horiz-adv-x="528" 
d="M486 0h-444v51l303 353q46 52 46 111q0 51 -37 87q-36 36 -87 36t-87 -37q-36 -36 -36 -87h-77q0 81 59 140q58 58 142 58q88 0 144 -57q57 -55 57 -141q0 -82 -72 -165l-239 -277h328v-72z" />
    <glyph glyph-name="three.tnum" horiz-adv-x="528" 
d="M22 130l67 31q18 -48 61.5 -75t104.5 -27q69 0 115 44q45 45 45 116q0 70 -48 113.5t-127 43.5q-45 0 -89 -16l-28 50l221 215h-268v72h386v-52l-215 -206q8 2 23 2q92 0 155 -63q64 -63 64 -159q0 -103 -67 -169q-67 -65 -167 -65q-82 0 -144.5 38.5t-88.5 106.5z" />
    <glyph glyph-name="four.tnum" horiz-adv-x="528" 
d="M398 155h-364v52l242 490h84l-233 -470h271v152h78v-379h-78v155z" />
    <glyph glyph-name="five.tnum" horiz-adv-x="528" 
d="M20 127l67 32q20 -46 61.5 -73t91.5 -27q66 0 113 47q46 47 46 119q0 69 -43 118q-44 50 -106 50q-68 0 -118 -38l-55 13l51 329h314v-72h-248l-23 -170q35 12 83 12q102 0 163 -72q62 -71 62 -164q0 -110 -68 -178t-171 -68q-71 0 -130.5 39t-89.5 103z" />
    <glyph glyph-name="six.tnum" horiz-adv-x="530" 
d="M40 213q0 46 23 93l21 42q20 36 32 55l31 51l143 243h87l-163 -277q22 11 61 11q86 0 150 -64q65 -63 65 -153q0 -96 -66 -163q-64 -66 -158 -66q-92 0 -160 66q-66 67 -66 162zM266 59q61 0 105 44q45 45 45 107t-44 106t-106 44q-64 0 -106 -43q-41 -43 -41 -107
t42 -108q43 -43 105 -43z" />
    <glyph glyph-name="seven.tnum" horiz-adv-x="528" 
d="M189 0h-86l308 625h-383v72h476v-54z" />
    <glyph glyph-name="eight.tnum" horiz-adv-x="528" 
d="M38 211q0 69 34 119t90 73q-71 50 -71 129q0 74 51 127t122 53t122 -53t51 -127q0 -79 -71 -129q56 -23 90 -73t34 -119q0 -93 -66 -160q-66 -66 -160 -66t-160 66q-66 67 -66 160zM196 457q28 -31 68 -31t68 31t28 75t-28 75t-68 31t-68 -31t-28 -75t28 -75zM159 318
q-43 -43 -43 -107t43 -108q44 -44 105 -44q60 0 104 44q44 46 44 108q0 63 -44 107q-44 45 -104 45q-62 0 -105 -45z" />
    <glyph glyph-name="nine.tnum" horiz-adv-x="528" 
d="M240 0h-87l163 277q-22 -11 -61 -11q-87 0 -151 63q-64 64 -64 154q0 95 65 162q66 67 159 67t159 -67q67 -66 67 -161q0 -46 -23 -93l-21 -43q-15 -27 -32 -54l-31 -51zM264 337q64 0 105 42q42 43 42 108t-43 108q-42 43 -104 43q-61 0 -106 -45q-44 -44 -44 -106
q0 -60 44 -106q44 -44 106 -44z" />
    <glyph glyph-name="four.alt" horiz-adv-x="565" 
d="M368 124h-341v54l363 519h56v-501h85v-72h-85v-124h-78v124zM368 542l-245 -346h245v346z" />
    <glyph glyph-name="four.onum.alt" horiz-adv-x="527" 
d="M330 0h-308v54l330 450h56v-432h78v-72h-78v-193h-78v193zM330 356l-210 -284h210v284z" />
    <glyph glyph-name="four.tnum.alt" horiz-adv-x="528" 
d="M331 124h-311v54l333 519h56v-501h72v-72h-72v-124h-78v124zM331 534l-218 -338h218v338z" />
    <glyph glyph-name="foursuperior.alt" horiz-adv-x="364" 
d="M218 390h-184v38l191 269h50v-253h44v-54h-44v-62h-57v62zM218 593l-107 -149h107v149z" />
    <glyph glyph-name="four.inferior.alt" horiz-adv-x="364" 
d="M218 62h-184v38l191 269h50v-253h44v-54h-44v-62h-57v62zM218 265l-107 -149h107v149z" />
    <glyph glyph-name="onequarter.alt" horiz-adv-x="674" 
d="M152 0h-74l390 697h74zM165 328h-57v316h-48v53h105v-369zM518 62h-184v38l191 269h50v-253h44v-54h-44v-62h-57v62zM518 265l-107 -149h107v149z" />
    <glyph glyph-name="threequarters.alt" horiz-adv-x="772" 
d="M250 0h-74l390 697h74zM174 320q-48 0 -85.5 24.5t-52.5 66.5l50 19q21 -55 88 -55q37 0 60.5 20.5t23.5 52.5q0 33 -24.5 54.5t-63.5 21.5q-34 0 -52 -8l-20 26l106 102h-133v53h224v-33l-101 -93q20 0 40 -6q35 -13 57 -45t22 -72q0 -56 -39.5 -92t-99.5 -36zM616 62
h-184v38l191 269h50v-253h44v-54h-44v-62h-57v62zM616 265l-107 -149h107v149z" />
    <glyph glyph-name="published" horiz-adv-x="812" 
d="M149 91q-107 107 -107 257q0 149 107 256t257 107t257 -107t107 -256q0 -150 -107 -257t-257 -107t-257 107zM180 575q-94 -94 -94 -227q0 -134 94 -228q95 -95 226 -95t226 95q94 94 94 228q0 133 -94 227q-95 95 -226 95t-226 -95zM359 119h-68v439h143q58 0 98 -40
t40 -98q0 -59 -40 -99q-40 -39 -98 -39h-75v-163zM359 492v-145h74q31 0 51 20.5t20 52.5t-20 52t-51 20h-74z" />
    <glyph glyph-name="colon.case" horiz-adv-x="188" 
d="M129 444q-15 -14 -35 -14t-35 14q-15 15 -15 36t15 35q15 15 35 15t35 -15q15 -14 15 -35t-15 -36zM129 168q-15 -14 -35 -14t-35 14q-15 15 -15 36t15 35q15 15 35 15t35 -15q15 -14 15 -35t-15 -36z" />
    <glyph glyph-name="semicolon.case" horiz-adv-x="238" 
d="M159 444q-15 -14 -35 -14t-35 14q-15 15 -15 36t15 35q15 15 35 15t35 -15q15 -14 15 -35t-15 -36zM61 0h-66l84 223h99z" />
    <glyph glyph-name="bullet.case" horiz-adv-x="262" 
d="M188 289q-24 -23 -57 -23t-58 23q-24 24 -24 59t24 58q25 24 58 24t57 -24q25 -23 25 -58t-25 -59z" />
    <glyph glyph-name="periodcentered.case" horiz-adv-x="188" 
d="M129 311q-15 -14 -35 -14t-35 14q-15 15 -15 36t15 35q15 15 35 15t35 -15q15 -14 15 -35t-15 -36z" />
    <glyph glyph-name="guilsinglleft.case" horiz-adv-x="258" 
d="M223 174h-78l-110 175l110 175h78l-110 -175z" />
    <glyph glyph-name="guilsinglright.case" horiz-adv-x="258" 
d="M113 174h-78l110 175l-110 175h78l110 -175z" />
    <glyph glyph-name="guillemotleft.case" horiz-adv-x="414" 
d="M379 174h-78l-110 175l110 175h78l-110 -175zM223 174h-78l-110 175l110 175h78l-110 -175z" />
    <glyph glyph-name="guillemotright.case" horiz-adv-x="414" 
d="M269 174h-78l110 175l-110 175h78l110 -175zM113 174h-78l110 175l-110 175h78l110 -175z" />
    <glyph glyph-name="slash.case" horiz-adv-x="422" 
d="M90 -81h-69l315 859h68z" />
    <glyph glyph-name="backslash.case" horiz-adv-x="422" 
d="M404 -81h-69l-314 859h68z" />
    <glyph glyph-name="hyphen.case" horiz-adv-x="384" 
d="M342 314h-300v69h300v-69z" />
    <glyph glyph-name="endash.case" horiz-adv-x="456" 
d="M415 314h-374v69h374v-69z" />
    <glyph glyph-name="emdash.case" horiz-adv-x="720" 
d="M679 314h-638v69h638v-69z" />
    <glyph glyph-name="parenleft.case" horiz-adv-x="294" 
d="M310 -98l-37 -40q-226 199 -226 480t226 480l37 -40q-189 -186 -189 -440t189 -440z" />
    <glyph glyph-name="parenright.case" horiz-adv-x="294" 
d="M21 -138l-37 40q189 186 189 440t-189 440l37 40q226 -199 226 -480t-226 -480z" />
    <glyph glyph-name="bracketleft.case" horiz-adv-x="307" 
d="M309 -96h-225v890h225v-72h-147v-746h147v-72z" />
    <glyph glyph-name="bracketright.case" horiz-adv-x="307" 
d="M-2 -96v72h147v746h-147v72h225v-890h-225z" />
    <glyph glyph-name="braceleft.case" horiz-adv-x="318" 
d="M113 33v190q0 65 -40 89q-19 12 -39 14h-6v48q24 2 45 14q40 24 40 89v190q0 56 34 92t86 36h45v-59h-37q-26 0 -40 -19.5t-14 -49.5v-179q0 -76 -34 -110q-15 -16 -40 -28q23 -10 40 -28q34 -34 34 -110v-179q0 -30 14 -49.5t40 -19.5h37v-59h-45q-52 0 -86 36t-34 92z
" />
    <glyph glyph-name="braceright.case" horiz-adv-x="318" 
d="M40 -95v59h37q26 0 40 19.5t14 49.5v179q0 76 34 110q15 16 40 28q-25 12 -40 28q-34 34 -34 110v179q0 30 -14 49.5t-40 19.5h-37v59h45q52 0 86 -36t34 -92v-190q0 -65 40 -89q19 -12 39 -14h6v-48q-24 -2 -45 -14q-40 -24 -40 -89v-190q0 -56 -34 -92t-86 -36h-45z
" />
    <glyph glyph-name="exclamdown.case" horiz-adv-x="240" 
d="M155 626q-15 -14 -35 -14t-35 14q-15 15 -15 36t15 35q15 15 35 15t35 -15q15 -14 15 -35t-15 -36zM167 0h-94l16 542h62z" />
    <glyph glyph-name="questiondown.case" horiz-adv-x="396" 
d="M239 626q-15 -14 -35 -14t-35 14q-15 15 -15 36t15 35q15 15 35 15t35 -15q15 -14 15 -35t-15 -36zM35 129q0 76 37 115q22 26 39 39l62 48q64 46 64 87q0 51 -56 51q-39 0 -71 -18v77q29 13 71 13q61 0 97.5 -33.5t36.5 -89.5q0 -73 -89 -138l-50 -36q-14 -10 -33 -30
q-30 -31 -30 -82q0 -5 1 -11t6 -18.5t13.5 -21.5t27.5 -16.5t44 -7.5q74 0 142 65v-88q-61 -49 -142 -49q-95 0 -136 53q-34 45 -34 91z" />
    <glyph glyph-name="at.case" horiz-adv-x="803" 
d="M38 348q0 93 45 176q47 83 130 135q86 53 188 53q148 0 255 -100q109 -100 109 -247q0 -101 -40 -156t-112 -55q-80 0 -105 67q-44 -53 -110 -53q-72 0 -122 50t-50 125t50 125t122 50q62 0 100 -44v35h68v-229q0 -22 5 -36t14 -19.5t14.5 -6.5t13.5 -1q27 0 51 19
q33 27 33 129q0 119 -87 201q-88 83 -209 83q-122 0 -209 -89q-86 -89 -86 -212t86 -212q87 -88 209 -88q72 0 138 39l32 -60q-78 -42 -170 -42q-93 0 -176 45q-83 47 -135 130q-52 85 -52 188zM293 343q0 -47 29.5 -78t75.5 -31q44 0 74.5 31.5t30.5 77.5q0 48 -30 79
t-75 31q-46 0 -75.5 -31t-29.5 -79z" />
    <glyph glyph-name="A.smcp" horiz-adv-x="612" 
d="M113 0h-81l247 558h54l247 -558h-81l-57 128h-272zM306 439l-105 -241h210z" />
    <glyph glyph-name="B.smcp" horiz-adv-x="491" 
d="M275 0h-196v558h180q65 0 108 -42q44 -41 44 -104q0 -78 -67 -109q53 -12 80.5 -47t27.5 -87q0 -73 -50 -121t-127 -48zM156 487v-157h93q37 0 61 22.5t24 56.5q0 33 -24 55.5t-60 22.5h-94zM156 261v-191h114q46 0 75.5 28t29.5 71q0 39 -30 65.5t-75 26.5h-114z" />
    <glyph glyph-name="C.smcp" horiz-adv-x="570" 
d="M330 569q64 0 121 -25.5t93 -69.5l-52 -46q-61 70 -162 70q-92 0 -154 -63q-61 -61 -61 -157t61 -158q62 -62 154 -62q102 0 164 74l53 -47q-36 -45 -94 -71t-123 -26q-122 0 -207 82q-84 83 -84 208q0 126 84 208q86 83 207 83z" />
    <glyph glyph-name="D.smcp" horiz-adv-x="624" 
d="M276 -1h-197v560h196q143 0 225 -78q82 -76 82 -203q0 -126 -82 -202q-82 -77 -224 -77zM158 486v-415h112q114 0 174 55.5t60 151.5q0 98 -59.5 153t-175.5 55h-111z" />
    <glyph glyph-name="E.smcp" horiz-adv-x="457" 
d="M409 0h-330v558h324v-71h-247v-158h231v-70h-231v-189h253v-70z" />
    <glyph glyph-name="F.smcp" horiz-adv-x="420" 
d="M156 0h-77v558h298v-71h-221v-162h200v-70h-200v-255z" />
    <glyph glyph-name="G.smcp" horiz-adv-x="600" 
d="M331 569q58 0 112 -21.5t89 -59.5l-46 -52q-65 63 -155 63q-93 0 -155 -63q-61 -62 -61 -157q0 -96 61 -158q61 -63 155 -63q85 0 144 53v127h-164v71h239v-224q-87 -97 -219 -97q-121 0 -207 83q-85 82 -85 208q0 125 85 207q86 83 207 83z" />
    <glyph glyph-name="H.smcp" horiz-adv-x="630" 
d="M156 0h-77v558h77v-227h318v227h77v-558h-77v261h-318v-261z" />
    <glyph glyph-name="I.smcp" horiz-adv-x="241" 
d="M159 0h-77v558h77v-558z" />
    <glyph glyph-name="J.smcp" horiz-adv-x="297" 
d="M26 -5v73q20 -9 44 -9q39 0 53.5 24t14.5 72v403h77v-400q0 -66 -21 -114q-26 -57 -124 -57q-23 0 -44 8z" />
    <glyph glyph-name="K.smcp" horiz-adv-x="553" 
d="M156 0h-77v558h77v-276l268 276h98l-235 -244l242 -314h-93l-201 261l-79 -81v-180z" />
    <glyph glyph-name="L.smcp" horiz-adv-x="428" 
d="M394 0h-315v558h77v-488h238v-70z" />
    <glyph glyph-name="M.smcp" horiz-adv-x="742" 
d="M155 0h-76v558h72l220 -349l220 349h72v-558h-76v413l-216 -339l-216 339v-413z" />
    <glyph glyph-name="N.smcp" horiz-adv-x="650" 
d="M156 0h-77v558h68l347 -424v424h77v-558h-63l-352 430v-430z" />
    <glyph glyph-name="O.smcp" horiz-adv-x="661" 
d="M37 278q0 127 85 209q86 83 209 83q122 0 208 -83q85 -82 85 -209q0 -125 -86 -208t-207 -83q-123 0 -209 83q-85 82 -85 208zM115 278q0 -95 61 -157q62 -62 155 -62t153 62q61 62 61 157q0 96 -61 157q-60 62 -153 62t-155 -62q-61 -61 -61 -157z" />
    <glyph glyph-name="P.smcp" horiz-adv-x="498" 
d="M156 0h-77v558h198q75 0 128 -49q54 -49 54 -124t-54 -124q-53 -49 -128 -49h-121v-212zM156 487v-204h118q46 0 77 29t31 73t-31 73t-77 29h-118z" />
    <glyph glyph-name="Q.smcp" horiz-adv-x="662" 
d="M623 278q0 -118 -78 -201l59 -72l-54 -44l-59 72q-71 -45 -160 -45q-122 0 -207 82t-85 208t85 208q86 83 207 83t207 -83q85 -82 85 -208zM331 58q64 0 114 31l-84 102l54 44l83 -101q49 61 49 144q0 96 -61 157q-62 63 -155 63q-95 0 -156 -63q-61 -61 -61 -157
t61 -158q62 -62 156 -62z" />
    <glyph glyph-name="R.smcp" horiz-adv-x="526" 
d="M156 0h-77v558h208q75 0 127 -49q53 -50 53 -121q0 -54 -30.5 -97.5t-80.5 -64.5l142 -226h-88l-131 213h-4h-119v-213zM156 487v-204h123q48 0 79.5 29.5t31.5 75.5q0 42 -30 70.5t-76 28.5h-128z" />
    <glyph glyph-name="S.smcp" horiz-adv-x="469" 
d="M36 123l66 31q43 -94 139 -94q38 0 63.5 11t34.5 28.5t11.5 28.5t2.5 22q0 41 -29 64q-28 22 -99 51q-82 33 -119 66q-38 33 -38 96t46 103q47 41 118 41q112 0 161 -97l-66 -33q-27 59 -96 59q-38 0 -62 -19t-24 -52q0 -25 20 -49q10 -10 27 -19l30 -15l40 -17
q93 -40 130 -75q38 -35 38 -103q0 -71 -51 -116t-139 -45q-71 0 -124.5 34t-79.5 99z" />
    <glyph glyph-name="T.smcp" horiz-adv-x="442" 
d="M259 0h-76v487h-157v71h390v-71h-157v-487z" />
    <glyph glyph-name="U.smcp" horiz-adv-x="605" 
d="M75 201v357h76v-349q0 -74 39.5 -112.5t111.5 -38.5t111.5 38.5t39.5 113.5v348h77v-348q0 -105 -65 -164q-65 -57 -167 -57q-101 0 -162 56t-61 156z" />
    <glyph glyph-name="V.smcp" horiz-adv-x="583" 
d="M318 0h-55l-232 558h82l178 -427l178 427h83z" />
    <glyph glyph-name="W.smcp" horiz-adv-x="812" 
d="M264 0h-50l-190 558h79l138 -401l138 401h54l138 -401l138 401h79l-190 -558h-50l-142 414z" />
    <glyph glyph-name="X.smcp" horiz-adv-x="565" 
d="M118 0h-82l197 289l-184 269h85l149 -218l147 218h83l-183 -270l199 -288h-87l-163 235z" />
    <glyph glyph-name="Y.smcp" horiz-adv-x="543" 
d="M311 0h-77v225l-209 333h85l164 -258l161 258h83l-207 -333v-225z" />
    <glyph glyph-name="Z.smcp" horiz-adv-x="553" 
d="M515 0h-460v48l348 439h-314v71h418v-52l-344 -436h352v-70z" />
    <glyph glyph-name="Agrave.smcp" horiz-adv-x="612" 
d="M370 596h-57l-82 116h97zM113 0h-81l247 558h54l247 -558h-81l-57 128h-272zM306 439l-105 -241h210z" />
    <glyph glyph-name="Aacute.smcp" horiz-adv-x="612" 
d="M296 596h-57l42 116h98zM113 0h-81l247 558h54l247 -558h-81l-57 128h-272zM306 439l-105 -241h210z" />
    <glyph glyph-name="Acircumflex.smcp" horiz-adv-x="612" 
d="M249 615h-91l119 97h56l119 -97h-91l-56 50zM113 0h-81l247 558h54l247 -558h-81l-57 128h-272zM306 439l-105 -241h210z" />
    <glyph glyph-name="Atilde.smcp" horiz-adv-x="612" 
d="M222 602l-47 4q4 37 25.5 59t54.5 22q22 0 53 -14q33 -14 43 -14q29 0 37 29l48 -4q-10 -85 -82 -85q-23 0 -54 14q-30 15 -43 15q-27 0 -35 -26zM113 0h-81l247 558h54l247 -558h-81l-57 128h-272zM306 439l-105 -241h210z" />
    <glyph glyph-name="Adieresis.smcp" horiz-adv-x="612" 
d="M425 602q-14 -14 -33 -14t-34 14q-14 14 -14 34t14 34q15 14 34 14t33 -14q15 -14 15 -34t-15 -34zM250 602q-14 -14 -33 -14t-34 14q-14 14 -14 34t14 34q15 14 34 14t33 -14q15 -14 15 -34t-15 -34zM113 0h-81l247 558h54l247 -558h-81l-57 128h-272zM306 439
l-105 -241h210z" />
    <glyph glyph-name="Amacron.smcp" horiz-adv-x="612" 
d="M430 615h-250v68h250v-68zM113 0h-81l247 558h54l247 -558h-81l-57 128h-272zM306 439l-105 -241h210z" />
    <glyph glyph-name="Abreve.smcp" horiz-adv-x="612" 
d="M164 724h67q23 -59 74 -59t74 59h68q-7 -54 -47 -88.5t-95 -34.5q-54 0 -94 34.5t-47 88.5zM113 0h-81l247 558h54l247 -558h-81l-57 128h-272zM306 439l-105 -241h210z" />
    <glyph glyph-name="Aring.smcp" horiz-adv-x="612" 
d="M113 0h-81l249 524q-28 8 -46 31t-18 52q0 35 26 60.5t63 25.5t63 -25.5t26 -60.5q0 -30 -18 -53t-47 -31l250 -523h-84l-62 128h-259zM278 581q21 -23 49 -4q24 16 18 39q-3 10 -12 17q-15 17 -37 9.5t-28 -26t10 -35.5zM304 412l-99 -214h198z" />
    <glyph glyph-name="Aringacute.smcp" horiz-adv-x="612" 
d="M343 738h-58l42 116h98zM113 0h-81l249 524q-28 8 -46 31t-18 52q0 35 26 60.5t63 25.5t63 -25.5t26 -60.5q0 -30 -18 -53t-47 -31l250 -523h-84l-62 128h-259zM278 581q21 -23 49 -4q24 16 18 39q-3 10 -12 17q-15 17 -37 9.5t-28 -26t10 -35.5zM304 412l-99 -214h198z
" />
    <glyph glyph-name="Aogonek.smcp" horiz-adv-x="612" 
d="M113 0h-81l247 558h54l247 -558q-22 -4 -46 -27q-23 -23 -23 -46q0 -15 11.5 -24t29.5 -9q24 0 49 12l-13 -57q-25 -11 -48 -11q-37 0 -64 21t-27 55q0 42 53 80l-1 2l-59 132h-272zM306 439l-105 -241h210z" />
    <glyph glyph-name="AE.smcp" horiz-adv-x="758" 
d="M88 0h-97l454 558h259v-71h-202v-158h186v-70h-186v-189h208v-70h-285v132h-229zM425 420l-174 -218h174v218z" />
    <glyph glyph-name="AEacute.smcp" horiz-adv-x="758" 
d="M462 596h-58l43 116h97zM88 0h-97l454 558h259v-71h-202v-158h186v-70h-186v-189h208v-70h-285v132h-229zM425 420l-174 -218h174v218z" />
    <glyph glyph-name="Cacute.smcp" horiz-adv-x="570" 
d="M354 596h-57l39 116h96zM330 569q64 0 121 -25.5t93 -69.5l-52 -46q-61 70 -162 70q-92 0 -154 -63q-61 -61 -61 -157t61 -158q62 -62 154 -62q102 0 164 74l53 -47q-36 -45 -94 -71t-123 -26q-122 0 -207 82q-84 83 -84 208q0 126 84 208q86 83 207 83z" />
    <glyph glyph-name="Ccircumflex.smcp" horiz-adv-x="570" 
d="M276 615h-91l119 97h56l119 -97h-91l-56 50zM330 569q64 0 121 -25.5t93 -69.5l-52 -46q-61 70 -162 70q-92 0 -154 -63q-61 -61 -61 -157t61 -158q62 -62 154 -62q102 0 164 74l53 -47q-36 -45 -94 -71t-123 -26q-122 0 -207 82q-84 83 -84 208q0 126 84 208
q86 83 207 83z" />
    <glyph glyph-name="Ccaron.smcp" horiz-adv-x="570" 
d="M359 615h-56l-119 97h91l56 -50l56 50h91zM330 569q64 0 121 -25.5t93 -69.5l-52 -46q-61 70 -162 70q-92 0 -154 -63q-61 -61 -61 -157t61 -158q62 -62 154 -62q102 0 164 74l53 -47q-36 -45 -94 -71t-123 -26q-122 0 -207 82q-84 83 -84 208q0 126 84 208q86 83 207 83
z" />
    <glyph glyph-name="Cdotaccent.smcp" horiz-adv-x="570" 
d="M358 621q-14 -14 -33 -14t-34 14q-14 14 -14 34t14 34q15 14 34 14t33 -14q15 -14 15 -34t-15 -34zM330 569q64 0 121 -25.5t93 -69.5l-52 -46q-61 70 -162 70q-92 0 -154 -63q-61 -61 -61 -157t61 -158q62 -62 154 -62q102 0 164 74l53 -47q-36 -45 -94 -71t-123 -26
q-122 0 -207 82q-84 83 -84 208q0 126 84 208q86 83 207 83z" />
    <glyph glyph-name="Ccedilla.smcp" horiz-adv-x="570" 
d="M39 278q0 126 84 208q86 83 207 83q64 0 121 -25.5t93 -69.5l-52 -46q-61 70 -162 70q-92 0 -154 -63q-61 -61 -61 -157t61 -158q62 -62 154 -62q102 0 164 74l53 -47q-36 -45 -94 -71t-123 -26q-17 0 -21 1l-10 -21q22 -1 37 -18t15 -44q0 -72 -93 -72q-40 0 -63 18
l18 38q23 -13 44 -13q15 0 25.5 8t10.5 21q0 18 -13 25t-45 9l22 55q-95 24 -157 101q-61 76 -61 182z" />
    <glyph glyph-name="Dcaron.smcp" horiz-adv-x="625" 
d="M309 615h-56l-119 97h91l56 -50l56 50h91zM276 -1h-197v560h197q142 0 224 -78q83 -77 83 -203t-82 -202q-83 -77 -225 -77zM158 486v-415h113q114 0 173.5 55.5t59.5 151.5q0 98 -59.5 153t-174.5 55h-112z" />
    <glyph glyph-name="Dcroat.smcp" horiz-adv-x="619" 
d="M275 0h-196v251h-57v70h57v237h195q143 0 224 -78q82 -76 82 -202t-82 -202q-80 -76 -223 -76zM156 251v-181h113q114 0 174.5 56t60.5 152q0 98 -60 153.5t-176 55.5h-112v-166h123v-70h-123z" />
    <glyph glyph-name="Egrave.smcp" horiz-adv-x="457" 
d="M284 596h-57l-82 116h97zM409 0h-330v558h324v-71h-247v-158h231v-70h-231v-189h253v-70z" />
    <glyph glyph-name="Eacute.smcp" horiz-adv-x="457" 
d="M264 596h-58l42 116h98zM409 0h-330v558h324v-71h-247v-158h231v-70h-231v-189h253v-70z" />
    <glyph glyph-name="Ecircumflex.smcp" horiz-adv-x="457" 
d="M182 615h-91l119 97h56l119 -97h-91l-56 50zM409 0h-330v558h324v-71h-247v-158h231v-70h-231v-189h253v-70z" />
    <glyph glyph-name="Ecaron.smcp" horiz-adv-x="457" 
d="M270 615h-56l-119 97h91l56 -50l56 50h91zM409 0h-330v558h324v-71h-247v-158h231v-70h-231v-189h253v-70z" />
    <glyph glyph-name="Edieresis.smcp" horiz-adv-x="457" 
d="M367 621q-14 -14 -33 -14t-34 14t-15 34t15 34t34 14t33 -14q15 -14 15 -34t-15 -34zM192 621q-14 -14 -33 -14t-34 14t-15 34t15 34t34 14t33 -14q15 -14 15 -34t-15 -34zM409 0h-330v558h324v-71h-247v-158h231v-70h-231v-189h253v-70z" />
    <glyph glyph-name="Emacron.smcp" horiz-adv-x="457" 
d="M367 615h-250v68h250v-68zM409 0h-330v558h324v-71h-247v-158h231v-70h-231v-189h253v-70z" />
    <glyph glyph-name="Ebreve.smcp" horiz-adv-x="457" 
d="M98 724h68q23 -59 74 -59t74 59h68q-7 -54 -47 -88.5t-95 -34.5t-95 34.5t-47 88.5zM409 0h-330v558h324v-71h-247v-158h231v-70h-231v-189h253v-70z" />
    <glyph glyph-name="Edotaccent.smcp" horiz-adv-x="457" 
d="M278 621q-15 -14 -34 -14t-34 14q-14 14 -14 34t14 34q15 14 34 14t34 -14t15 -34t-15 -34zM409 0h-330v558h324v-71h-247v-158h231v-70h-231v-189h253v-70z" />
    <glyph glyph-name="Eogonek.smcp" horiz-adv-x="457" 
d="M347 0h-268v558h324v-71h-247v-158h231v-70h-231v-189h253v-70q-63 -36 -63 -73q0 -15 11.5 -24t29.5 -9q23 0 49 12l-12 -57q-27 -11 -49 -11q-37 0 -64 21t-27 55q0 48 63 86z" />
    <glyph glyph-name="Gcircumflex.smcp" horiz-adv-x="599" 
d="M277 615h-91l119 97h56l119 -97h-91l-56 50zM331 569q58 0 112 -21.5t89 -59.5l-46 -52q-65 63 -155 63q-93 0 -155 -63q-61 -62 -61 -157q0 -96 61 -158q61 -63 155 -63q85 0 144 53v127h-164v71h239v-224q-87 -97 -219 -97q-121 0 -207 83q-85 82 -85 208q0 125 85 207
q86 83 207 83z" />
    <glyph glyph-name="Gbreve.smcp" horiz-adv-x="599" 
d="M191 724h67q23 -59 70 -59q49 0 69 59h68q-7 -54 -46 -88.5t-91 -34.5t-91 34.5t-46 88.5zM331 569q58 0 112 -21.5t89 -59.5l-46 -52q-65 63 -155 63q-93 0 -155 -63q-61 -62 -61 -157q0 -96 61 -158q61 -63 155 -63q85 0 144 53v127h-164v71h239v-224q-87 -97 -219 -97
q-121 0 -207 83q-85 82 -85 208q0 125 85 207q86 83 207 83z" />
    <glyph glyph-name="Gdotaccent.smcp" horiz-adv-x="599" 
d="M365 621q-14 -14 -33 -14t-34 14q-14 14 -14 34t14 34q15 14 34 14t33 -14t14 -34t-14 -34zM331 569q58 0 112 -21.5t89 -59.5l-46 -52q-65 63 -155 63q-93 0 -155 -63q-61 -62 -61 -157q0 -96 61 -158q61 -63 155 -63q85 0 144 53v127h-164v71h239v-224
q-87 -97 -219 -97q-121 0 -207 83q-85 82 -85 208q0 125 85 207q86 83 207 83z" />
    <glyph glyph-name="Gcommaaccent.smcp" horiz-adv-x="599" 
d="M331 569q58 0 112 -21.5t89 -59.5l-46 -52q-65 63 -155 63q-93 0 -155 -63q-61 -62 -61 -157q0 -96 61 -158q61 -63 155 -63q85 0 144 53v127h-164v71h239v-224q-87 -97 -219 -97q-121 0 -207 83q-85 82 -85 208q0 125 85 207q86 83 207 83zM303 -154h-58l39 116h97z" />
    <glyph glyph-name="Hcircumflex.smcp" horiz-adv-x="630" 
d="M258 615h-91l119 97h56l119 -97h-91l-56 50zM156 0h-77v558h77v-227h318v227h77v-558h-77v261h-318v-261z" />
    <glyph glyph-name="Hbar.smcp" horiz-adv-x="630" 
d="M156 0h-77v399h-50v66h50v93h77v-93h318v93h77v-93h50v-66h-50v-399h-77v261h-318v-261zM156 399v-68h318v68h-318z" />
    <glyph glyph-name="Igrave.smcp" horiz-adv-x="241" 
d="M152 596h-57l-82 116h97zM159 0h-77v558h77v-558z" />
    <glyph glyph-name="Iacute.smcp" horiz-adv-x="241" 
d="M144 596h-57l42 116h98zM159 0h-77v558h77v-558z" />
    <glyph glyph-name="Icircumflex.smcp" horiz-adv-x="241" 
d="M65 615h-87l115 97h56l115 -97h-87l-56 50zM159 0h-77v558h77v-558z" />
    <glyph glyph-name="Itilde.smcp" horiz-adv-x="241" 
d="M37 602l-48 4q4 37 25.5 59t54.5 22q22 0 53 -14q33 -14 44 -14q28 0 37 29l48 -4q-10 -85 -82 -85q-22 0 -55 14q-30 15 -43 15q-26 0 -34 -26zM159 0h-77v558h77v-558z" />
    <glyph glyph-name="Idieresis.smcp" horiz-adv-x="241" 
d="M230 621q-15 -14 -34 -14t-34 14q-14 14 -14 34t14 34q15 14 34 14t34 -14t15 -34t-15 -34zM78 621q-14 -14 -33 -14t-34 14q-14 14 -14 34t14 34q15 14 34 14t33 -14q15 -14 15 -34t-15 -34zM159 0h-77v558h77v-558z" />
    <glyph glyph-name="Imacron.smcp" horiz-adv-x="241" 
d="M246 615h-250v68h250v-68zM159 0h-77v558h77v-558z" />
    <glyph glyph-name="Ibreve.smcp" horiz-adv-x="241" 
d="M-21 724h68q23 -59 74 -59t74 59h67q-7 -54 -47 -88.5t-94 -34.5q-55 0 -95 34.5t-47 88.5zM159 0h-77v558h77v-558z" />
    <glyph glyph-name="Idotaccent.smcp" horiz-adv-x="241" 
d="M154 621q-14 -14 -33 -14t-34 14t-15 34t15 34t34 14t33 -14q15 -14 15 -34t-15 -34zM159 0h-77v558h77v-558z" />
    <glyph glyph-name="Iogonek.smcp" horiz-adv-x="241" 
d="M82 -8v1v565h77v-558q-19 -4 -43 -27q-23 -25 -23 -46q0 -15 11 -24t29 -9q23 0 49 12l-12 -57q-27 -11 -48 -11q-37 0 -64 21t-27 55q0 45 51 78z" />
    <glyph glyph-name="IJ.smcp" horiz-adv-x="474" 
d="M94 -3v72q52 -11 111 -11q57 0 82 31q12 13 16 35q7 28 7 80v354h77v-344q0 -82 -17 -131q-34 -97 -163 -97q-67 0 -113 11zM173 141h-77v417h77v-417z" />
    <glyph glyph-name="Jcircumflex.smcp" horiz-adv-x="297" 
d="M117 615h-87l115 97h56l115 -97h-87l-56 50zM26 -5v73q20 -9 44 -9q39 0 53.5 24t14.5 72v403h77v-400q0 -66 -21 -114q-26 -57 -124 -57q-23 0 -44 8z" />
    <glyph glyph-name="Kcommaaccent.smcp" horiz-adv-x="544" 
d="M156 0h-77v558h77v-276l268 276h98l-235 -244l242 -314h-93l-201 261l-79 -81v-180zM244 -154h-58l43 116h97z" />
    <glyph glyph-name="Lacute.smcp" horiz-adv-x="428" 
d="M154 596h-58l43 116h97zM394 0h-315v558h77v-488h238v-70z" />
    <glyph glyph-name="Lcaron.smcp" horiz-adv-x="428" 
d="M394 0h-315v558h77v-488h238v-70zM271 442h-57l42 116h98z" />
    <glyph glyph-name="Lcommaaccent.smcp" horiz-adv-x="428" 
d="M394 0h-315v558h77v-488h238v-70zM213 -154h-58l42 116h98z" />
    <glyph glyph-name="Ldot.smcp" horiz-adv-x="428" 
d="M394 0h-315v558h77v-488h238v-70zM311 260q-14 -14 -33 -14t-34 14q-14 14 -14 34t14 33q15 14 34 14t33 -14q15 -13 15 -33t-15 -34z" />
    <glyph glyph-name="Lslash.smcp" horiz-adv-x="427" 
d="M394 0h-315v217l-57 -29v74l57 29v267h77v-225l118 61v-74l-118 -60v-190h238v-70z" />
    <glyph glyph-name="Nacute.smcp" horiz-adv-x="650" 
d="M340 596h-58l43 116h97zM156 0h-77v558h68l347 -424v424h77v-558h-63l-352 430v-430z" />
    <glyph glyph-name="Ncaron.smcp" horiz-adv-x="650" 
d="M353 615h-56l-119 97h91l56 -50l56 50h91zM156 0h-77v558h68l347 -424v424h77v-558h-63l-352 430v-430z" />
    <glyph glyph-name="Ntilde.smcp" horiz-adv-x="650" 
d="M238 602l-47 4q4 37 25.5 59t54.5 22q22 0 53 -14q33 -14 43 -14q29 0 37 29l48 -4q-10 -85 -82 -85q-23 0 -54 14q-30 15 -43 15q-27 0 -35 -26zM156 0h-77v558h68l347 -424v424h77v-558h-63l-352 430v-430z" />
    <glyph glyph-name="Ncommaaccent.smcp" horiz-adv-x="650" 
d="M156 0h-77v558h68l347 -424v424h77v-558h-63l-352 430v-430zM309 -154h-57l42 116h97z" />
    <glyph glyph-name="Ograve.smcp" horiz-adv-x="661" 
d="M363 596h-58l-78 116h97zM37 278q0 127 85 209q86 83 209 83q122 0 208 -83q85 -82 85 -209q0 -125 -86 -208t-207 -83q-123 0 -209 83q-85 82 -85 208zM115 278q0 -95 61 -157q62 -62 155 -62t153 62q61 62 61 157q0 96 -61 157q-60 62 -153 62t-155 -62
q-61 -61 -61 -157z" />
    <glyph glyph-name="Oacute.smcp" horiz-adv-x="661" 
d="M347 596h-57l38 116h97zM37 278q0 127 85 209q86 83 209 83q122 0 208 -83q85 -82 85 -209q0 -125 -86 -208t-207 -83q-123 0 -209 83q-85 82 -85 208zM115 278q0 -95 61 -157q62 -62 155 -62t153 62q61 62 61 157q0 96 -61 157q-60 62 -153 62t-155 -62
q-61 -61 -61 -157z" />
    <glyph glyph-name="Ocircumflex.smcp" horiz-adv-x="661" 
d="M270 615h-91l119 97h56l119 -97h-91l-56 50zM37 278q0 127 85 209q86 83 209 83q122 0 208 -83q85 -82 85 -209q0 -125 -86 -208t-207 -83q-123 0 -209 83q-85 82 -85 208zM115 278q0 -95 61 -157q62 -62 155 -62t153 62q61 62 61 157q0 96 -61 157q-60 62 -153 62
t-155 -62q-61 -61 -61 -157z" />
    <glyph glyph-name="Otilde.smcp" horiz-adv-x="661" 
d="M254 602l-47 4q4 37 24.5 59t52.5 22q19 0 49 -14t40 -14q26 0 34 29l48 -4q-10 -85 -79 -85q-21 0 -51 14q-29 15 -39 15q-26 0 -32 -26zM37 278q0 127 85 209q86 83 209 83q122 0 208 -83q85 -82 85 -209q0 -125 -86 -208t-207 -83q-123 0 -209 83q-85 82 -85 208z
M115 278q0 -95 61 -157q62 -62 155 -62t153 62q61 62 61 157q0 96 -61 157q-60 62 -153 62t-155 -62q-61 -61 -61 -157z" />
    <glyph glyph-name="Odieresis.smcp" horiz-adv-x="661" 
d="M414 588q-19 0 -33.5 14t-14.5 34t14.5 34t33.5 14t33 -14t14 -34t-14.5 -34t-32.5 -14zM282 602q-14 -14 -33 -14t-34 14q-14 14 -14 34t14 34q15 14 34 14t33 -14q15 -14 15 -34t-15 -34zM37 278q0 127 85 209q86 83 209 83q122 0 208 -83q85 -82 85 -209
q0 -125 -86 -208t-207 -83q-123 0 -209 83q-85 82 -85 208zM115 278q0 -95 61 -157q62 -62 155 -62t153 62q61 62 61 157q0 96 -61 157q-60 62 -153 62t-155 -62q-61 -61 -61 -157z" />
    <glyph glyph-name="Omacron.smcp" horiz-adv-x="661" 
d="M448 616h-235v68h235v-68zM37 278q0 127 85 209q86 83 209 83q122 0 208 -83q85 -82 85 -209q0 -125 -86 -208t-207 -83q-123 0 -209 83q-85 82 -85 208zM115 278q0 -95 61 -157q62 -62 155 -62t153 62q61 62 61 157q0 96 -61 157q-60 62 -153 62t-155 -62
q-61 -61 -61 -157z" />
    <glyph glyph-name="Obreve.smcp" horiz-adv-x="661" 
d="M188 724h67q23 -59 74 -59t74 59h68q-7 -54 -47 -88.5t-95 -34.5q-54 0 -94 34.5t-47 88.5zM37 278q0 127 85 209q86 83 209 83q122 0 208 -83q85 -82 85 -209q0 -125 -86 -208t-207 -83q-123 0 -209 83q-85 82 -85 208zM115 278q0 -95 61 -157q62 -62 155 -62t153 62
q61 62 61 157q0 96 -61 157q-60 62 -153 62t-155 -62q-61 -61 -61 -157z" />
    <glyph glyph-name="Ohungarumlaut.smcp" horiz-adv-x="661" 
d="M418 596h-53l47 116h93zM295 596h-53l46 116h93zM37 278q0 127 85 209q86 83 209 83q122 0 208 -83q85 -82 85 -209q0 -125 -86 -208t-207 -83q-123 0 -209 83q-85 82 -85 208zM115 278q0 -95 61 -157q62 -62 155 -62t153 62q61 62 61 157q0 96 -61 157q-60 62 -153 62
t-155 -62q-61 -61 -61 -157z" />
    <glyph glyph-name="Oslash.smcp" horiz-adv-x="662" 
d="M145 -38l-55 41l43 59q-94 84 -94 216q0 126 85 208q86 83 207 83q80 0 151 -40l45 62l56 -42l-46 -62q86 -84 86 -209q0 -126 -85 -208t-207 -82q-77 0 -142 34zM176 120l264 352q-50 26 -109 26q-95 0 -156 -63q-61 -61 -61 -157q0 -98 62 -158zM493 429l-261 -349
q45 -22 99 -22q92 0 154 62q62 64 62 158q0 86 -54 151z" />
    <glyph glyph-name="Oslashacute.smcp" horiz-adv-x="662" 
d="M361 596h-57l39 116h97zM145 -38l-55 41l43 59q-94 84 -94 216q0 126 85 208q86 83 207 83q80 0 151 -40l45 62l56 -42l-46 -62q86 -84 86 -209q0 -126 -85 -208t-207 -82q-77 0 -142 34zM176 120l264 352q-50 26 -109 26q-95 0 -156 -63q-61 -61 -61 -157q0 -98 62 -158
zM493 429l-261 -349q45 -22 99 -22q92 0 154 62q62 64 62 158q0 86 -54 151z" />
    <glyph glyph-name="OE.smcp" horiz-adv-x="894" 
d="M341 569q143 0 220 -99v88h279v-71h-202v-158h186v-70h-186v-189h208v-70h-285v87q-77 -99 -220 -99q-127 0 -213 82q-87 82 -87 208t87 208q88 83 213 83zM180 435q-64 -61 -64 -157q0 -95 64 -158q65 -62 161 -62t160 62q64 63 64 158q0 96 -64 157q-63 63 -160 63
t-161 -63z" />
    <glyph glyph-name="Racute.smcp" horiz-adv-x="526" 
d="M267 596h-57l42 116h97zM156 0h-77v558h208q75 0 127 -49q53 -50 53 -121q0 -54 -30.5 -97.5t-80.5 -64.5l142 -226h-88l-131 213h-4h-119v-213zM156 487v-204h123q48 0 79.5 29.5t31.5 75.5q0 42 -30 70.5t-76 28.5h-128z" />
    <glyph glyph-name="Rcaron.smcp" horiz-adv-x="526" 
d="M280 615h-56l-119 97h91l56 -50l56 50h91zM156 0h-77v558h208q75 0 127 -49q53 -50 53 -121q0 -54 -30.5 -97.5t-80.5 -64.5l142 -226h-88l-131 213h-4h-119v-213zM156 487v-204h123q48 0 79.5 29.5t31.5 75.5q0 42 -30 70.5t-76 28.5h-128z" />
    <glyph glyph-name="Rcommaaccent.smcp" horiz-adv-x="526" 
d="M156 0h-77v558h208q75 0 127 -49q53 -50 53 -121q0 -54 -30.5 -97.5t-80.5 -64.5l142 -226h-88l-131 213h-4h-119v-213zM156 487v-204h123q48 0 79.5 29.5t31.5 75.5q0 42 -30 70.5t-76 28.5h-128zM252 -154h-58l42 116h98z" />
    <glyph glyph-name="Sacute.smcp" horiz-adv-x="469" 
d="M266 596h-57l42 116h98zM36 123l66 31q43 -94 139 -94q38 0 63.5 11t34.5 28.5t11.5 28.5t2.5 22q0 41 -29 64q-28 22 -99 51q-82 33 -119 66q-38 33 -38 96t46 103q47 41 118 41q112 0 161 -97l-66 -33q-27 59 -96 59q-38 0 -62 -19t-24 -52q0 -25 20 -49q10 -10 27 -19
l30 -15l40 -17q93 -40 130 -75q38 -35 38 -103q0 -71 -51 -116t-139 -45q-71 0 -124.5 34t-79.5 99z" />
    <glyph glyph-name="Scircumflex.smcp" horiz-adv-x="469" 
d="M180 615h-91l119 97h56l119 -97h-91l-56 50zM36 123l66 31q43 -94 139 -94q38 0 63.5 11t34.5 28.5t11.5 28.5t2.5 22q0 41 -29 64q-28 22 -99 51q-82 33 -119 66q-38 33 -38 96t46 103q47 41 118 41q112 0 161 -97l-66 -33q-27 59 -96 59q-38 0 -62 -19t-24 -52
q0 -25 20 -49q10 -10 27 -19l30 -15l40 -17q93 -40 130 -75q38 -35 38 -103q0 -71 -51 -116t-139 -45q-71 0 -124.5 34t-79.5 99z" />
    <glyph glyph-name="Scaron.smcp" horiz-adv-x="469" 
d="M264 615h-56l-119 97h91l56 -50l56 50h91zM36 123l66 31q43 -94 139 -94q38 0 63.5 11t34.5 28.5t11.5 28.5t2.5 22q0 41 -29 64q-28 22 -99 51q-82 33 -119 66q-38 33 -38 96t46 103q47 41 118 41q112 0 161 -97l-66 -33q-27 59 -96 59q-38 0 -62 -19t-24 -52
q0 -25 20 -49q10 -10 27 -19l30 -15l40 -17q93 -40 130 -75q38 -35 38 -103q0 -71 -51 -116t-139 -45q-71 0 -124.5 34t-79.5 99z" />
    <glyph glyph-name="Scommaaccent.smcp" horiz-adv-x="469" 
d="M36 123l66 31q43 -94 139 -94q38 0 63.5 11t34.5 28.5t11.5 28.5t2.5 22q0 41 -29 64q-28 22 -99 51q-82 33 -119 66q-38 33 -38 96t46 103q47 41 118 41q112 0 161 -97l-66 -33q-27 59 -96 59q-38 0 -62 -19t-24 -52q0 -25 20 -49q10 -10 27 -19l30 -15l40 -17
q93 -40 130 -75q38 -35 38 -103q0 -71 -51 -116t-139 -45q-71 0 -124.5 34t-79.5 99zM200 -154h-60l42 116h100z" />
    <glyph glyph-name="Scedilla.smcp" horiz-adv-x="469" 
d="M36 123l66 31q43 -94 139 -94q38 0 63.5 11t34.5 28.5t11.5 28.5t2.5 22q0 41 -29 64q-28 22 -99 51q-82 33 -119 66q-38 33 -38 96t46 103q47 41 118 41q112 0 161 -97l-66 -33q-27 59 -96 59q-38 0 -62 -19t-24 -52q0 -25 20 -49q10 -10 27 -19l30 -15l40 -17
q93 -40 130 -75q38 -35 38 -103q0 -71 -49.5 -115.5t-135.5 -45.5l-11 -22q24 -1 39.5 -18t15.5 -44q0 -72 -96 -72q-39 0 -66 18l19 38q25 -13 46 -13q17 0 27.5 8t10.5 21q0 18 -13.5 25t-48.5 9l24 54q-114 20 -156 129z" />
    <glyph glyph-name="germandbls.smcp" horiz-adv-x="948" 
d="M510 123l66 31q43 -94 139 -94q38 0 63.5 11t34.5 28.5t11.5 28.5t2.5 22q0 41 -29 64q-28 22 -99 51q-82 33 -119 66q-38 33 -38 96t46 103q47 41 118 41q112 0 161 -97l-66 -33q-27 59 -96 59q-38 0 -62 -19t-24 -52q0 -25 20 -49q10 -10 27 -19l30 -15l40 -17
q93 -40 130 -75q38 -35 38 -103q0 -71 -51 -116t-139 -45q-71 0 -124.5 34t-79.5 99zM36 123l66 31q43 -94 139 -94q38 0 63.5 11t34.5 28.5t11.5 28.5t2.5 22q0 41 -29 64q-28 22 -99 51q-82 33 -119 66q-38 33 -38 96t46 103q47 41 118 41q112 0 161 -97l-66 -33
q-27 59 -96 59q-38 0 -62 -19t-24 -52q0 -25 20 -49q10 -10 27 -19l30 -15l40 -17q93 -40 130 -75q38 -35 38 -103q0 -71 -51 -116t-139 -45q-71 0 -124.5 34t-79.5 99z" />
    <glyph glyph-name="Tcaron.smcp" horiz-adv-x="442" 
d="M248 615h-56l-119 97h91l56 -50l56 50h91zM259 0h-76v487h-157v71h390v-71h-157v-487z" />
    <glyph glyph-name="Tcommaaccent.smcp" horiz-adv-x="442" 
d="M259 0h-76v487h-157v71h390v-71h-157v-487zM189 -154h-58l43 116h97z" />
    <glyph glyph-name="Tbar.smcp" horiz-adv-x="442" 
d="M259 0h-76v277h-87v67h87v143h-157v71h390v-71h-157v-143h87v-67h-87v-277z" />
    <glyph glyph-name="Ugrave.smcp" horiz-adv-x="601" 
d="M337 596h-57l-82 116h97zM75 201v357h76v-349q0 -74 39.5 -112.5t111.5 -38.5t111.5 38.5t39.5 113.5v348h77v-348q0 -105 -65 -164q-65 -57 -167 -57q-101 0 -162 56t-61 156z" />
    <glyph glyph-name="Uacute.smcp" horiz-adv-x="601" 
d="M328 596h-57l42 116h97zM75 201v357h76v-349q0 -74 39.5 -112.5t111.5 -38.5t111.5 38.5t39.5 113.5v348h77v-348q0 -105 -65 -164q-65 -57 -167 -57q-101 0 -162 56t-61 156z" />
    <glyph glyph-name="Ucircumflex.smcp" horiz-adv-x="601" 
d="M247 615h-91l119 97h56l119 -97h-91l-56 50zM75 201v357h76v-349q0 -74 39.5 -112.5t111.5 -38.5t111.5 38.5t39.5 113.5v348h77v-348q0 -105 -65 -164q-65 -57 -167 -57q-101 0 -162 56t-61 156z" />
    <glyph glyph-name="Utilde.smcp" horiz-adv-x="601" 
d="M224 602l-47 4q4 37 25.5 59t54.5 22q22 0 53 -14q33 -14 43 -14q29 0 37 29l48 -4q-10 -85 -82 -85q-23 0 -54 14q-30 15 -43 15q-27 0 -35 -26zM75 201v357h76v-349q0 -74 39.5 -112.5t111.5 -38.5t111.5 38.5t39.5 113.5v348h77v-348q0 -105 -65 -164
q-65 -57 -167 -57q-101 0 -162 56t-61 156z" />
    <glyph glyph-name="Udieresis.smcp" horiz-adv-x="601" 
d="M425 602q-14 -14 -33 -14t-34 14q-14 14 -14 34t14 34q15 14 34 14t33 -14q15 -14 15 -34t-15 -34zM250 602q-14 -14 -33 -14t-34 14q-14 14 -14 34t14 34q15 14 34 14t33 -14q15 -14 15 -34t-15 -34zM75 201v357h76v-349q0 -74 39.5 -112.5t111.5 -38.5t111.5 38.5
t39.5 113.5v348h77v-348q0 -105 -65 -164q-65 -57 -167 -57q-101 0 -162 56t-61 156z" />
    <glyph glyph-name="Umacron.smcp" horiz-adv-x="601" 
d="M426 615h-250v68h250v-68zM75 201v357h76v-349q0 -74 39.5 -112.5t111.5 -38.5t111.5 38.5t39.5 113.5v348h77v-348q0 -105 -65 -164q-65 -57 -167 -57q-101 0 -162 56t-61 156z" />
    <glyph glyph-name="Ubreve.smcp" horiz-adv-x="601" 
d="M160 724h67q23 -59 74 -59t74 59h68q-7 -54 -47 -88.5t-95 -34.5q-54 0 -94 34.5t-47 88.5zM75 201v357h76v-349q0 -74 39.5 -112.5t111.5 -38.5t111.5 38.5t39.5 113.5v348h77v-348q0 -105 -65 -164q-65 -57 -167 -57q-101 0 -162 56t-61 156z" />
    <glyph glyph-name="Uring.smcp" horiz-adv-x="601" 
d="M213 656q0 35 26 60.5t63 25.5t63 -25.5t26 -60.5q0 -36 -26 -61.5t-63 -25.5t-63 25.5t-26 61.5zM274 629q12 -11 28 -11t28 11q12 12 12 27t-12 26t-28 11t-28 -11q-11 -11 -11 -26t11 -27zM75 201v357h76v-349q0 -74 39.5 -112.5t111.5 -38.5t111.5 38.5t39.5 113.5
v348h77v-348q0 -105 -65 -164q-65 -57 -167 -57q-101 0 -162 56t-61 156z" />
    <glyph glyph-name="Uhungarumlaut.smcp" horiz-adv-x="601" 
d="M377 596h-53l47 116h93zM254 596h-53l46 116h93zM75 201v357h76v-349q0 -74 39.5 -112.5t111.5 -38.5t111.5 38.5t39.5 113.5v348h77v-348q0 -105 -65 -164q-65 -57 -167 -57q-101 0 -162 56t-61 156z" />
    <glyph glyph-name="Uogonek.smcp" horiz-adv-x="605" 
d="M75 201v357h76v-349q0 -74 39.5 -112.5t111.5 -38.5t111.5 38.5t39.5 113.5v348h77v-348q0 -119 -82 -177q-1 -1 -10.5 -7l-25 -15.5l-25.5 -15.5q-20 -13 -35 -32t-15 -36q0 -15 11.5 -24t29.5 -9q24 0 49 12l-12 -57q-27 -11 -49 -11q-37 0 -63.5 21t-26.5 55
q0 42 46 75h-24q-101 0 -162 56t-61 156z" />
    <glyph glyph-name="Wgrave.smcp" horiz-adv-x="812" 
d="M455 596h-58l-82 116h97zM264 0h-50l-190 558h79l138 -401l138 401h54l138 -401l138 401h79l-190 -558h-50l-142 414z" />
    <glyph glyph-name="Wacute.smcp" horiz-adv-x="812" 
d="M414 596h-58l42 116h98zM264 0h-50l-190 558h79l138 -401l138 401h54l138 -401l138 401h79l-190 -558h-50l-142 414z" />
    <glyph glyph-name="Wcircumflex.smcp" horiz-adv-x="812" 
d="M349 615h-91l119 97h56l119 -97h-91l-56 50zM264 0h-50l-190 558h79l138 -401l138 401h54l138 -401l138 401h79l-190 -558h-50l-142 414z" />
    <glyph glyph-name="Wdieresis.smcp" horiz-adv-x="812" 
d="M526 602q-14 -14 -33 -14t-34 14q-14 14 -14 34t14 34q15 14 34 14t33 -14q15 -14 15 -34t-15 -34zM351 602q-14 -14 -33 -14t-34 14q-14 14 -14 34t14 34q15 14 34 14t33 -14q15 -14 15 -34t-15 -34zM264 0h-50l-190 558h79l138 -401l138 401h54l138 -401l138 401h79
l-190 -558h-50l-142 414z" />
    <glyph glyph-name="Ygrave.smcp" horiz-adv-x="544" 
d="M317 596h-58l-82 116h97zM311 0h-77v225l-209 333h85l164 -258l161 258h83l-207 -333v-225z" />
    <glyph glyph-name="Yacute.smcp" horiz-adv-x="544" 
d="M299 596h-58l43 116h97zM311 0h-77v225l-209 333h85l164 -258l161 258h83l-207 -333v-225z" />
    <glyph glyph-name="Ycircumflex.smcp" horiz-adv-x="544" 
d="M215 615h-91l119 97h56l119 -97h-91l-56 50zM311 0h-77v225l-209 333h85l164 -258l161 258h83l-207 -333v-225z" />
    <glyph glyph-name="Ydieresis.smcp" horiz-adv-x="544" 
d="M392 601q-15 -14 -34 -14t-34 14q-14 14 -14 34t14 34q15 14 34 14t34 -14t15 -34t-15 -34zM217 601q-15 -14 -34 -14t-34 14q-14 14 -14 34t14 34q15 14 34 14t34 -14t15 -34t-15 -34zM311 0h-77v225l-209 333h85l164 -258l161 258h83l-207 -333v-225z" />
    <glyph glyph-name="Zacute.smcp" horiz-adv-x="553" 
d="M323 596h-58l42 116h98zM515 0h-460v48l348 439h-314v71h418v-52l-344 -436h352v-70z" />
    <glyph glyph-name="Zcaron.smcp" horiz-adv-x="553" 
d="M339 615h-56l-119 97h91l56 -50l56 50h91zM515 0h-460v48l348 439h-314v71h418v-52l-344 -436h352v-70z" />
    <glyph glyph-name="Zdotaccent.smcp" horiz-adv-x="553" 
d="M345 621q-15 -14 -34 -14t-34 14q-14 14 -14 34t14 34q15 14 34 14t34 -14t15 -34t-15 -34zM515 0h-460v48l348 439h-314v71h418v-52l-344 -436h352v-70z" />
    <glyph glyph-name="Eng.smcp" horiz-adv-x="650" 
d="M156 0h-77v558h67l349 -443v443h76v-543q0 -53 -10 -94q-20 -85 -125 -89q-31 0 -53 7v72q15 -9 53 -9q59 0 59 98v1l-339 428v-429z" />
    <glyph glyph-name="Eth.smcp" horiz-adv-x="619" 
d="M275 0h-196v251h-57v70h57v237h195q143 0 224 -78q82 -76 82 -202t-82 -202q-80 -76 -223 -76zM156 251v-181h113q114 0 174.5 56t60.5 152q0 98 -60 153.5t-176 55.5h-112v-166h123v-70h-123z" />
    <glyph glyph-name="Thorn.smcp" horiz-adv-x="431" 
d="M156 0h-77v558h77v-117h53q89 0 137.5 -44.5t48.5 -120.5q0 -74 -46.5 -118t-132.5 -44h-60v-114zM156 370v-185h53q109 0 109 94q0 91 -110 91h-52z" />
    <glyph glyph-name="arrowleft.case" horiz-adv-x="647" 
d="M303 167l-50 -50l-232 231l232 231l50 -50l-145 -145h462v-72h-463z" />
    <glyph glyph-name="arrowup.case" horiz-adv-x="647" 
d="M361 70h-76v442l-130 -131l-50 50l218 219l218 -219l-50 -50l-130 131v-442z" />
    <glyph glyph-name="arrowright.case" horiz-adv-x="647" 
d="M489 312h-463v72h462l-145 145l50 50l232 -231l-232 -231l-50 50z" />
    <glyph glyph-name="arrowdown.case" horiz-adv-x="647" 
d="M323 46l-218 219l50 50l130 -131v442h76v-442l130 131l50 -50z" />
    <glyph glyph-name="arrowboth.case" horiz-adv-x="924" 
d="M303 167l-50 -50l-232 231l232 231l50 -50l-145 -145h608l-145 145l50 50l232 -231l-232 -231l-50 50l146 145h-610z" />
    <glyph glyph-name="arrowupdn.case" horiz-adv-x="647" 
d="M323 -34l-218 219l50 50l130 -131v498l-130 -131l-50 50l218 219l218 -219l-50 -50l-130 131v-498l130 131l50 -50z" />
    <glyph glyph-name="arrownorthwest.case" horiz-adv-x="647" 
d="M195 225h-76v328h328v-74h-204l334 -333l-51 -51l-331 331v-201z" />
    <glyph glyph-name="arrownortheast.case" horiz-adv-x="647" 
d="M452 426l-331 -331l-51 51l334 333h-204v74h328v-328h-76v201z" />
    <glyph glyph-name="arrowsoutheast.case" horiz-adv-x="647" 
d="M528 136h-328v74h204l-334 333l51 51l331 -331v201h76v-328z" />
    <glyph glyph-name="arrowsouthwest.case" horiz-adv-x="647" 
d="M447 136h-328v328h76v-201l331 331l51 -51l-334 -333h204v-74z" />
    <glyph glyph-name="triagup.case" horiz-adv-x="539" 
d="M454 229h-369l179 315z" />
    <glyph glyph-name="triagrt.case" horiz-adv-x="539" 
d="M451 361l-315 -190v369z" />
    <glyph glyph-name="triagdn.case" horiz-adv-x="539" 
d="M454 484l-190 -315l-179 315h369z" />
    <glyph glyph-name="triaglf.case" horiz-adv-x="539" 
d="M403 171l-315 190l315 179v-369z" />
    <glyph glyph-name="uni25E2.case" horiz-adv-x="539" 
d="M433 197l-357 88l261 261z" />
    <glyph glyph-name="uni25E3.case" horiz-adv-x="539" 
d="M463 285l-357 -88l96 349z" />
    <glyph glyph-name="uni25E4.case" horiz-adv-x="539" 
d="M463 427l-261 -261l-96 349z" />
    <glyph glyph-name="uni25E5.case" horiz-adv-x="539" 
d="M433 515l-88 -357l-261 261z" />
    <glyph glyph-name="A.swsh11" 
d="M213 0h-84l264 625h-84q-63 0 -105 -21q-87 -44 -87 -144q0 -49 27 -90t71 -61l-29 -66q-65 28 -105 87.5t-40 129.5q0 69 33.5 123t96.5 86q55 28 138 28h175l295 -697h-84l-72 172h-338zM454 576l-139 -332h278z" />
    <glyph glyph-name="A.swsh12" 
d="M119 0h-84l295 697h175q83 0 138 -28q63 -32 96.5 -86t33.5 -123q0 -70 -40 -129.5t-105 -87.5l-29 66q44 20 71 61t27 90q0 100 -87 144q-42 21 -105 21h-84l264 -625h-84l-72 172h-338zM360 576l-139 -332h278z" />
    <glyph glyph-name="A.swsh21" horiz-adv-x="1065" 
d="M45 213q0 101 72 172q73 72 173 72q118 0 183 -77l-31 -71q-58 76 -152 76q-70 0 -119 -51q-49 -49 -49 -121q0 -67 48 -117q49 -49 116 -49q60 0 103 33q19 15 34 39q21 35 25 43l22 50l205 485h60l295 -697h-84l-72 172h-338l-3 -7q-43 -96 -97 -144q-52 -46 -150 -46
q-100 0 -170 70q-71 71 -71 168zM705 576l-139 -332h278z" />
    <glyph glyph-name="A.swsh22" horiz-adv-x="1065" 
d="M119 0h-84l295 697h60l205 -485l22 -50q4 -8 25 -43q16 -25 33 -39q47 -33 104 -33q67 0 115 49q49 49 49 117q0 71 -50 121q-50 51 -118 51q-94 0 -152 -76l-31 71q65 77 183 77q100 0 172 -72q73 -70 73 -172q0 -97 -71 -168q-70 -70 -170 -70q-98 0 -150 46
q-54 48 -97 144l-3 7h-338zM360 576l-139 -332h278z" />
    <glyph glyph-name="B.swsh11" horiz-adv-x="840" 
d="M579 0h-239v625h-31q-63 0 -105 -21q-87 -44 -87 -144q0 -58 38 -105q37 -46 95 -57l-15 -70q-84 15 -139 81q-55 67 -55 151q0 69 33.5 123t96.5 86q55 28 138 28h244q79 0 133 -51q54 -50 54 -127q0 -103 -89 -140q67 -14 103.5 -59.5t36.5 -113.5q0 -90 -61 -148
q-59 -58 -151 -58zM418 336v-264h156q60 0 99.5 38t39.5 96q0 56 -40 93q-38 37 -100 37h-155zM418 625v-219h130q49 0 81.5 31.5t32.5 78.5t-32 78t-81 31h-131z" />
    <glyph glyph-name="D.swsh11" horiz-adv-x="974" 
d="M565 0h-225v625h-31q-63 0 -105 -21q-87 -44 -87 -144q0 -58 38 -105q37 -46 95 -57l-15 -70q-84 15 -139 81q-55 67 -55 151q0 69 33.5 123t96.5 86q55 28 138 28h255q167 0 263 -96q97 -96 97 -253t-96 -253q-97 -95 -263 -95zM418 625v-553h141q139 0 213 74t74 202
q0 129 -74.5 203t-213.5 74h-140z" />
    <glyph glyph-name="E.swsh11" horiz-adv-x="797" 
d="M741 0h-401v625h-31q-63 0 -105 -21q-87 -44 -87 -144q0 -58 38 -105q37 -46 95 -57l-15 -70q-84 15 -139 81q-55 67 -55 151q0 69 33.5 123t96.5 86q55 28 138 28h425v-72h-316v-221h297v-72h-297v-260h323v-72z" />
    <glyph glyph-name="E.swsh12" horiz-adv-x="833" 
d="M464 0h-372v697h394v-72h-316v-221h297v-72h-297v-260h294q126 0 165 21q41 18 64 56t23 86q0 60 -38 107q-37 46 -95 57l15 70q84 -16 139 -82q55 -65 55 -152q0 -70 -38 -127.5t-103 -83.5q-53 -24 -187 -24z" />
    <glyph glyph-name="F.swsh11" horiz-adv-x="754" 
d="M418 0h-78v625h-31q-63 0 -105 -21q-87 -44 -87 -144q0 -58 38 -105q37 -46 95 -57l-15 -70q-84 15 -139 81q-55 67 -55 151q0 69 33.5 123t96.5 86q55 28 138 28h395v-72h-286v-225h261v-72h-261v-328z" />
    <glyph glyph-name="G.swsh11" horiz-adv-x="740" 
d="M410 710q143 0 241 -91l-49 -54q-79 73 -192 73q-123 0 -204 -83t-81 -207q0 -126 81 -208t204 -82q112 0 191 70v180h-213v72h291v-335q0 -117 -11 -169q-23 -75 -81.5 -116t-143.5 -41q-87 0 -148.5 52.5t-77.5 137.5l73 17q12 -61 53 -98t100 -37q57 0 96 27t54 76
q8 40 8 150v1q-77 -59 -191 -59q-152 0 -258 103q-105 103 -105 259q0 154 105 258q107 104 258 104z" />
    <glyph glyph-name="H.swsh11" horiz-adv-x="975" 
d="M418 0h-78v625h-31q-63 0 -105 -21q-87 -44 -87 -144q0 -58 38 -105q37 -46 95 -57l-15 -70q-84 15 -139 81q-55 67 -55 151q0 69 33.5 123t96.5 86q55 28 138 28h109v-291h387v291h78v-697h-78v334h-387v-334z" />
    <glyph glyph-name="H.swsh12" horiz-adv-x="1022" 
d="M170 0h-78v697h78v-291h387v291h78v-625h31q63 0 105 21q87 43 87 144q0 58 -38 105q-37 46 -95 57l15 70q83 -15 138 -82q56 -67 56 -150q0 -69 -33.5 -123t-96.5 -86q-55 -28 -138 -28h-109v334h-387v-334z" />
    <glyph glyph-name="I.swsh11" horiz-adv-x="514" 
d="M418 0h-78v625h-31q-63 0 -105 -21q-87 -44 -87 -144q0 -58 38 -105q37 -46 95 -57l-15 -70q-84 15 -139 81q-55 67 -55 151q0 69 33.5 123t96.5 86q55 28 138 28h109v-697z" />
    <glyph glyph-name="I.swsh21" horiz-adv-x="622" 
d="M526 0h-78v426q0 59 -4 82q-5 29 -17 53q-19 39 -56.5 61t-85.5 22q-67 0 -115 -48t-48 -115q0 -66 47 -113q47 -46 116 -46q29 0 60 11l25 -66q-48 -17 -85 -17q-101 0 -171 67q-69 67 -69 164q0 96 70 165q70 70 170 70q104 0 172 -67q38 -38 53.5 -88t15.5 -125v-436z
" />
    <glyph glyph-name="J.swsh11" horiz-adv-x="505" 
d="M134 -10v74q42 -15 88 -15q75 0 98 45q20 39 20 105v426h-31q-63 0 -105 -21q-87 -44 -87 -144q0 -58 38 -105q37 -46 95 -57l-15 -70q-84 15 -139 81q-55 67 -55 151q0 69 33.5 123t96.5 86q55 28 138 28h109v-495q0 -78 -17 -128q-31 -94 -174 -98q-54 0 -93 14z" />
    <glyph glyph-name="J.swsh12" horiz-adv-x="563" 
d="M14 -5v74q24 -10 53 -10q46 3 62.5 35.5t15.5 94.5v508h109q83 0 138 -28q63 -32 96.5 -86t33.5 -123q0 -83 -56 -151q-56 -66 -138 -81l-15 70q58 11 95 57q38 47 38 105q0 100 -87 144q-42 21 -105 21h-31v-433q0 -73 -13 -116q-24 -85 -138 -90q-29 0 -58 9z" />
    <glyph glyph-name="J.swsh21" horiz-adv-x="593" 
d="M45 201q0 81 54 142q55 63 136 79l25 -69q-59 -9 -99 -52q-39 -43 -39 -100q0 -65 43 -109q44 -44 110 -44q45 0 82 22.5t55 61.5q16 41 16 134v359h-262v72h340v-441q0 -148 -62 -213q-64 -67 -169 -67q-101 0 -165 66q-65 67 -65 159z" />
    <glyph glyph-name="K.swsh11" horiz-adv-x="886" 
d="M418 0h-78v625h-31q-63 0 -105 -21q-87 -44 -87 -144q0 -58 38 -105q37 -46 95 -57l-15 -70q-84 15 -139 81q-55 67 -55 151q0 69 33.5 123t96.5 86q55 28 138 28h109v-370l335 370h96l-278 -304l286 -393h-94l-244 336l-101 -110v-226z" />
    <glyph glyph-name="K.swsh12" horiz-adv-x="953" 
d="M170 0h-78v697h78v-370l335 370h96l-278 -304l159 -219q53 -73 93 -104t99 -31q64 0 111 48q46 49 46 118q0 68 -47 118q-46 49 -110 49q-49 0 -93 -29l-43 58q61 43 136 43q98 0 165 -70q69 -71 69 -169q0 -97 -68 -168q-67 -70 -166 -70q-95 0 -155 52q-36 32 -51 50
q-31 39 -50 65l-147 202l-101 -110v-226z" />
    <glyph glyph-name="L.swsh11" horiz-adv-x="744" 
d="M705 0h-365v625h-31q-63 0 -105 -21q-87 -44 -87 -144q0 -58 38 -105q37 -46 95 -57l-15 -70q-84 15 -139 81q-55 67 -55 151q0 69 33.5 123t96.5 86q55 28 138 28h109v-625h287v-72z" />
    <glyph glyph-name="L.swsh12" horiz-adv-x="618" 
d="M531 0h-439v466q0 115 70 184q68 66 171 66q100 0 165 -68t65 -162q0 -83 -56 -148q-55 -64 -139 -79l-13 71q55 10 94 55q37 43 37 101q0 65 -44 112q-43 46 -109 46q-73 0 -118 -49.5t-45 -128.5v-394h361v-72z" />
    <glyph glyph-name="M.swsh11" horiz-adv-x="1107" 
d="M417 0h-77v625h-31q-63 0 -105 -21q-87 -44 -87 -144q0 -58 38 -105q37 -46 95 -57l-15 -70q-84 15 -139 81q-55 67 -55 151q0 69 33.5 123t96.5 86q55 28 138 28h103l266 -442l266 442h71v-697h-77v543l-260 -426l-261 425v-542z" />
    <glyph glyph-name="M.swsh12" horiz-adv-x="1107" 
d="M169 0h-77v697h72l266 -442l266 442h71v-625h31q63 0 105 21q87 43 87 144q0 58 -38 105q-37 46 -95 57l15 70q83 -15 138 -82q56 -67 56 -150q0 -69 -33.5 -123t-96.5 -86q-55 -28 -138 -28h-108v543l-260 -426l-261 425v-542z" />
    <glyph glyph-name="M.swsh21" horiz-adv-x="1156" 
d="M466 0h-77v514q0 127 -102 127q-73 0 -119 -48q-46 -47 -46 -119q0 -60 38 -105.5t95 -57.5l-20 -69q-85 16 -138 83q-52 65 -52 149q0 103 70 170q72 69 177 69q90 0 150 -42q61 -43 116 -135l169 -281l266 442h71v-697h-77v543l-260 -426l-234 382q-18 30 -27 40v-539z
" />
    <glyph glyph-name="M.swsh22" horiz-adv-x="1156" 
d="M169 0h-77v697h71l266 -442l169 281q55 92 116 135q60 42 150 42q105 0 177 -69q70 -67 70 -170q0 -82 -53 -149t-137 -83l-20 69q57 12 95 57.5t38 105.5q0 70 -47 119q-47 48 -118 48q-102 0 -102 -127v-514h-77v539q-9 -10 -27 -40l-234 -382l-260 426v-543z" />
    <glyph glyph-name="N.swsh11" horiz-adv-x="999" 
d="M418 0h-78v625h-31q-63 0 -105 -21q-87 -44 -87 -144q0 -58 38 -105q37 -46 95 -57l-15 -70q-84 15 -139 81q-55 67 -55 151q0 69 33.5 123t96.5 86q55 28 138 28h99l421 -558v558h78v-697h-63l-426 564v-564z" />
    <glyph glyph-name="N.swsh12" horiz-adv-x="999" 
d="M170 0h-78v697h68l421 -558v558h109q82 0 137 -28q63 -32 97 -86t34 -123q0 -83 -56 -151q-56 -66 -138 -81l-15 70q58 11 95 57q38 47 38 105q0 100 -87 144q-42 21 -105 21h-31v-625h-63l-426 564v-564z" />
    <glyph glyph-name="N.swsh21" horiz-adv-x="1048" 
d="M467 0h-78v517q0 124 -102 124q-68 0 -117 -49q-48 -50 -48 -118q0 -60 38 -105.5t95 -57.5l-19 -69q-81 15 -136 81q-55 67 -55 151q0 103 74 172q70 67 173 67q86 0 150 -37q26 -14 55 -43t42 -45l39 -51l300 -398v558h78v-697h-63l-374 494q-4 4 -25 32q-18 26 -27 35
v-561z" />
    <glyph glyph-name="N.swsh22" horiz-adv-x="1107" 
d="M170 0h-78v697h68l421 -558v312q0 75 15.5 125t53.5 88q68 67 172 67q99 0 169 -70q71 -69 71 -165q0 -97 -70 -164q-68 -67 -170 -67q-37 0 -85 17l25 66q31 -11 60 -11q69 0 115 46q48 47 48 113q0 68 -48 115q-46 48 -115 48q-48 0 -85.5 -22.5t-56.5 -61.5
q-12 -24 -17 -52q-4 -23 -4 -82v-441h-63l-426 564v-564z" />
    <glyph glyph-name="O.swsh11" horiz-adv-x="989" 
d="M45 503q0 61 29.5 117t80.5 89l40 -63q-73 -52 -73 -143q0 -51 24.5 -93.5t65.5 -64.5l4 -2v5q0 154 105 258q107 104 258 104t257 -104q106 -103 106 -258q0 -156 -106 -259q-104 -103 -257 -103q-129 0 -229 77q-98 78 -125 203l-3 1q-78 22 -128 87q-49 64 -49 149z
M305 258q25 -88 100 -145q74 -55 174 -55q123 0 204 82t81 208q0 124 -81 207t-204 83q-23 0 -56 -5q27 -54 27 -111q0 -105 -70 -181q-70 -75 -175 -83zM293 348v-21q77 1 130 58q53 58 53 137q0 48 -22 89q-75 -34 -118 -104t-43 -159z" />
    <glyph glyph-name="O.swsh12" horiz-adv-x="989" 
d="M773 348v-5l4 2q41 22 65.5 64.5t24.5 93.5q0 91 -73 143l40 63q51 -33 80.5 -89t29.5 -117q0 -85 -49 -149q-50 -65 -128 -87l-3 -1q-27 -125 -126 -203q-98 -77 -228 -77q-152 0 -258 103q-105 103 -105 259q0 154 105 258q107 104 258 104t257 -104q106 -103 106 -258
zM410 58q100 0 173 55q76 56 101 145q-105 8 -175 83q-70 76 -70 181q0 57 27 111q-33 5 -56 5q-123 0 -204 -83t-81 -207q0 -126 81 -208t204 -82zM513 522q0 -81 52 -137q53 -57 131 -58v21q0 89 -43 159t-118 104q-22 -41 -22 -89z" />
    <glyph glyph-name="P.swsh11" horiz-adv-x="821" 
d="M418 0h-78v625h-31q-63 0 -105 -21q-87 -44 -87 -144q0 -58 38 -105q37 -46 95 -57l-15 -70q-84 15 -139 81q-55 67 -55 151q0 69 33.5 123t96.5 86q55 28 138 28h254q90 0 151 -61q62 -60 62 -151q0 -90 -62 -152q-62 -60 -151 -60h-145v-273zM418 625v-280h142
q59 0 98 40q40 40 40 100t-40 100q-39 40 -98 40h-142z" />
    <glyph glyph-name="P.swsh21" horiz-adv-x="929" 
d="M45 84q0 96 70 163q71 68 170 68q46 0 85 -17l-24 -67q-29 12 -61 12q-67 0 -116 -47q-47 -47 -47 -112q0 -68 48 -115q48 -48 115 -48q48 0 85.5 22t56.5 61q12 24 17 52q4 23 4 83v558h223q90 0 151 -61q62 -60 62 -151q0 -90 -62 -152q-62 -60 -151 -60h-145v-144
q0 -75 -15.5 -125t-53.5 -88q-68 -67 -172 -67q-100 0 -170 70q-70 69 -70 165zM526 625v-280h142q59 0 98 40q40 40 40 100t-40 100q-39 40 -98 40h-142z" />
    <glyph glyph-name="Q.swsh11" horiz-adv-x="835" 
d="M47 348q0 154 105 258q107 104 258 104t257 -104q106 -103 106 -258q0 -138 -84 -235q-83 -99 -212 -121q-26 -35 -26 -73q0 -57 42 -98q44 -41 104 -41q62 0 106 44t44 104q0 70 -54 114l50 53q79 -66 79 -167q0 -92 -66 -156q-64 -64 -159 -64q-92 0 -156 61
q-65 62 -65 150q0 31 15 68h-1q-145 7 -245 109q-98 103 -98 252zM205 555q-81 -83 -81 -207q0 -126 81 -208q82 -82 205 -82t204 82t81 208q0 124 -81 207t-204 83q-122 0 -205 -83z" />
    <glyph glyph-name="R.swsh11" horiz-adv-x="854" 
d="M418 0h-78v625h-31q-63 0 -105 -21q-87 -44 -87 -144q0 -58 38 -105q37 -46 95 -57l-15 -70q-84 15 -139 81q-55 67 -55 151q0 69 33.5 123t96.5 86q55 28 138 28h269q86 0 148 -60q61 -58 61 -148q0 -68 -36 -121t-97 -77l168 -291h-89l-157 276h-1h-157v-276zM418 625
v-277h152q60 0 99 40q40 40 40 101q0 58 -38 97t-96 39h-157z" />
    <glyph glyph-name="R.swsh12" horiz-adv-x="958" 
d="M170 0h-78v697h238q86 0 148 -60q61 -58 61 -148q0 -68 -36 -121t-97 -77l100 -174q39 -68 81 -99t97 -31q64 0 107 48q45 49 45 118q0 65 -50 112t-117 47q-46 0 -88 -24l-36 62q56 34 124 34q102 0 172 -67q72 -66 72 -164q0 -97 -66 -168q-66 -70 -163 -70
q-84 0 -139 40q-54 40 -107 130l-110 191h-1h-157v-276zM170 625v-277h152q60 0 99 40q40 40 40 101q0 58 -38 97t-96 39h-157z" />
    <glyph glyph-name="R.swsh21" horiz-adv-x="962" 
d="M45 84q0 96 70 163q71 68 170 68q37 0 85 -17l-25 -66q-31 11 -60 11q-67 0 -116 -47q-47 -47 -47 -112q0 -68 48 -115q48 -48 115 -48q48 0 85.5 22t56.5 61q12 24 17 52q4 23 4 83v558h238q86 0 148 -60q61 -58 61 -148q0 -68 -36 -121t-97 -77l168 -291h-89l-157 276
h-1h-157v-147q0 -75 -15.5 -125t-53.5 -88q-68 -67 -172 -67q-100 0 -170 70q-70 69 -70 165zM526 625v-277h152q60 0 99 40q40 40 40 101q0 58 -38 97t-96 39h-157z" />
    <glyph glyph-name="T.swsh11" horiz-adv-x="716" 
d="M496 0h-78v625h-109q-63 0 -105 -21q-87 -44 -87 -144q0 -58 38 -105q37 -46 95 -57l-15 -70q-84 15 -139 81q-55 67 -55 151q0 69 33.5 123t96.5 86q55 28 138 28h377v-72h-190v-625z" />
    <glyph glyph-name="T.swsh12" horiz-adv-x="716" 
d="M298 0h-78v625h-190v72h377q83 0 138 -28q63 -32 96.5 -86t33.5 -123q0 -83 -56 -151q-55 -66 -138 -81l-15 70q58 11 95 57q38 47 38 105q0 100 -87 144q-42 21 -105 21h-109v-625z" />
    <glyph glyph-name="U.swsh11" horiz-adv-x="949" 
d="M340 244v381h-31q-63 0 -105 -21q-87 -44 -87 -144q0 -58 38 -105q37 -46 95 -57l-15 -70q-84 15 -139 81q-55 67 -55 151q0 69 33.5 123t96.5 86q55 28 138 28h109v-445q0 -93 48.5 -142.5t134.5 -49.5t134.5 49.5t48.5 142.5v445h78v-453q0 -122 -72 -190
q-72 -66 -189 -66t-189 66q-72 68 -72 190z" />
    <glyph glyph-name="U.swsh12" horiz-adv-x="949" 
d="M87 244v453h78v-445q0 -93 48.5 -142.5t134.5 -49.5t134.5 49.5t48.5 142.5v445h109q83 0 138 -28q63 -32 96.5 -86t33.5 -123q0 -83 -56 -151q-56 -66 -138 -81l-15 70q58 11 95 57q38 47 38 105q0 100 -87 144q-42 21 -105 21h-31v-381q0 -122 -72 -190
q-72 -66 -189 -66t-189 66q-72 68 -72 190z" />
    <glyph glyph-name="U.swsh21" horiz-adv-x="1057" 
d="M448 244v182q0 59 -4 82q-5 29 -17 53q-19 39 -56.5 61t-85.5 22q-67 0 -115 -48t-48 -115q0 -66 47 -113q47 -46 116 -46q29 0 60 11l25 -66q-48 -17 -85 -17q-101 0 -171 67q-69 67 -69 164q0 96 70 165q70 70 170 70q104 0 172 -67q38 -38 53.5 -88t15.5 -125v-184
q0 -93 48.5 -142.5t134.5 -49.5t134.5 49.5t48.5 142.5v445h78v-453q0 -122 -72 -190q-72 -66 -189 -66t-189 66q-72 67 -72 190z" />
    <glyph glyph-name="U.swsh22" horiz-adv-x="1057" 
d="M87 244v453h78v-445q0 -93 48.5 -142.5t134.5 -49.5t134.5 49.5t48.5 142.5v184q0 75 15.5 125t53.5 88q68 67 172 67q101 0 170 -70q70 -69 70 -165q0 -97 -70 -164q-68 -67 -170 -67q-37 0 -85 17l25 66q31 -11 60 -11q69 0 115 46q48 47 48 113q0 67 -48 115
q-47 48 -115 48q-48 0 -85.5 -22t-56.5 -61q-12 -24 -17 -53q-4 -23 -4 -82v-182q0 -122 -72 -190q-72 -66 -189 -66t-189 66q-72 68 -72 190z" />
    <glyph glyph-name="V.swsh11" horiz-adv-x="937" 
d="M610 0h-55l-262 625q-51 -1 -89 -21q-87 -44 -87 -144q0 -58 38 -105q37 -46 95 -57l-15 -70q-84 15 -139 81q-55 67 -55 151q0 69 33.5 123t96.5 86q55 28 138 28h39l235 -566l234 566h85z" />
    <glyph glyph-name="V.swsh12" horiz-adv-x="937" 
d="M382 0h-55l-292 697h85l234 -566l235 566h39q83 0 138 -28q63 -32 96.5 -86t33.5 -123q0 -83 -56 -151q-56 -66 -138 -81l-15 70q58 11 95 57q38 47 38 105q0 100 -87 144q-37 20 -90 21z" />
    <glyph glyph-name="V.swsh21" horiz-adv-x="1050" 
d="M723 0h-55l-204 485q-19 44 -20 46q-5 13 -23 42q-15 27 -33 41q-44 36 -103 36q-67 0 -115 -49t-48 -117q0 -71 51 -122q52 -50 122 -50q89 0 157 64l31 -68q-74 -68 -188 -68q-102 0 -176 71q-74 72 -74 173q0 97 71 168q70 70 169 70q67 0 116 -27q46 -25 74 -63
t57 -107l164 -394l234 566h85z" />
    <glyph glyph-name="V.swsh22" horiz-adv-x="1050" 
d="M382 0h-55l-292 697h85l234 -566l164 394q26 62 54 104q29 42 79 67.5t114 25.5q99 0 169 -70q71 -71 71 -168q0 -101 -74 -173q-74 -71 -176 -71q-114 0 -188 68l31 68q68 -64 157 -64q70 0 122 50q51 51 51 122q0 68 -48 117t-115 49q-59 0 -103 -36q-18 -14 -33 -41
q-17 -27 -24 -42l-19 -46z" />
    <glyph glyph-name="W.swsh11" horiz-adv-x="1177" 
d="M538 0h-50l-183 625q-64 -2 -101 -21q-87 -44 -87 -144q0 -58 38 -105q37 -46 95 -57l-15 -70q-84 15 -139 81q-55 67 -55 151q0 69 33.5 123t96.5 86q55 28 138 28h54l155 -527l172 527h54l172 -527l155 527h79l-204 -697h-50l-179 539z" />
    <glyph glyph-name="W.swsh12" horiz-adv-x="1177" 
d="M281 0h-50l-204 697h79l155 -527l172 527h54l172 -527l155 527h54q83 0 138 -28q63 -32 96.5 -86t33.5 -123q0 -83 -56 -151q-56 -66 -138 -81l-15 70q58 11 95 57q38 47 38 105q0 100 -87 144q-41 20 -102 21l-182 -625h-50l-179 539z" />
    <glyph glyph-name="W.swsh21" horiz-adv-x="1293" 
d="M654 0h-50l-147 502q-43 148 -172 148q-67 0 -115 -49t-48 -117q0 -71 51 -122q52 -50 122 -50q87 0 154 60l24 -72q-72 -60 -178 -60q-102 0 -176 71q-74 72 -74 173q0 97 71 168q70 70 169 70q185 0 244 -197l105 -355l172 527h54l172 -527l155 527h79l-204 -697h-50
l-179 539z" />
    <glyph glyph-name="W.swsh22" horiz-adv-x="1293" 
d="M281 0h-50l-204 697h79l155 -527l172 527h54l172 -527l105 355q59 197 244 197q99 0 169 -70q71 -71 71 -168q0 -101 -74 -173q-74 -71 -176 -71q-106 0 -178 60l24 72q67 -60 154 -60q70 0 122 50q51 51 51 122q0 68 -48 117t-115 49q-129 0 -172 -148l-147 -502h-50
l-179 539z" />
    <glyph glyph-name="X.swsh11" horiz-adv-x="861" 
d="M333 0h-83l234 361l-173 264q-65 0 -107 -21q-87 -44 -87 -144q0 -58 38 -105q37 -46 95 -57l-15 -70q-84 15 -139 81q-55 67 -55 151q0 69 33.5 123t96.5 86q55 28 138 28h42l184 -283l183 283h84l-219 -337l236 -360h-88l-200 306z" />
    <glyph glyph-name="X.swsh12" horiz-adv-x="861" 
d="M130 0h-88l236 360l-219 337h84l183 -283l184 283h42q83 0 138 -28q63 -32 96.5 -86t33.5 -123q0 -83 -56 -151q-56 -66 -138 -81l-15 70q58 11 95 57q38 47 38 105q0 100 -87 144q-42 21 -107 21l-173 -264l234 -361h-83l-198 306z" />
    <glyph glyph-name="X.swsh21" horiz-adv-x="951" 
d="M423 0h-83l234 361l-90 137q-29 43 -39 56q-15 20 -37 42q-44 45 -116 45q-71 0 -120 -49q-50 -50 -50 -118q0 -69 49 -118q49 -48 117 -48q49 0 89 25l39 -61q-58 -36 -128 -36q-101 0 -172 70q-71 71 -71 168q0 100 72 169q73 70 175 70q101 0 160 -59q34 -32 49 -53
l44 -64l80 -123l183 283h84l-219 -337l236 -360h-88l-200 306z" />
    <glyph glyph-name="X.swsh22" horiz-adv-x="991" 
d="M125 0h-83l234 361l-220 336h87l184 -283l183 283h84l-219 -337l133 -206q47 -75 87 -109q41 -32 104 -32q71 0 120 48q50 50 50 118q0 69 -49 118t-118 49q-51 0 -91 -28l-40 61q59 39 131 39q102 0 172 -70q72 -70 72 -169q0 -98 -73 -168q-71 -70 -174 -70
q-73 0 -132 36q-21 13 -47 40q-14 15 -38 45l-35 53l-124 191z" />
    <glyph glyph-name="Y.swsh11" horiz-adv-x="846" 
d="M575 0h-78v286l-202 339q-53 -1 -91 -21q-87 -44 -87 -144q0 -58 38 -105q37 -46 95 -57l-15 -70q-84 15 -139 81q-55 67 -55 151q0 69 33.5 123t96.5 86q55 28 138 28h29l199 -334l197 334h84l-243 -411v-286z" />
    <glyph glyph-name="Y.swsh12" horiz-adv-x="848" 
d="M351 0h-78v286l-243 411h84l197 -334l199 334h29q83 0 138 -28q63 -32 96.5 -86t33.5 -123q0 -83 -56 -151q-55 -66 -138 -81l-15 70q58 11 95 57q38 47 38 105q0 100 -87 144q-38 20 -91 21l-202 -339v-286z" />
    <glyph glyph-name="Y.swsh21" horiz-adv-x="951" 
d="M680 0h-78v286l-129 217q-44 74 -83 105q-40 33 -103 33q-71 0 -120 -49q-50 -50 -50 -118t48 -118q49 -48 118 -48q52 0 93 28l37 -62q-61 -38 -130 -38q-98 0 -168 70t-70 168t71 169q70 70 171 70q85 0 141 -41.5t109 -132.5l105 -176l197 334h84l-243 -411v-286z" />
    <glyph glyph-name="Y.swsh22" horiz-adv-x="953" 
d="M351 0h-78v286l-243 411h84l197 -334l105 176q53 91 109 132.5t141 41.5q101 0 171 -70q71 -71 71 -169t-70 -168t-168 -70q-69 0 -130 38l37 62q41 -28 93 -28q69 0 117 48q49 49 49 118q0 68 -50 118q-49 49 -120 49q-62 0 -103 -33q-39 -31 -83 -105l-129 -217v-286z
" />
    <glyph glyph-name="Z.swsh11" horiz-adv-x="721" 
d="M675 0h-607v51l501 574h-272q-91 0 -138 -40q-37 -37 -37 -99q0 -50 32 -87.5t81 -46.5l-28 -71q-69 16 -116 74q-46 58 -46 131q0 93 62 149q39 34 81 48t109 14h380v-61l-494 -564h492v-72z" />
    <glyph glyph-name="Z.swsh12" horiz-adv-x="858" 
d="M489 0h-445v48l428 577h-379v72h484v-52l-425 -573h337q126 0 165 21q41 18 64 56t23 86q0 60 -38 107q-37 46 -95 57l15 70q84 -16 139 -82q55 -65 55 -152q0 -70 -38 -127.5t-103 -83.5q-52 -24 -187 -24z" />
    <glyph glyph-name="uni2116.swsh" horiz-adv-x="1471" 
d="M1081 342q-58 57 -58 140t58 140q59 57 140 57t140 -57q58 -57 58 -140t-58 -140q-59 -57 -140 -57t-140 57zM1133 572q-36 -38 -36 -90q0 -54 36 -91t88 -37t88 37t36 91q0 52 -36 90t-88 38t-88 -38zM1411 145h-375v69h375v-69zM467 0h-78v517q0 64 -25 94t-77 30
q-68 0 -117 -49q-48 -50 -48 -118q0 -60 38 -105.5t95 -57.5l-19 -69q-81 15 -136 81q-55 67 -55 151q0 108 81 178q70 61 166 61q76 0 137 -33q33 -19 62 -48q31 -30 44 -50l43 -60l258 -374v549h78v-697h-63l-332 479q-28 41 -52 69v-548z" />
    <glyph glyph-name="Agrave.swsh11" 
d="M213 0h-84l264 625h-84q-63 0 -105 -21q-87 -44 -87 -144q0 -49 27 -90t71 -61l-29 -66q-65 28 -105 87.5t-40 129.5q0 69 33.5 123t96.5 86q55 28 138 28h175l295 -697h-84l-72 172h-338zM454 576l-139 -332h278zM480 745h-59l-93 145h99z" />
    <glyph glyph-name="Agrave.swsh12" 
d="M119 0h-84l295 697h175q83 0 138 -28q63 -32 96.5 -86t33.5 -123q0 -70 -40 -129.5t-105 -87.5l-29 66q44 20 71 61t27 90q0 100 -87 144q-42 21 -105 21h-84l264 -625h-84l-72 172h-338zM360 576l-139 -332h278zM396 745h-59l-93 145h99z" />
    <glyph glyph-name="Agrave.swsh21" horiz-adv-x="1070" 
d="M45 213q0 101 72 172q73 72 173 72q118 0 183 -77l-31 -71q-58 76 -152 76q-70 0 -119 -51q-49 -49 -49 -121q0 -67 48 -117q49 -49 116 -49q60 0 103 33q19 15 34 39q21 35 25 43l22 50l205 485h60l295 -697h-84l-72 172h-338l-3 -7q-43 -96 -97 -144q-52 -46 -150 -46
q-100 0 -170 70q-71 71 -71 168zM705 576l-139 -332h278zM736 745h-59l-93 145h99z" />
    <glyph glyph-name="Agrave.swsh22" horiz-adv-x="1070" 
d="M119 0h-84l295 697h60l205 -485l22 -50q4 -8 25 -43q16 -25 33 -39q47 -33 104 -33q67 0 115 49q49 49 49 117q0 71 -50 121q-50 51 -118 51q-94 0 -152 -76l-31 71q65 77 183 77q100 0 172 -72q73 -70 73 -172q0 -97 -71 -168q-70 -70 -170 -70q-98 0 -150 46
q-54 48 -97 144l-3 7h-338zM360 576l-139 -332h278zM396 745h-59l-93 145h99z" />
    <glyph glyph-name="Aacute.swsh11" 
d="M213 0h-84l264 625h-84q-63 0 -105 -21q-87 -44 -87 -144q0 -49 27 -90t71 -61l-29 -66q-65 28 -105 87.5t-40 129.5q0 69 33.5 123t96.5 86q55 28 138 28h175l295 -697h-84l-72 172h-338zM454 576l-139 -332h278zM474 745h-59l53 145h99z" />
    <glyph glyph-name="Aacute.swsh12" 
d="M119 0h-84l295 697h175q83 0 138 -28q63 -32 96.5 -86t33.5 -123q0 -70 -40 -129.5t-105 -87.5l-29 66q44 20 71 61t27 90q0 100 -87 144q-42 21 -105 21h-84l264 -625h-84l-72 172h-338zM360 576l-139 -332h278zM390 745h-59l53 145h99z" />
    <glyph glyph-name="Aacute.swsh21" horiz-adv-x="1070" 
d="M45 213q0 101 72 172q73 72 173 72q118 0 183 -77l-31 -71q-58 76 -152 76q-70 0 -119 -51q-49 -49 -49 -121q0 -67 48 -117q49 -49 116 -49q60 0 103 33q19 15 34 39q21 35 25 43l22 50l205 485h60l295 -697h-84l-72 172h-338l-3 -7q-43 -96 -97 -144q-52 -46 -150 -46
q-100 0 -170 70q-71 71 -71 168zM705 576l-139 -332h278zM730 745h-59l53 145h99z" />
    <glyph glyph-name="Aacute.swsh22" horiz-adv-x="1070" 
d="M119 0h-84l295 697h60l205 -485l22 -50q4 -8 25 -43q16 -25 33 -39q47 -33 104 -33q67 0 115 49q49 49 49 117q0 71 -50 121q-50 51 -118 51q-94 0 -152 -76l-31 71q65 77 183 77q100 0 172 -72q73 -70 73 -172q0 -97 -71 -168q-70 -70 -170 -70q-98 0 -150 46
q-54 48 -97 144l-3 7h-338zM360 576l-139 -332h278zM390 745h-59l53 145h99z" />
    <glyph glyph-name="Acircumflex.swsh11" 
d="M388 769h-91l126 121h62l126 -121h-91l-66 66zM213 0h-84l264 625h-84q-63 0 -105 -21q-87 -44 -87 -144q0 -49 27 -90t71 -61l-29 -66q-65 28 -105 87.5t-40 129.5q0 69 33.5 123t96.5 86q55 28 138 28h175l295 -697h-84l-72 172h-338zM454 576l-139 -332h278z" />
    <glyph glyph-name="Acircumflex.swsh12" 
d="M294 769h-91l126 121h62l126 -121h-91l-66 66zM119 0h-84l295 697h175q83 0 138 -28q63 -32 96.5 -86t33.5 -123q0 -70 -40 -129.5t-105 -87.5l-29 66q44 20 71 61t27 90q0 100 -87 144q-42 21 -105 21h-84l264 -625h-84l-72 172h-338zM360 576l-139 -332h278z" />
    <glyph glyph-name="Acircumflex.swsh21" horiz-adv-x="1070" 
d="M644 769h-91l126 121h62l126 -121h-91l-66 66zM45 213q0 101 72 172q73 72 173 72q118 0 183 -77l-31 -71q-58 76 -152 76q-70 0 -119 -51q-49 -49 -49 -121q0 -67 48 -117q49 -49 116 -49q60 0 103 33q19 15 34 39q21 35 25 43l22 50l205 485h60l295 -697h-84l-72 172
h-338l-3 -7q-43 -96 -97 -144q-52 -46 -150 -46q-100 0 -170 70q-71 71 -71 168zM705 576l-139 -332h278z" />
    <glyph glyph-name="Acircumflex.swsh22" horiz-adv-x="1070" 
d="M294 769h-91l126 121h62l126 -121h-91l-66 66zM119 0h-84l295 697h60l205 -485l22 -50q4 -8 25 -43q16 -25 33 -39q47 -33 104 -33q67 0 115 49q49 49 49 117q0 71 -50 121q-50 51 -118 51q-94 0 -152 -76l-31 71q65 77 183 77q100 0 172 -72q73 -70 73 -172
q0 -97 -71 -168q-70 -70 -170 -70q-98 0 -150 46q-54 48 -97 144l-3 7h-338zM360 576l-139 -332h278z" />
    <glyph glyph-name="Atilde.swsh11" 
d="M213 0h-84l264 625h-84q-63 0 -105 -21q-87 -44 -87 -144q0 -49 27 -90t71 -61l-29 -66q-65 28 -105 87.5t-40 129.5q0 69 33.5 123t96.5 86q55 28 138 28h175l295 -697h-84l-72 172h-338zM454 576l-139 -332h278zM356 758l-49 4q5 41 29.5 66.5t60.5 25.5q26 0 63 -20
q37 -19 54 -19q35 0 46 41l49 -4q-11 -98 -92 -98q-28 0 -65 19q-37 20 -53 20q-35 0 -43 -35z" />
    <glyph glyph-name="Atilde.swsh12" 
d="M119 0h-84l295 697h175q83 0 138 -28q63 -32 96.5 -86t33.5 -123q0 -70 -40 -129.5t-105 -87.5l-29 66q44 20 71 61t27 90q0 100 -87 144q-42 21 -105 21h-84l264 -625h-84l-72 172h-338zM360 576l-139 -332h278zM262 758l-49 4q5 41 29.5 66.5t60.5 25.5q26 0 63 -20
q37 -19 54 -19q35 0 46 41l49 -4q-11 -98 -92 -98q-28 0 -65 19q-37 20 -53 20q-35 0 -43 -35z" />
    <glyph glyph-name="Atilde.swsh21" horiz-adv-x="1070" 
d="M45 213q0 101 72 172q73 72 173 72q118 0 183 -77l-31 -71q-58 76 -152 76q-70 0 -119 -51q-49 -49 -49 -121q0 -67 48 -117q49 -49 116 -49q60 0 103 33q19 15 34 39q21 35 25 43l22 50l205 485h60l295 -697h-84l-72 172h-338l-3 -7q-43 -96 -97 -144q-52 -46 -150 -46
q-100 0 -170 70q-71 71 -71 168zM705 576l-139 -332h278zM612 758l-49 4q5 41 29.5 66.5t60.5 25.5q26 0 63 -20q37 -19 54 -19q35 0 46 41l49 -4q-11 -98 -92 -98q-28 0 -65 19q-37 20 -53 20q-35 0 -43 -35z" />
    <glyph glyph-name="Atilde.swsh22" horiz-adv-x="1070" 
d="M119 0h-84l295 697h60l205 -485l22 -50q4 -8 25 -43q16 -25 33 -39q47 -33 104 -33q67 0 115 49q49 49 49 117q0 71 -50 121q-50 51 -118 51q-94 0 -152 -76l-31 71q65 77 183 77q100 0 172 -72q73 -70 73 -172q0 -97 -71 -168q-70 -70 -170 -70q-98 0 -150 46
q-54 48 -97 144l-3 7h-338zM360 576l-139 -332h278zM262 758l-49 4q5 41 29.5 66.5t60.5 25.5q26 0 63 -20q37 -19 54 -19q35 0 46 41l49 -4q-11 -98 -92 -98q-28 0 -65 19q-37 20 -53 20q-35 0 -43 -35z" />
    <glyph glyph-name="Adieresis.swsh11" 
d="M592 758q-15 -14 -35 -14t-35 14q-15 15 -15 36t15 35q15 15 35 15t35 -15q15 -14 15 -35t-15 -36zM386 758q-15 -14 -35 -14t-35 14q-15 15 -15 36t15 35q15 15 35 15t35 -15q15 -14 15 -35t-15 -36zM213 0h-84l264 625h-84q-63 0 -105 -21q-87 -44 -87 -144
q0 -49 27 -90t71 -61l-29 -66q-65 28 -105 87.5t-40 129.5q0 69 33.5 123t96.5 86q55 28 138 28h175l295 -697h-84l-72 172h-338zM454 576l-139 -332h278z" />
    <glyph glyph-name="Adieresis.swsh12" 
d="M498 758q-15 -14 -35 -14t-35 14q-15 15 -15 36t15 35q15 15 35 15t35 -15q15 -14 15 -35t-15 -36zM292 758q-15 -14 -35 -14t-35 14q-15 15 -15 36t15 35q15 15 35 15t35 -15q15 -14 15 -35t-15 -36zM119 0h-84l295 697h175q83 0 138 -28q63 -32 96.5 -86t33.5 -123
q0 -70 -40 -129.5t-105 -87.5l-29 66q44 20 71 61t27 90q0 100 -87 144q-42 21 -105 21h-84l264 -625h-84l-72 172h-338zM360 576l-139 -332h278z" />
    </font>
</defs>
</svg>
